<svg width="45" height="45" viewBox="0 0 45 45" fill="none" xmlns="http://www.w3.org/2000/svg">
<path d="M33.75 3.75C37.8863 3.75 41.25 7.11375 41.25 11.25V33.75C41.25 37.8863 37.8863 41.25 33.75 41.25H11.25C7.11375 41.25 3.75 37.8863 3.75 33.75V11.25C3.75 7.11375 7.11375 3.75 11.25 3.75H33.75ZM33.75 0H11.25C5.03625 0 0 5.03625 0 11.25V33.75C0 39.9638 5.03625 45 11.25 45H33.75C39.9638 45 45 39.9638 45 33.75V11.25C45 5.03625 39.9638 0 33.75 0Z" fill="#31D5BA"/>
<path d="M22.4999 33.75C21.4649 33.75 20.6249 32.9119 20.6249 31.875V13.125C20.6249 12.09 21.4649 11.25 22.4999 11.25C23.5349 11.25 24.3749 12.09 24.3749 13.125V31.875C24.3749 32.9119 23.5349 33.75 22.4999 33.75Z" fill="#31D5BA"/>
<path d="M11.25 22.5002C11.25 21.4652 12.0881 20.6252 13.125 20.6252H31.875C32.91 20.6252 33.75 21.4652 33.75 22.5002C33.75 23.5352 32.91 24.3752 31.875 24.3752H13.125C12.0881 24.3752 11.25 23.5352 11.25 22.5002Z" fill="#31D5BA"/>
</svg>
