<svg width="64" height="69" viewBox="0 0 64 69" fill="none" xmlns="http://www.w3.org/2000/svg">
<path d="M32.1086 26.4163C30.5297 26.4163 28.9863 26.8845 27.6735 27.7616C26.3607 28.6388 25.3375 29.8856 24.7333 31.3443C24.1291 32.803 23.971 34.4081 24.279 35.9566C24.5871 37.5051 25.3474 38.9276 26.4638 40.044C27.5802 41.1604 29.0026 41.9207 30.5512 42.2288C32.0997 42.5368 33.7048 42.3787 35.1635 41.7745C36.6222 41.1703 37.869 40.1471 38.7462 38.8343C39.6233 37.5215 40.0915 35.9781 40.0915 34.3992C40.0892 32.2827 39.2474 30.2536 37.7508 28.757C36.2542 27.2604 34.2251 26.4186 32.1086 26.4163ZM32.1086 40.3501C30.9316 40.3501 29.7811 40.0011 28.8024 39.3472C27.8238 38.6933 27.0611 37.7639 26.6106 36.6765C26.1602 35.5891 26.0424 34.3926 26.272 33.2382C26.5016 32.0839 27.0684 31.0235 27.9006 30.1913C28.7329 29.359 29.7933 28.7922 30.9476 28.5626C32.102 28.333 33.2985 28.4509 34.3859 28.9013C35.4733 29.3517 36.4027 30.1144 37.0566 31.0931C37.7105 32.0717 38.0595 33.2222 38.0595 34.3992C38.0578 35.977 37.4303 37.4896 36.3147 38.6053C35.199 39.7209 33.6863 40.3484 32.1086 40.3501Z" fill="#5C3D42"/>
<path d="M35.5921 33.3833C35.3226 33.3833 35.0642 33.4903 34.8736 33.6809C34.6831 33.8714 34.5761 34.1298 34.5761 34.3993C34.5745 34.8314 34.4602 35.2555 34.2445 35.6299C34.0287 36.0042 33.7189 36.3157 33.3458 36.5335C33.2305 36.6007 33.1296 36.69 33.0488 36.7962C32.968 36.9024 32.909 37.0235 32.875 37.1525C32.841 37.2816 32.8327 37.416 32.8507 37.5482C32.8687 37.6805 32.9125 37.8079 32.9798 37.9231C33.047 38.0384 33.1362 38.1393 33.2424 38.2201C33.3486 38.3009 33.4697 38.36 33.5987 38.394C33.7278 38.4279 33.8623 38.4362 33.9945 38.4182C34.1267 38.4002 34.2541 38.3564 34.3694 38.2892C35.0489 37.8919 35.613 37.324 36.0057 36.6418C36.3983 35.9595 36.606 35.1865 36.6081 34.3993C36.6081 34.1298 36.501 33.8714 36.3105 33.6809C36.12 33.4903 35.8615 33.3833 35.5921 33.3833Z" fill="#5C3D42"/>
<path d="M58.3681 32.0247C58.7385 32.122 59.1197 32.1719 59.5026 32.1733C60.3921 32.1728 61.2616 31.9086 62.001 31.4142C62.7405 30.9198 63.3169 30.2174 63.6574 29.3956C63.9978 28.5738 64.0871 27.6695 63.9139 26.797C63.7406 25.9245 63.3127 25.1229 62.6842 24.4934C62.6104 24.4203 62.532 24.3541 62.4519 24.2862C63.2067 21.5493 63.0325 19.1655 61.8986 17.1996C59.4602 12.973 53.057 11.5883 44.2711 13.3376C41.3839 4.85421 36.9808 0 32.1086 0C27.2364 0 22.8339 4.85363 19.9437 13.3382C11.1561 11.5878 4.75466 12.973 2.31681 17.199C1.21778 19.0975 1.02502 21.4831 1.72578 24.1311C0.898642 24.7787 0.324148 25.6953 0.10188 26.722C-0.120389 27.7487 0.0235778 28.8208 0.508827 29.7525C0.994075 30.6841 1.79002 31.4167 2.75869 31.8231C3.72737 32.2295 4.80771 32.2842 5.81247 31.9777C6.41511 32.7794 7.07523 33.5905 7.78644 34.4027C1.88254 41.1398 -0.119875 47.3769 2.31623 51.5989C4.06667 54.6336 7.85552 56.2075 13.1051 56.2075C15.4032 56.1793 17.6931 55.9281 19.9426 55.4574C22.8321 63.9431 27.2358 68.7985 32.1086 68.7985C34.3101 68.7985 36.4815 67.7662 38.4328 65.8236C39.3929 66.2443 40.4698 66.3164 41.4773 66.0274C42.4849 65.7385 43.3599 65.1067 43.9511 64.2411C44.5424 63.3756 44.8127 62.3307 44.7154 61.2871C44.6181 60.2434 44.1593 59.2665 43.4183 58.5252C43.3451 58.4514 43.2667 58.3847 43.1895 58.3173C43.5698 57.418 43.9338 56.4595 44.2775 55.4574C46.526 55.9284 48.815 56.1796 51.1121 56.2075C56.3611 56.2075 60.1505 54.633 61.901 51.5989C64.3394 47.3769 62.3346 41.1398 56.4319 34.4033C57.117 33.6213 57.7638 32.8259 58.3681 32.0247ZM61.2466 29.4202C60.7836 29.882 60.1563 30.1413 59.5023 30.1413C58.8483 30.1413 58.221 29.882 57.7579 29.4202C57.4132 29.0752 57.1785 28.6358 57.0835 28.1574C56.9885 27.679 57.0375 27.1833 57.2242 26.7327C57.4109 26.2822 57.7271 25.8971 58.1326 25.6262C58.5381 25.3553 59.0149 25.2107 59.5026 25.2107C59.9903 25.2107 60.467 25.3553 60.8726 25.6262C61.2781 25.8971 61.5942 26.2822 61.781 26.7327C61.9677 27.1833 62.0166 27.679 61.9216 28.1574C61.8266 28.6358 61.5914 29.0752 61.2466 29.4202ZM60.1406 18.2151C60.9355 19.5951 61.0887 21.3107 60.6103 23.3241C59.6562 23.0815 58.6489 23.1587 57.7429 23.5439C56.8369 23.929 56.0823 24.6009 55.595 25.4563C55.1077 26.3117 54.9146 27.3034 55.0453 28.2791C55.1761 29.2549 55.6234 30.1608 56.3187 30.8577C56.3918 30.9315 56.4702 30.9976 56.5474 31.0656C56.076 31.6794 55.5783 32.2887 55.0542 32.8932C52.5638 30.3073 49.8514 27.9448 46.9482 25.8328C46.569 22.2639 45.8813 18.7345 44.8929 15.2843C52.5496 13.8038 58.212 14.8721 60.1406 18.2151ZM42.901 53.0834C40.0743 52.3937 37.3034 51.493 34.6115 50.389C36.3445 49.5512 38.0705 48.6408 39.7641 47.6631C41.471 46.6762 43.1227 45.6358 44.699 44.5588C44.3136 47.4413 43.7125 50.2908 42.901 53.0834ZM21.3162 53.0834C20.504 50.2909 19.9024 47.4413 19.5164 44.5588C21.0968 45.6358 22.7479 46.6773 24.4543 47.6631C26.1461 48.6408 27.8704 49.5523 29.6063 50.389C26.9142 51.493 24.143 52.3937 21.3162 53.0834ZM21.3162 15.7151C24.1429 16.4047 26.9138 17.3054 29.6057 18.4095C27.8721 19.2473 26.1466 20.1577 24.4531 21.1383C22.7462 22.1252 21.0944 23.1656 19.5153 24.2426C19.9014 21.3591 20.5034 18.5085 21.3162 15.7151ZM17.0136 40.2248C14.7088 38.4501 12.5424 36.5026 10.5331 34.3993C12.5426 32.2961 14.709 30.3486 17.0136 28.5737C16.8702 30.4896 16.7941 32.4421 16.7941 34.3993C16.7941 36.3564 16.869 38.3065 17.0136 40.2248ZM25.4708 45.9028C23.2716 44.6331 21.167 43.2699 19.1965 41.8521C18.9539 39.4189 18.8261 36.9172 18.8261 34.3993C18.8261 31.8813 18.9539 29.3802 19.1965 26.9464C21.1653 25.5298 23.2705 24.166 25.4708 22.8957C27.648 21.6376 29.8798 20.4938 32.1092 19.483C34.3403 20.4944 36.5715 21.6381 38.7487 22.8957C40.9479 24.1654 43.0525 25.5286 45.023 26.9464C45.2657 29.3796 45.3934 31.8813 45.3934 34.3993C45.3934 36.9172 45.2657 39.4183 45.023 41.8521C43.0542 43.2687 40.9491 44.6325 38.7487 45.9028C36.5715 47.1609 34.3398 48.3047 32.1103 49.3155C29.878 48.3041 27.6468 47.1604 25.4697 45.9028H25.4708ZM42.9021 15.7128C43.7143 18.5053 44.316 21.3549 44.7019 24.2374C43.1216 23.1604 41.4704 22.1189 39.767 21.133C38.0711 20.1577 36.3468 19.2462 34.6109 18.4095C37.303 17.3055 40.0741 16.4048 42.901 15.7151L42.9021 15.7128ZM47.2036 28.5737C49.5084 30.3484 51.6747 32.2959 53.684 34.3993C51.6746 36.5024 49.5082 38.4499 47.2036 40.2248C47.347 38.3089 47.4231 36.3564 47.4231 34.3993C47.4231 32.4421 47.3482 30.492 47.2036 28.5737ZM32.1086 2.03202C35.9625 2.03202 39.7217 6.4032 42.2774 13.7742C38.7936 14.6403 35.3911 15.8058 32.108 17.2577C28.8253 15.8056 25.4233 14.6401 21.9398 13.7742C24.4961 6.40262 28.2547 2.03202 32.1086 2.03202ZM2.74818 29.4202C2.34325 29.0165 2.09086 28.4849 2.03404 27.9159C1.97722 27.3469 2.11949 26.7759 2.43659 26.3C2.75369 25.8242 3.226 25.4731 3.77301 25.3066C4.32001 25.14 4.90785 25.1683 5.43631 25.3867C5.96478 25.605 6.40116 25.9999 6.67107 26.504C6.94099 27.008 7.02772 27.5901 6.91649 28.151C6.80526 28.7119 6.50295 29.2168 6.0611 29.5798C5.61924 29.9427 5.0652 30.1411 4.4934 30.1413C4.16916 30.1426 3.84788 30.0796 3.5482 29.9558C3.24851 29.832 2.97697 29.65 2.74818 29.4202ZM7.67438 24.4934C7.14864 23.9686 6.50114 23.5821 5.78966 23.3685C5.07819 23.1548 4.32488 23.1206 3.59698 23.269C3.12788 21.2799 3.28463 19.5823 4.07596 18.218C6.00522 14.8733 11.6676 13.8056 19.3243 15.2866C18.3358 18.7371 17.648 22.2666 17.2684 25.8357C14.3651 27.9454 11.6525 30.3058 9.16183 32.8898C8.59634 32.2372 8.06802 31.5885 7.57685 30.9437C7.60878 30.9135 7.64303 30.8856 7.67438 30.8548C8.51718 30.0105 8.99053 28.8662 8.99053 27.6733C8.99053 26.4803 8.51718 25.336 7.67438 24.4917V24.4934ZM4.0748 50.5829C2.15077 47.2434 4.05622 41.8039 9.16473 35.9088C11.6546 38.4935 14.3665 40.8548 17.269 42.9657C17.6482 46.5346 18.3359 50.064 19.3243 53.5142C11.667 54.9935 6.00464 53.9264 4.07596 50.5829H4.0748ZM41.9813 63.4514C41.5775 63.8565 41.0458 64.109 40.4767 64.1658C39.9075 64.2227 39.3363 64.0804 38.8603 63.7633C38.3844 63.4461 38.0332 62.9737 37.8666 62.4265C37.6999 61.8794 37.7282 61.2914 37.9467 60.7628C38.1651 60.2342 38.56 59.7977 39.0643 59.5277C39.5685 59.2577 40.1508 59.171 40.7118 59.2823C41.2728 59.3936 41.7779 59.696 42.1409 60.138C42.5038 60.58 42.7023 61.1342 42.7024 61.7062C42.7026 62.3604 42.4433 62.988 41.9813 63.4514ZM40.2396 57.2084C39.3833 57.2084 38.5448 57.4527 37.8226 57.9128C37.1004 58.3729 36.5246 59.0296 36.1628 59.8056C35.801 60.5817 35.6682 61.445 35.7801 62.2939C35.892 63.1428 36.2439 63.9422 36.7944 64.598C35.2849 66.0361 33.7127 66.7665 32.1115 66.7665C28.2576 66.7665 24.4984 62.3953 21.9427 55.0243C25.4265 54.1582 28.8289 52.9927 32.1121 51.5408C35.3955 52.993 38.7984 54.1585 42.2826 55.0243C41.9982 55.84 41.7021 56.6209 41.392 57.3611C41.0151 57.2605 40.6268 57.2092 40.2367 57.2084H40.2396ZM60.1441 50.5829C58.2149 53.927 52.5525 54.9953 44.8958 53.5142C45.8843 50.0638 46.5721 46.5342 46.9517 42.9651C49.8531 40.8544 52.5637 38.4932 55.0525 35.9088C60.161 41.8039 62.0664 47.2434 60.1412 50.5829H60.1441Z" fill="#5C3D42"/>
</svg>
