<svg width="45" height="45" viewBox="0 0 45 45" fill="none" xmlns="http://www.w3.org/2000/svg">
<path d="M22.4933 45C19.5382 45.0055 16.6113 44.4269 13.8806 43.2976C11.1499 42.1684 8.66935 40.5106 6.58135 38.4196C-2.19378 29.6447 -2.19378 15.3679 6.58135 6.59297C8.66619 4.49645 11.1462 2.83425 13.8779 1.70258C16.6094 0.570904 19.5383 -0.0077631 22.4951 7.86442e-05C28.5066 7.86442e-05 34.1581 2.34054 38.407 6.59297C42.6577 10.8436 45 16.4949 45 22.5063C45 28.5177 42.6595 34.169 38.407 38.4196C36.3186 40.5106 33.8376 42.1684 31.1067 43.2976C28.3757 44.4269 25.4485 45.0054 22.4933 45ZM22.4951 3.60078C20.0113 3.59374 17.5508 4.07958 15.2562 5.03018C12.9615 5.98079 10.8782 7.37725 9.12712 9.13863C5.55692 12.7088 3.59089 17.4563 3.59089 22.5063C3.59089 27.5563 5.55692 32.3021 9.12712 35.874C16.4979 43.2446 28.4922 43.2464 35.8613 35.874C39.4314 32.3039 41.3992 27.5563 41.3992 22.5063C41.3992 17.4563 39.4332 12.7105 35.8613 9.13863C34.11 7.37776 32.0271 5.98166 29.7328 5.03109C27.4385 4.08052 24.9785 3.59437 22.4951 3.60078Z" fill="#31D5BA"/>
<path d="M14.8555 31.943C14.4991 31.9438 14.1504 31.8387 13.8539 31.6411C13.5573 31.4433 13.3262 31.162 13.1898 30.8327C13.0534 30.5035 13.018 30.141 13.0878 29.7916C13.1578 29.4421 13.33 29.1213 13.5826 28.8698L28.859 13.5939C29.0261 13.4267 29.2246 13.2942 29.443 13.2036C29.6613 13.1131 29.8955 13.0667 30.1318 13.0667C30.3682 13.0667 30.6024 13.1131 30.8207 13.2036C31.0391 13.2942 31.2376 13.4267 31.4047 13.5939C31.5718 13.761 31.7045 13.9594 31.795 14.1779C31.8854 14.3963 31.932 14.6303 31.932 14.8667C31.932 15.1031 31.8854 15.3372 31.795 15.5556C31.7045 15.7739 31.5718 15.9724 31.4047 16.1395L16.1284 31.4156C15.9616 31.5834 15.7633 31.7163 15.5447 31.8069C15.3263 31.8974 15.092 31.9437 14.8555 31.943Z" fill="#31D5BA"/>
<path d="M30.1329 31.943C29.8964 31.9433 29.6623 31.8968 29.4439 31.8063C29.2253 31.7158 29.027 31.5829 28.8601 31.4156L13.5836 16.1395C13.4165 15.9724 13.2839 15.7739 13.1935 15.5556C13.103 15.3372 13.0564 15.1031 13.0564 14.8667C13.0564 14.6303 13.103 14.3963 13.1935 14.1779C13.2839 13.9594 13.4165 13.761 13.5836 13.5939C13.7509 13.4267 13.9493 13.2942 14.1676 13.2036C14.3861 13.1131 14.6202 13.0667 14.8566 13.0667C15.093 13.0667 15.327 13.1131 15.5454 13.2036C15.7638 13.2942 15.9623 13.4267 16.1294 13.5939L31.4058 28.8698C31.6584 29.1213 31.8306 29.4421 31.9005 29.7916C31.9704 30.141 31.9349 30.5035 31.7986 30.8327C31.6622 31.162 31.4311 31.4433 31.1345 31.6411C30.8379 31.8387 30.4893 31.9438 30.1329 31.943Z" fill="#31D5BA"/>
</svg>
