<svg width="64" height="68" viewBox="0 0 64 68" fill="none" xmlns="http://www.w3.org/2000/svg">
<path d="M25.3795 5.19641C25.3795 4.46737 25.9741 3.87279 26.7032 3.87279C27.4323 3.87279 28.0269 4.46737 28.0269 5.19641C28.0269 5.92545 27.4323 6.52003 26.7032 6.52003C25.9741 6.52017 25.3795 5.92559 25.3795 5.19641ZM18.7233 21.0243L13.9081 25.3942L12.3448 23.8308C11.9174 23.4036 11.2247 23.4036 10.7973 23.8308C10.37 24.2582 10.37 24.9509 10.7973 25.3783L13.0976 27.6787C13.3109 27.8918 13.5909 27.9992 13.8715 27.9992C14.1344 27.9992 14.3977 27.9051 14.6067 27.7152L20.1939 22.6448C20.6415 22.2387 20.6751 21.5467 20.2689 21.0991C19.8627 20.6516 19.1705 20.6182 18.7233 21.0243ZM25.0915 22.8078H41.8355C42.4398 22.8078 42.9298 22.3179 42.9298 21.7136C42.9298 21.1093 42.4398 20.6193 41.8355 20.6193H25.0915C24.4872 20.6193 23.9972 21.1093 23.9972 21.7136C23.9972 22.3179 24.4872 22.8078 25.0915 22.8078ZM41.8355 25.6898H25.0915C24.4872 25.6898 23.9972 26.1797 23.9972 26.784C23.9972 27.3883 24.4872 27.8782 25.0915 27.8782H41.8355C42.4398 27.8782 42.9298 27.3883 42.9298 26.784C42.9298 26.1797 42.4398 25.6898 41.8355 25.6898ZM41.8355 34.4069H25.0915C24.4872 34.4069 23.9972 34.8968 23.9972 35.5011C23.9972 36.1054 24.4872 36.5954 25.0915 36.5954H41.8355C42.4398 36.5954 42.9298 36.1054 42.9298 35.5011C42.9298 34.8968 42.4398 34.4069 41.8355 34.4069ZM41.8355 39.4772H25.0915C24.4872 39.4772 23.9972 39.9671 23.9972 40.5714C23.9972 41.1757 24.4872 41.6657 25.0915 41.6657H41.8355C42.4398 41.6657 42.9298 41.1757 42.9298 40.5714C42.9298 39.9671 42.4398 39.4772 41.8355 39.4772ZM18.7233 34.6907L13.9081 39.0606L12.3448 37.4972C11.9174 37.07 11.2247 37.07 10.7973 37.4972C10.37 37.9246 10.37 38.6173 10.7973 39.0447L13.0976 41.3451C13.3109 41.5582 13.5909 41.6655 13.8715 41.6655C14.1344 41.6655 14.3977 41.5714 14.6067 41.3816L20.1939 36.3111C20.6415 35.905 20.6751 35.2131 20.2689 34.7655C19.8627 34.318 19.1705 34.2846 18.7233 34.6907ZM18.7233 48.4783L13.9081 52.8481L12.3448 51.2847C11.9174 50.8576 11.2247 50.8576 10.7973 51.2847C10.37 51.7122 10.37 52.4048 10.7973 52.8323L13.0976 55.1326C13.3109 55.3457 13.5909 55.4531 13.8715 55.4531C14.1344 55.4531 14.3977 55.359 14.6067 55.1691L20.1939 50.0987C20.6415 49.6926 20.6751 49.0006 20.2689 48.5531C19.8627 48.1055 19.1705 48.0722 18.7233 48.4783ZM63.4569 24.4957L53.4065 41.9037V63.8052C53.4065 66.0315 51.5951 67.843 49.3686 67.843H4.03788C1.81151 67.843 0 66.0317 0 63.8052V9.64354C0 7.41717 1.81138 5.60566 4.03788 5.60566H14.2764V4.9208C14.2764 4.31651 14.7664 3.82656 15.3707 3.82656H21.0416C21.9547 1.5359 24.1726 0 26.7032 0C29.2339 0 31.4519 1.5359 32.365 3.8267H38.0359C38.6402 3.8267 39.1302 4.31664 39.1302 4.92094V5.60579H49.3687C51.5951 5.60579 53.4066 7.41717 53.4066 9.64368V23.2973L55.4003 19.8441C55.9413 18.907 56.8167 18.2362 57.8653 17.9553C58.9138 17.6743 60.0075 17.8175 60.9445 18.3585L61.9716 18.9513C63.9097 20.0703 64.576 22.5575 63.4569 24.4957ZM39.1302 7.79414V9.70058H48.2174C48.8217 9.70058 49.3117 10.1905 49.3117 10.7948V30.3895L51.2181 27.0877V9.64354C51.2181 8.62385 50.3885 7.79414 49.3687 7.79414H39.1302ZM45.2613 50.0326L42.3824 48.3705V51.6948L45.2613 50.0326ZM47.1231 34.1802V11.8892H39.1302V12.5742C39.1302 13.1785 38.6402 13.6684 38.0359 13.6684H15.3707C14.7664 13.6684 14.2764 13.1785 14.2764 12.5742V11.8892H6.2834V61.5596H47.1231V51.4847L42.8506 53.9515C42.9012 54.0775 42.9298 54.2148 42.9298 54.359C42.9298 54.9633 42.4398 55.4532 41.8355 55.4532H25.0915C24.4872 55.4532 23.9972 54.9633 23.9972 54.359C23.9972 53.7547 24.4872 53.2648 25.0915 53.2648H40.1938V50.3829H25.0915C24.4872 50.3829 23.9972 49.893 23.9972 49.2887C23.9972 48.6844 24.4872 48.1945 25.0915 48.1945H40.1938V46.4755C40.1938 46.2854 40.2453 46.0931 40.3404 45.9284L47.1231 34.1802ZM16.4649 11.48H36.9417V6.01518H31.5676C31.0622 6.01518 30.6225 5.66899 30.5039 5.17754C30.0794 3.41759 28.5165 2.18848 26.7032 2.18848C24.8899 2.18848 23.327 3.41759 22.9027 5.17754C22.7841 5.66899 22.3444 6.01518 21.839 6.01518H16.4649V11.48ZM51.218 45.6943L49.3115 48.9961V62.6539C49.3115 63.2582 48.8216 63.7481 48.2173 63.7481H5.18916C4.58487 63.7481 4.09492 63.2582 4.09492 62.6539V10.795C4.09492 10.1907 4.58487 9.70072 5.18916 9.70072H14.2764V7.79414H4.03788C3.01819 7.79414 2.18848 8.62371 2.18848 9.64354V63.8052C2.18848 64.8249 3.01805 65.6546 4.03788 65.6546H49.3686C50.3883 65.6546 51.218 64.825 51.218 63.8052V45.6943ZM61.7463 21.9829C61.6168 21.4988 61.3081 21.0953 60.8772 20.8465L59.8502 20.2537C59.4196 20.0049 58.9155 19.9391 58.4316 20.0691C57.9476 20.1986 57.5441 20.5073 57.2952 20.9382L42.7827 46.0748L47.0491 48.5379L61.5618 23.4014C61.8105 22.9706 61.876 22.4668 61.7463 21.9829Z" fill="#5C3D42"/>
</svg>
