<svg width="64" height="83" viewBox="0 0 64 83" fill="none" xmlns="http://www.w3.org/2000/svg">
<path d="M6.95651 0H9.73912V2.78261H6.95651V0Z" fill="#5C3D42"/>
<path d="M0 6.95654H2.78261V9.73915H0V6.95654Z" fill="#5C3D42"/>
<path d="M13.913 6.95654H16.6956V9.73915H13.913V6.95654Z" fill="#5C3D42"/>
<path d="M1.45822 13.2666L3.42553 11.2993L5.39283 13.2666L3.42553 15.2339L1.45822 13.2666Z" fill="#5C3D42"/>
<path d="M11.2962 3.43066L13.2635 1.46336L15.2308 3.43066L13.2635 5.39797L11.2962 3.43066Z" fill="#5C3D42"/>
<path d="M11.2952 13.2676L13.2625 11.3003L15.2298 13.2676L13.2625 15.2349L11.2952 13.2676Z" fill="#5C3D42"/>
<path d="M1.45924 3.42969L3.42655 1.46238L5.39385 3.42969L3.42655 5.39699L1.45924 3.42969Z" fill="#5C3D42"/>
<path d="M29.2174 13.913C28.8484 13.913 28.4945 14.0596 28.2336 14.3205C27.9727 14.5814 27.8261 14.9353 27.8261 15.3043V21.378C23.5198 22.1739 19.4359 23.8892 15.8529 26.4071L12.1138 22.668C11.9846 22.5388 11.8312 22.4363 11.6624 22.3663C11.4936 22.2964 11.3126 22.2604 11.1299 22.2604C10.9472 22.2604 10.7663 22.2964 10.5975 22.3663C10.4287 22.4363 10.2753 22.5388 10.1461 22.668L4.58089 28.2332C4.45168 28.3624 4.3492 28.5158 4.27927 28.6846C4.20935 28.8534 4.17336 29.0343 4.17336 29.217C4.17336 29.3997 4.20935 29.5806 4.27927 29.7494C4.3492 29.9183 4.45168 30.0716 4.58089 30.2008L8.32001 33.94C4.70987 39.0752 2.77575 45.201 2.78263 51.4782C2.78263 68.3559 16.5136 82.0869 33.3913 82.0869C50.269 82.0869 64 68.3559 64 51.4782C64.0069 45.2009 62.0727 39.075 58.4624 33.9398L62.2016 30.2007C62.3308 30.0715 62.4333 29.9181 62.5032 29.7493C62.5731 29.5805 62.6091 29.3995 62.6091 29.2168C62.6091 29.0341 62.5731 28.8532 62.5032 28.6844C62.4333 28.5156 62.3308 28.3622 62.2016 28.233L56.6363 22.6678C56.5071 22.5386 56.3538 22.4361 56.185 22.3662C56.0162 22.2962 55.8352 22.2603 55.6525 22.2603C55.4698 22.2603 55.2889 22.2962 55.1201 22.3662C54.9513 22.4361 54.7979 22.5386 54.6687 22.6678L50.9296 26.4069C47.3466 23.8892 43.2627 22.1739 38.9565 21.378V15.3043C38.9565 14.9353 38.8099 14.5814 38.549 14.3205C38.2881 14.0596 37.9342 13.913 37.5652 13.913H34.7826V13.2174C34.7826 11.1879 33.9764 9.24152 32.5413 7.80645C31.1063 6.37139 29.1599 5.56519 27.1304 5.56519C25.101 5.56519 23.1546 6.37139 21.7195 7.80645C20.2845 9.24152 19.4783 11.1879 19.4783 13.2174C19.4783 14.5088 18.9652 15.7474 18.052 16.6607C17.1388 17.5739 15.9002 18.0869 14.6087 18.0869C13.3172 18.0869 12.0786 17.5739 11.1654 16.6607C10.2522 15.7474 9.73915 14.5088 9.73915 13.2174V6.95649H6.95654V13.2174C6.95654 14.2223 7.15447 15.2173 7.53902 16.1457C7.92358 17.0741 8.48724 17.9177 9.19781 18.6283C9.90838 19.3388 10.7519 19.9025 11.6804 20.287C12.6088 20.6716 13.6038 20.8695 14.6087 20.8695C15.6136 20.8695 16.6087 20.6716 17.5371 20.287C18.4655 19.9025 19.309 19.3388 20.0196 18.6283C20.7302 17.9177 21.2938 17.0741 21.6784 16.1457C22.063 15.2173 22.2609 14.2223 22.2609 13.2174C22.2609 12.5779 22.3868 11.9447 22.6316 11.3539C22.8763 10.7631 23.235 10.2262 23.6871 9.77406C24.1393 9.32188 24.6761 8.96318 25.2669 8.71847C25.8577 8.47375 26.491 8.34779 27.1304 8.34779C27.7699 8.34779 28.4031 8.47375 28.9939 8.71847C29.5847 8.96318 30.1216 9.32188 30.5737 9.77406C31.0259 10.2262 31.3846 10.7631 31.6293 11.3539C31.8741 11.9447 32 12.5779 32 13.2174V13.913H29.2174ZM7.53271 29.2174L11.1305 25.6196L13.6324 28.1217C12.3363 29.2199 11.133 30.4232 10.0348 31.7193L7.53271 29.2174ZM33.3913 79.3043C18.048 79.3043 5.56523 66.8215 5.56523 51.4782C5.56523 36.1349 18.048 23.6521 33.3913 23.6521C48.7346 23.6521 61.2174 36.1349 61.2174 51.4782C61.2174 66.8215 48.7346 79.3043 33.3913 79.3043ZM55.6522 25.6196L59.2499 29.2174L56.7478 31.7193C55.6496 30.4232 54.4464 29.2199 53.1503 28.1217L55.6522 25.6196ZM36.1739 20.9974C35.257 20.9144 34.3294 20.8695 33.3913 20.8695C32.4532 20.8695 31.5256 20.9144 30.6087 20.9974V16.6956H36.1739V20.9974Z" fill="#5C3D42"/>
<path d="M33.3913 26.4348C19.5826 26.4348 8.34782 37.6696 8.34782 51.4783C8.34782 65.287 19.5826 76.5218 33.3913 76.5218C47.2 76.5218 58.4348 65.287 58.4348 51.4783C58.4348 37.6696 47.2 26.4348 33.3913 26.4348ZM33.3913 73.7391C28.9885 73.7391 24.6846 72.4336 21.0238 69.9875C17.363 67.5415 14.5098 64.0648 12.8249 59.9972C11.1401 55.9295 10.6992 51.4536 11.5582 47.1354C12.4171 42.8172 14.5372 38.8507 17.6505 35.7375C20.7637 32.6242 24.7302 30.5041 29.0484 29.6452C33.3666 28.7862 37.8425 29.2271 41.9102 30.9119C45.9778 32.5968 49.4545 35.45 51.9005 39.1108C54.3466 42.7716 55.6522 47.0755 55.6522 51.4783C55.6455 57.3802 53.2981 63.0385 49.1248 67.2118C44.9515 71.3851 39.2932 73.7325 33.3913 73.7391Z" fill="#5C3D42"/>
<path d="M33.3912 47.3043C32.5317 47.3033 31.6928 47.5675 30.9889 48.0607C30.2851 48.5538 29.7504 49.2521 29.4578 50.0602C29.1652 50.8684 29.1289 51.7471 29.3539 52.5766C29.5789 53.4061 30.0543 54.146 30.7151 54.6955C31.376 55.245 32.1902 55.5774 33.0469 55.6473C33.9035 55.7172 34.7608 55.5212 35.502 55.0861C36.2432 54.651 36.8322 53.9979 37.1887 53.2158C37.5452 52.4338 37.6518 51.5608 37.4941 50.7159L50.9564 42.9439L49.5651 40.5342L36.1018 48.3072C35.3474 47.6593 34.3856 47.3034 33.3912 47.3043ZM33.3912 52.8695C33.116 52.8695 32.847 52.7879 32.6182 52.635C32.3894 52.4821 32.2111 52.2648 32.1058 52.0106C32.0005 51.7564 31.9729 51.4766 32.0266 51.2067C32.0803 50.9369 32.2128 50.689 32.4074 50.4944C32.6019 50.2998 32.8498 50.1673 33.1197 50.1136C33.3896 50.0599 33.6694 50.0875 33.9236 50.1928C34.1778 50.2981 34.3951 50.4764 34.548 50.7052C34.7009 50.934 34.7825 51.203 34.7825 51.4782C34.782 51.847 34.6353 52.2007 34.3745 52.4615C34.1137 52.7224 33.76 52.8691 33.3912 52.8695Z" fill="#5C3D42"/>
<path d="M32 32H34.7826V36.1739H32V32Z" fill="#5C3D42"/>
<path d="M32 66.7825H34.7826V70.9564H32V66.7825Z" fill="#5C3D42"/>
<path d="M22.4463 35.3047L24.8561 33.9134L26.943 37.528L24.5333 38.9193L22.4463 35.3047Z" fill="#5C3D42"/>
<path d="M39.8369 65.427L42.2467 64.0357L44.3336 67.6503L41.9239 69.0416L39.8369 65.427Z" fill="#5C3D42"/>
<path d="M15.8257 42.9443L17.217 40.5346L20.8317 42.6216L19.4404 45.0313L15.8257 42.9443Z" fill="#5C3D42"/>
<path d="M45.948 60.3359L47.3393 57.9262L50.9539 60.0132L49.5626 62.4229L45.948 60.3359Z" fill="#5C3D42"/>
<path d="M13.913 50.0869H18.087V52.8695H13.913V50.0869Z" fill="#5C3D42"/>
<path d="M48.6956 50.0869H52.8695V52.8695H48.6956V50.0869Z" fill="#5C3D42"/>
<path d="M15.8264 60.0107L19.441 57.9238L20.8323 60.3335L17.2177 62.4205L15.8264 60.0107Z" fill="#5C3D42"/>
<path d="M22.4456 67.6521L24.5326 64.0375L26.9423 65.4288L24.8554 69.0434L22.4456 67.6521Z" fill="#5C3D42"/>
<path d="M39.8376 37.5298L41.9246 33.9152L44.3343 35.3065L42.2474 38.9211L39.8376 37.5298Z" fill="#5C3D42"/>
</svg>
