<svg width="189" height="61" viewBox="0 0 189 61" fill="none" xmlns="http://www.w3.org/2000/svg">
<path fill-rule="evenodd" clip-rule="evenodd" d="M26.3611 60.0383C12.1239 60.0383 0.551147 46.6906 0.551147 30.2733C0.551147 13.856 12.1239 0.508301 26.3611 0.508301C33.5278 0.508301 40.2097 3.80285 45.15 9.83283C45.257 9.9573 45.322 10.1217 45.3333 10.2965C45.3446 10.4712 45.3016 10.6449 45.2118 10.7863L46.7267 13.0704C47.0152 12.8993 47.3915 12.9357 47.6195 13.3523C50.6218 18.321 52.1711 24.1863 52.1711 30.2717C52.1711 46.6906 40.5984 60.0383 26.3611 60.0383ZM26.3611 53.8943C15.0782 53.8943 5.87741 43.2836 5.87741 30.2733C5.87741 17.263 15.0782 6.64915 26.3611 6.64915C31.7355 6.64915 36.82 9.05037 40.6451 13.3491C40.7091 13.4133 40.7615 13.4914 40.7992 13.5791C40.837 13.6667 40.8593 13.7621 40.8649 13.8597C40.8705 13.9573 40.8593 14.0552 40.832 14.1479C40.8046 14.2405 40.7616 14.3259 40.7055 14.3993L42.6228 17.1442C42.9154 16.9462 43.3206 16.9652 43.5513 17.3707C52.2563 32.6492 42.8096 53.8943 26.3611 53.8943Z" fill="#374267"/>
<path fill-rule="evenodd" clip-rule="evenodd" d="M27.0397 45.574C26.9034 45.5716 26.7707 45.5226 26.6585 45.4332C26.5463 45.3438 26.4595 45.2181 26.4093 45.0719C26.3612 44.961 22.1969 32.5621 15.7568 27.8705C14.4973 26.9772 13.529 26.0284 13.9164 23.906C14.3037 21.8405 15.5137 20.6669 17.6934 20.1093C21.5665 19.159 25.7322 26.0839 27.2801 28.9318C32.7052 19.8306 43.5514 5.5341 59.3379 3.85832C60.0988 3.75536 60.3817 5.05734 59.6771 5.42165C59.4354 5.53252 36.8695 17.4277 27.7168 45.1273C27.6484 45.2643 27.5497 45.3779 27.4307 45.4563C27.3117 45.5348 27.1768 45.5754 27.0397 45.574Z" fill="#2A7BA0"/>
<path d="M84.1197 15.6865C84.5526 15.7093 85.0198 15.7207 85.5211 15.7207C85.954 15.7207 86.4439 15.7321 86.9908 15.7549C87.5604 15.7549 88.1529 15.7321 88.7681 15.6865C88.2213 15.9372 87.7427 16.3018 87.3326 16.7803C86.9224 17.2588 86.592 17.7373 86.3414 18.2158C86.0224 18.7855 85.7603 19.3779 85.5552 19.9932C85.4413 20.3577 85.3502 21.0072 85.2818 21.9414C85.2134 22.8529 85.1565 23.9238 85.1109 25.1543C85.0881 26.3848 85.0767 27.6836 85.0767 29.0508C85.0767 30.418 85.0881 31.7282 85.1109 32.9814C85.1337 34.2119 85.1679 35.3057 85.2134 36.2627C85.259 37.2197 85.316 37.8919 85.3843 38.2793C85.4755 38.735 85.5894 39.168 85.7261 39.5781C85.8401 39.9427 85.9882 40.3187 86.1705 40.7061C86.3528 41.0706 86.5806 41.3669 86.8541 41.5947L83.3677 43.167C83.1854 42.9163 83.0373 42.6543 82.9234 42.3809C82.8095 42.1302 82.7183 41.9023 82.65 41.6973C82.5588 41.4466 82.5019 41.2188 82.4791 41.0137C82.4335 40.7402 82.3879 40.444 82.3423 40.125C82.2968 39.7832 82.2398 39.4642 82.1714 39.168C82.1259 38.849 82.0917 38.5869 82.0689 38.3818C82.0461 38.1768 82.0461 38.0514 82.0689 38.0059C82.0917 37.9603 81.955 38.1654 81.6588 38.6211C81.3625 39.054 80.9182 39.5667 80.3257 40.1592C79.7561 40.7288 79.0497 41.2871 78.2066 41.834C77.3635 42.3581 76.4179 42.6885 75.3697 42.8252C74.2987 42.9619 73.3075 42.7568 72.3961 42.21C71.5074 41.6631 70.744 40.8997 70.106 39.9199C69.468 38.9173 68.9781 37.7666 68.6363 36.4678C68.3173 35.1462 68.192 33.8018 68.2603 32.4346C68.3059 31.5231 68.511 30.7142 68.8755 30.0078C69.2401 29.2786 69.6959 28.652 70.2427 28.1279C70.8124 27.5811 71.4276 27.1253 72.0884 26.7607C72.772 26.3734 73.4328 26.0544 74.0709 25.8037C74.7317 25.5531 75.3469 25.3708 75.9166 25.2568C76.4862 25.1429 76.942 25.0632 77.2838 25.0176C77.6939 24.9948 78.161 25.0632 78.6851 25.2227C79.1408 25.3594 79.6649 25.5872 80.2574 25.9062C80.8726 26.2253 81.5562 26.7038 82.3082 27.3418C82.1714 25.0632 82.0461 23.2402 81.9322 21.873C81.8183 20.4831 81.7043 19.4235 81.5904 18.6943C81.4765 17.8285 81.3739 17.236 81.2828 16.917C81.1688 16.6891 81.0207 16.4613 80.8384 16.2334C80.6789 16.0511 80.4739 15.8688 80.2232 15.6865C79.9953 15.4814 79.7219 15.3219 79.4029 15.208C79.9953 15.3219 80.565 15.4017 81.1119 15.4473C81.6588 15.4928 82.1601 15.5384 82.6158 15.584C83.1399 15.6296 83.6412 15.6637 84.1197 15.6865ZM75.5406 28.4355C75.1076 28.5951 74.7545 28.8685 74.481 29.2559C74.2304 29.6432 74.0253 30.1104 73.8658 30.6572C73.7063 31.1813 73.5923 31.751 73.524 32.3662C73.4784 32.9587 73.4442 33.5397 73.4214 34.1094C73.4214 34.6562 73.4214 35.1576 73.4214 35.6133C73.4214 36.069 73.4214 36.4108 73.4214 36.6387C73.4214 36.7754 73.4442 37.026 73.4898 37.3906C73.5582 37.7324 73.6949 38.097 73.9 38.4844C74.105 38.849 74.3899 39.1794 74.7545 39.4756C75.1418 39.7718 75.6545 39.9199 76.2925 39.9199C76.8166 39.8743 77.3749 39.6921 77.9673 39.373C78.4914 39.0996 79.0839 38.6667 79.7447 38.0742C80.4283 37.459 81.1575 36.5817 81.9322 35.4424C81.8866 34.7132 81.8524 34.1094 81.8297 33.6309C81.8297 33.1523 81.8183 32.765 81.7955 32.4688C81.7727 32.127 81.7613 31.8535 81.7613 31.6484V31.1357C81.7613 30.999 81.7613 30.8509 81.7613 30.6914C81.7613 30.5319 81.7727 30.3838 81.7955 30.2471C81.1575 29.7913 80.5878 29.404 80.0865 29.085C79.608 28.7432 79.1295 28.4925 78.6509 28.333C78.1952 28.1507 77.7167 28.071 77.2154 28.0938C76.7369 28.0938 76.1786 28.2077 75.5406 28.4355ZM97.2105 26.5557C97.803 26.5557 98.4182 26.6696 99.0562 26.8975C99.6942 27.1025 100.309 27.376 100.902 27.7178C101.494 28.0368 102.03 28.39 102.508 28.7773C103.01 29.1419 103.42 29.4951 103.739 29.8369C104.308 30.4521 104.696 31.2839 104.901 32.332C105.129 33.3574 105.174 34.417 105.038 35.5107C104.901 36.5817 104.582 37.5957 104.081 38.5527C103.579 39.5098 102.884 40.2161 101.996 40.6719C101.358 40.9909 100.731 41.2415 100.116 41.4238C99.5005 41.6061 98.9081 41.7428 98.3384 41.834C97.7688 41.9251 97.2333 41.9707 96.732 41.9707C96.2307 41.9707 95.7977 41.9593 95.4332 41.9365C94.7496 41.891 94.0318 41.6517 93.2798 41.2188C92.5507 40.7858 91.8557 40.2503 91.1949 39.6123C90.5569 38.9743 90.01 38.2793 89.5543 37.5273C89.0985 36.7526 88.8251 36.0234 88.7339 35.3398C88.5972 34.4056 88.5744 33.4258 88.6656 32.4004C88.7567 31.375 89.0871 30.4294 89.6568 29.5635C90.2492 28.6976 91.1379 27.9798 92.3228 27.4102C93.5305 26.8405 95.1597 26.5557 97.2105 26.5557ZM96.0826 39.8174C96.3332 39.863 96.675 39.806 97.108 39.6465C97.5409 39.4642 97.9625 39.1794 98.3726 38.792C98.8056 38.4046 99.1815 37.9147 99.5005 37.3223C99.8423 36.707 100.047 35.9665 100.116 35.1006C100.184 34.2575 100.184 33.4827 100.116 32.7764C100.07 32.07 99.9677 31.4548 99.8082 30.9307C99.6487 30.3838 99.4664 29.9395 99.2613 29.5977C99.0562 29.2559 98.8397 29.0166 98.6119 28.8799C98.2245 28.6748 97.7574 28.5153 97.2105 28.4014C96.6636 28.2646 96.1965 28.2874 95.8091 28.4697C95.6269 28.5609 95.399 28.7546 95.1255 29.0508C94.8521 29.347 94.5787 29.723 94.3052 30.1787C94.0318 30.6117 93.7811 31.113 93.5533 31.6826C93.3482 32.2523 93.2001 32.8447 93.1089 33.46C93.0178 34.0752 92.995 34.736 93.0406 35.4424C93.1089 36.1488 93.2571 36.821 93.4849 37.459C93.7128 38.0742 94.0318 38.6097 94.442 39.0654C94.8749 39.4984 95.4218 39.749 96.0826 39.8174ZM107.738 38.1084C107.897 37.3564 108.011 36.6956 108.08 36.126C108.171 35.5335 108.239 35.0436 108.285 34.6562C108.33 34.2005 108.353 33.8132 108.353 33.4941C108.33 33.1068 108.308 32.651 108.285 32.127C108.285 31.5801 108.262 31.0446 108.216 30.5205C108.194 29.9736 108.159 29.4951 108.114 29.085C108.068 28.652 108.011 28.3444 107.943 28.1621C107.852 27.9798 107.726 27.7861 107.567 27.5811C107.248 27.1937 106.781 26.8177 106.166 26.4531C106.69 26.3392 107.134 26.248 107.499 26.1797C107.886 26.0885 108.205 26.0088 108.456 25.9404C108.729 25.8493 108.968 25.7695 109.173 25.7012C109.356 25.6328 109.572 25.5645 109.823 25.4961C110.028 25.4505 110.279 25.3936 110.575 25.3252C110.871 25.2568 111.213 25.1771 111.6 25.0859L111.498 28.1963C112.227 27.3304 112.967 26.681 113.719 26.248C114.471 25.8151 115.178 25.5075 115.838 25.3252C116.59 25.0973 117.331 24.9834 118.06 24.9834C118.972 25.029 119.815 25.1771 120.589 25.4277C121.387 25.6784 122.071 25.9746 122.64 26.3164C123.233 26.6354 123.711 26.9772 124.076 27.3418C124.44 27.7064 124.657 28.0254 124.725 28.2988C124.999 29.1875 125.067 30.0078 124.93 30.7598C124.794 31.4889 124.611 32.2067 124.383 32.9131C124.178 33.5967 123.996 34.2803 123.836 34.9639C123.7 35.6475 123.757 36.388 124.007 37.1855C124.099 37.3906 124.19 37.5957 124.281 37.8008C124.372 37.9831 124.486 38.1654 124.623 38.3477C124.759 38.5299 124.919 38.6781 125.101 38.792C124.85 38.7692 124.6 38.7578 124.349 38.7578C124.099 38.735 123.871 38.7122 123.666 38.6895C123.415 38.6667 123.187 38.6439 122.982 38.6211C122.754 38.5983 122.447 38.5869 122.059 38.5869C121.398 38.5869 120.373 38.6211 118.983 38.6895C119.188 38.2109 119.348 37.8122 119.461 37.4932C119.598 37.1514 119.712 36.8779 119.803 36.6729C119.894 36.4222 119.963 36.2285 120.008 36.0918C120.282 35.431 120.441 34.679 120.487 33.8359C120.555 32.9928 120.498 32.1383 120.316 31.2725C120.248 30.9762 120.134 30.623 119.974 30.2129C119.815 29.8027 119.598 29.404 119.325 29.0166C119.074 28.6292 118.766 28.2988 118.402 28.0254C118.06 27.752 117.661 27.5924 117.206 27.5469C116.75 27.5013 116.237 27.6152 115.668 27.8887C115.121 28.1621 114.528 28.6634 113.89 29.3926C113.412 30.0078 113.036 30.7598 112.762 31.6484C112.512 32.4004 112.341 33.346 112.25 34.4854C112.158 35.6019 112.295 36.9121 112.66 38.416C112.341 38.3704 112.044 38.3477 111.771 38.3477C111.498 38.3249 111.27 38.3021 111.087 38.2793C110.86 38.2565 110.655 38.2337 110.472 38.2109C110.267 38.2109 110.039 38.1995 109.789 38.1768C109.561 38.1768 109.276 38.1768 108.934 38.1768C108.592 38.154 108.194 38.1312 107.738 38.1084ZM136.073 36.3652C136.711 36.3652 137.303 36.2969 137.85 36.1602C138.306 36.0462 138.739 35.8639 139.149 35.6133C139.582 35.3398 139.867 34.9411 140.003 34.417C140.459 34.5081 140.847 34.5879 141.166 34.6562C141.485 34.7018 141.758 34.7474 141.986 34.793C142.237 34.8613 142.453 34.9069 142.635 34.9297C142.818 34.9753 143.034 35.0208 143.285 35.0664C143.513 35.112 143.786 35.1689 144.105 35.2373C144.447 35.2829 144.846 35.3512 145.301 35.4424C144.96 35.3968 144.606 35.431 144.242 35.5449C143.9 35.6589 143.57 35.7842 143.251 35.9209C142.886 36.0804 142.544 36.2741 142.225 36.502C142.02 36.6387 141.781 36.8438 141.507 37.1172C141.257 37.3906 140.892 37.6527 140.414 37.9033C139.935 38.154 139.297 38.3704 138.5 38.5527C137.725 38.7122 136.722 38.7692 135.492 38.7236C134.011 38.6781 132.769 38.416 131.766 37.9375C130.764 37.4362 129.955 36.8324 129.339 36.126C128.724 35.3968 128.28 34.6107 128.006 33.7676C127.733 32.9245 127.585 32.1383 127.562 31.4092C127.539 30.68 127.756 29.9167 128.211 29.1191C128.667 28.3216 129.305 27.5924 130.126 26.9316C130.969 26.2708 131.983 25.7354 133.168 25.3252C134.352 24.8923 135.651 24.6758 137.064 24.6758C137.884 24.6758 138.636 24.7783 139.32 24.9834C140.026 25.1657 140.664 25.4163 141.234 25.7354C141.826 26.0544 142.339 26.4189 142.772 26.8291C143.205 27.2165 143.57 27.6152 143.866 28.0254C144.162 28.4583 144.413 28.9141 144.618 29.3926C144.8 29.8027 144.948 30.2699 145.062 30.7939C145.176 31.318 145.21 31.8535 145.165 32.4004C143.433 32.446 142.031 32.4801 140.961 32.5029C139.912 32.5257 139.092 32.5371 138.5 32.5371H136.961H135.799C135.389 32.5371 134.854 32.5485 134.193 32.5713C133.532 32.5941 132.723 32.6283 131.766 32.6738C131.88 33.5853 132.165 34.2917 132.621 34.793C133.099 35.2715 133.6 35.6361 134.125 35.8867C134.717 36.1602 135.366 36.3197 136.073 36.3652ZM132.997 30.2129C133.726 30.2585 134.33 30.2926 134.808 30.3154C135.309 30.3382 135.72 30.361 136.039 30.3838C136.38 30.4066 136.654 30.418 136.859 30.418H137.713C138.283 30.418 139.343 30.3838 140.892 30.3154C140.824 29.3128 140.607 28.5495 140.243 28.0254C139.901 27.5013 139.536 27.1139 139.149 26.8633C138.693 26.5898 138.192 26.4303 137.645 26.3848C136.164 26.4076 135.059 26.7152 134.33 27.3076C133.623 27.9001 133.179 28.8685 132.997 30.2129Z" fill="#5C3D42"/>
</svg>
