<svg width="64" height="58" viewBox="0 0 64 58" fill="none" xmlns="http://www.w3.org/2000/svg">
<path d="M32 10.2126H53.7872V11.4942H32V10.2126Z" fill="#5C3D42"/>
<path d="M32 16.6208H53.7872V17.9025H32V16.6208Z" fill="#5C3D42"/>
<path d="M32 23.0288H53.7872V24.3104H32V23.0288Z" fill="#5C3D42"/>
<path d="M10.2128 29.4368H53.7872V30.7184H10.2128V29.4368Z" fill="#5C3D42"/>
<path d="M10.2128 35.8447H53.7872V37.1263H10.2128V35.8447Z" fill="#5C3D42"/>
<path d="M10.2128 42.2529H53.7872V43.5345H10.2128V42.2529Z" fill="#5C3D42"/>
<path d="M10.2128 48.6609H53.7872V49.9425H10.2128V48.6609Z" fill="#5C3D42"/>
<path d="M25.6484 23.9323L20.4656 12.4152L15.2828 23.9323L14.114 23.4069L19.8812 10.5908C19.9319 10.4782 20.014 10.3827 20.1177 10.3156C20.2213 10.2486 20.3422 10.2129 20.4656 10.2129C20.5891 10.2129 20.71 10.2486 20.8136 10.3156C20.9173 10.3827 20.9994 10.4782 21.0501 10.5908L26.8173 23.4069L25.6484 23.9323Z" fill="#5C3D42"/>
<path d="M17.2616 17.9023H23.5895V19.1839H17.2616V17.9023Z" fill="#5C3D42"/>
<path d="M55.7989 0H8.20115C3.68141 0 0 3.67467 0 8.19441V49.5423C0 54.0753 3.68141 57.7434 8.20115 57.7434H55.7989C60.3186 57.7434 64 54.0753 64 49.5423V8.19441C63.9933 3.67467 60.3186 0 55.7989 0ZM60.2515 49.5355C60.2515 51.9965 58.2465 53.9882 55.7989 53.9882H8.20115C5.74013 53.9882 3.74852 51.9965 3.74852 49.5355V8.19441C3.74852 5.74679 5.74013 3.74852 8.20115 3.74852H55.7989C58.2464 3.74852 60.2515 5.74013 60.2515 8.19441V49.5355Z" fill="#5C3D42"/>
</svg>
