<svg width="64" height="58" viewBox="0 0 64 58" fill="none" xmlns="http://www.w3.org/2000/svg">
<path d="M51.3469 18.9046H22.6031C22.0166 18.9046 21.4543 18.6716 21.0396 18.2569C20.6249 17.8423 20.392 17.2799 20.392 16.6935C20.392 16.1071 20.6249 15.5447 21.0396 15.13C21.4543 14.7154 22.0166 14.4824 22.6031 14.4824H51.3469C51.9333 14.4824 52.4957 14.7154 52.9104 15.13C53.325 15.5447 53.558 16.1071 53.558 16.6935C53.558 17.2799 53.325 17.8423 52.9104 18.2569C52.4957 18.6716 51.9333 18.9046 51.3469 18.9046Z" fill="#7FBDE7"/>
<path d="M13.759 20.0102C15.5907 20.0102 17.0756 18.5253 17.0756 16.6936C17.0756 14.8618 15.5907 13.377 13.759 13.377C11.9273 13.377 10.4424 14.8618 10.4424 16.6936C10.4424 18.5253 11.9273 20.0102 13.759 20.0102Z" fill="#7FBDE7"/>
<path d="M51.3469 31.2644H22.6031C22.0166 31.2644 21.4543 31.0315 21.0396 30.6168C20.6249 30.2022 20.392 29.6398 20.392 29.0534C20.392 28.4669 20.6249 27.9045 21.0396 27.4899C21.4543 27.0752 22.0166 26.8423 22.6031 26.8423H51.3469C51.9333 26.8423 52.4957 27.0752 52.9104 27.4899C53.325 27.9045 53.558 28.4669 53.558 29.0534C53.558 29.6398 53.325 30.2022 52.9104 30.6168C52.4957 31.0315 51.9333 31.2644 51.3469 31.2644Z" fill="#5C3D42"/>
<path d="M13.759 32.3703C15.5907 32.3703 17.0756 30.8854 17.0756 29.0537C17.0756 27.222 15.5907 25.7371 13.759 25.7371C11.9273 25.7371 10.4424 27.222 10.4424 29.0537C10.4424 30.8854 11.9273 32.3703 13.759 32.3703Z" fill="#5C3D42"/>
<path d="M51.3469 43.6243H22.6031C22.0166 43.6243 21.4543 43.3913 21.0396 42.9767C20.6249 42.562 20.392 41.9996 20.392 41.4132C20.392 40.8268 20.6249 40.2644 21.0396 39.8498C21.4543 39.4351 22.0166 39.2021 22.6031 39.2021H51.3469C51.9333 39.2021 52.4957 39.4351 52.9104 39.8498C53.325 40.2644 53.558 40.8268 53.558 41.4132C53.558 41.9996 53.325 42.562 52.9104 42.9767C52.4957 43.3913 51.9333 43.6243 51.3469 43.6243Z" fill="#5C3D42"/>
<path d="M13.759 44.7301C15.5907 44.7301 17.0756 43.2452 17.0756 41.4135C17.0756 39.5818 15.5907 38.0969 13.759 38.0969C11.9273 38.0969 10.4424 39.5818 10.4424 41.4135C10.4424 43.2452 11.9273 44.7301 13.759 44.7301Z" fill="#5C3D42"/>
<path d="M55.7989 0H8.20115C3.68141 0 0 3.63168 0 8.09853V48.9626C0 53.4426 3.68141 57.0678 8.20115 57.0678H55.7989C60.3186 57.0678 64 53.4426 64 48.9626V8.09853C63.9933 3.63168 60.3186 0 55.7989 0ZM60.2515 48.9559C60.2515 51.3882 58.2465 53.3565 55.7989 53.3565H8.20115C5.74013 53.3565 3.74852 51.3882 3.74852 48.9559V8.09853C3.74852 5.67955 5.74013 3.70466 8.20115 3.70466H55.7989C58.2464 3.70466 60.2515 5.67297 60.2515 8.09853V48.9559Z" fill="#5C3D42"/>
</svg>
