<svg width="241" height="60" viewBox="0 0 241 60" fill="none" xmlns="http://www.w3.org/2000/svg">
<rect x="73.5917" y="8.26831" width="167.028" height="47.1953" rx="23.5977" fill="#5C3D42"/>
<path d="M97.6977 29.623C98.2185 29.5417 98.6417 29.4766 98.9672 29.4277C99.309 29.3626 99.5857 29.3138 99.7973 29.2812C100.041 29.2324 100.229 29.1917 100.359 29.1592C100.489 29.1266 100.676 29.0778 100.92 29.0127C101.132 28.9476 101.409 28.8743 101.75 28.793C102.092 28.6953 102.524 28.5651 103.044 28.4023C102.914 28.5651 102.808 28.7116 102.727 28.8418C102.662 28.9557 102.597 29.0534 102.532 29.1348C102.467 29.2324 102.41 29.3219 102.361 29.4033C102.312 29.4847 102.263 29.6068 102.214 29.7695C102.182 29.8997 102.141 30.0869 102.092 30.3311C102.043 30.5589 102.003 30.86 101.97 31.2344C102.849 30.681 103.655 30.266 104.387 29.9893C105.136 29.7126 105.787 29.5173 106.34 29.4033C106.991 29.2731 107.577 29.2243 108.098 29.2568C108.749 29.3057 109.351 29.4521 109.905 29.6963C110.474 29.9242 110.987 30.2008 111.443 30.5264C111.899 30.8519 112.297 31.21 112.639 31.6006C112.981 31.9912 113.249 32.3818 113.445 32.7725C113.575 33.0329 113.656 33.4072 113.689 33.8955C113.738 34.3838 113.689 34.9046 113.542 35.458C113.396 36.0114 113.135 36.5566 112.761 37.0938C112.403 37.6146 111.89 38.0296 111.223 38.3389C110.067 38.8597 108.92 39.1527 107.781 39.2178C107.292 39.2503 106.788 39.234 106.267 39.1689C105.762 39.1038 105.25 38.9655 104.729 38.7539C104.224 38.5423 103.736 38.2412 103.264 37.8506C102.792 37.4437 102.361 36.9229 101.97 36.2881C101.84 37.1182 101.742 37.8424 101.677 38.4609C101.628 39.0632 101.596 39.5677 101.579 39.9746C101.563 40.4466 101.563 40.8454 101.579 41.1709C101.612 41.4964 101.677 41.8464 101.775 42.2207C101.856 42.5462 101.97 42.9206 102.117 43.3438C102.279 43.7832 102.483 44.2389 102.727 44.7109C102.629 44.6784 102.491 44.654 102.312 44.6377C102.149 44.6377 101.978 44.654 101.799 44.6865C101.604 44.7191 101.384 44.7516 101.14 44.7842C100.912 44.833 100.66 44.89 100.383 44.9551C100.155 45.0039 99.8868 45.0609 99.5775 45.126C99.2846 45.2074 98.9835 45.2969 98.6742 45.3945C98.8533 45.1829 98.9916 44.9388 99.0893 44.6621C99.2032 44.4017 99.2927 44.1576 99.3578 43.9297C99.4229 43.653 99.4799 43.3763 99.5287 43.0996C99.545 42.8555 99.5694 42.3916 99.602 41.708C99.6508 41.0407 99.6915 40.2676 99.724 39.3887C99.7566 38.4935 99.781 37.5576 99.7973 36.5811C99.8298 35.6045 99.8461 34.7012 99.8461 33.8711C99.8624 33.0247 99.8624 32.3086 99.8461 31.7227C99.8298 31.1367 99.7973 30.7949 99.7484 30.6973C99.6833 30.5833 99.5613 30.4613 99.3822 30.3311C99.2357 30.2171 99.0242 30.1032 98.7475 29.9893C98.487 29.8753 98.1371 29.7533 97.6977 29.623ZM103.508 34.0664C103.394 34.4408 103.37 34.807 103.435 35.165C103.5 35.5231 103.663 35.8568 103.923 36.166C104.2 36.4753 104.582 36.752 105.071 36.9961C105.575 37.224 106.202 37.3949 106.951 37.5088C107.699 37.6227 108.269 37.6064 108.66 37.46C109.05 37.3135 109.335 37.0856 109.514 36.7764C109.709 36.4508 109.84 36.0765 109.905 35.6533C109.97 35.2139 110.051 34.7581 110.149 34.2861C110.246 33.8304 110.23 33.3665 110.1 32.8945C109.97 32.4062 109.783 31.9668 109.538 31.5762C109.311 31.1855 109.05 30.8682 108.757 30.624C108.481 30.3636 108.236 30.2334 108.025 30.2334C107.52 30.2334 107.024 30.3636 106.536 30.624C106.047 30.8844 105.6 31.21 105.193 31.6006C104.786 31.9912 104.428 32.4144 104.119 32.8701C103.826 33.3096 103.622 33.7083 103.508 34.0664ZM121.383 30.0625C121.806 30.0625 122.245 30.1439 122.701 30.3066C123.157 30.4531 123.596 30.6484 124.02 30.8926C124.443 31.1204 124.825 31.3727 125.167 31.6494C125.525 31.9098 125.818 32.1621 126.046 32.4062C126.453 32.8457 126.729 33.4398 126.876 34.1885C127.039 34.9209 127.071 35.6777 126.974 36.459C126.876 37.224 126.648 37.9482 126.29 38.6318C125.932 39.3154 125.436 39.82 124.801 40.1455C124.345 40.3734 123.897 40.5524 123.458 40.6826C123.019 40.8128 122.595 40.9105 122.188 40.9756C121.782 41.0407 121.399 41.0732 121.041 41.0732C120.683 41.0732 120.374 41.0651 120.113 41.0488C119.625 41.0163 119.112 40.8454 118.575 40.5361C118.054 40.2269 117.558 39.8444 117.086 39.3887C116.63 38.9329 116.24 38.4365 115.914 37.8994C115.589 37.346 115.393 36.8252 115.328 36.3369C115.23 35.6696 115.214 34.9697 115.279 34.2373C115.344 33.5049 115.58 32.8294 115.987 32.2109C116.41 31.5924 117.045 31.0798 117.892 30.6729C118.754 30.266 119.918 30.0625 121.383 30.0625ZM120.577 39.5352C120.756 39.5677 121 39.527 121.31 39.4131C121.619 39.2829 121.92 39.0794 122.213 38.8027C122.522 38.526 122.791 38.1761 123.019 37.7529C123.263 37.3135 123.409 36.7845 123.458 36.166C123.507 35.5638 123.507 35.0104 123.458 34.5059C123.425 34.0013 123.352 33.5618 123.238 33.1875C123.124 32.7969 122.994 32.4795 122.848 32.2354C122.701 31.9912 122.547 31.8203 122.384 31.7227C122.107 31.5762 121.773 31.4622 121.383 31.3809C120.992 31.2832 120.659 31.2995 120.382 31.4297C120.252 31.4948 120.089 31.6331 119.894 31.8447C119.698 32.0563 119.503 32.3249 119.308 32.6504C119.112 32.9596 118.933 33.3177 118.771 33.7246C118.624 34.1315 118.518 34.5547 118.453 34.9941C118.388 35.4336 118.372 35.9056 118.404 36.4102C118.453 36.9147 118.559 37.3949 118.722 37.8506C118.884 38.29 119.112 38.6725 119.405 38.998C119.715 39.3073 120.105 39.4863 120.577 39.5352ZM128.173 29.4277C128.548 29.3952 128.865 29.3626 129.126 29.3301C129.402 29.2975 129.63 29.265 129.809 29.2324C130.021 29.1999 130.2 29.1673 130.346 29.1348C130.493 29.1185 130.656 29.0859 130.835 29.0371C130.997 29.0046 131.176 28.9639 131.372 28.915C131.583 28.8499 131.811 28.7767 132.055 28.6953L131.909 31.7959C132.267 31.2262 132.682 30.7949 133.154 30.502C133.626 30.1927 134.074 29.9648 134.497 29.8184C135.001 29.6393 135.506 29.5335 136.01 29.501C136.531 29.5173 137.011 29.5986 137.451 29.7451C137.825 29.8753 138.199 30.0788 138.574 30.3555C138.964 30.6322 139.266 31.0391 139.477 31.5762C140.031 31.0065 140.576 30.5671 141.113 30.2578C141.666 29.9323 142.155 29.6882 142.578 29.5254C143.082 29.3464 143.554 29.2406 143.994 29.208C144.58 29.1917 145.117 29.2894 145.605 29.501C146.11 29.7126 146.549 29.9811 146.923 30.3066C147.298 30.6159 147.599 30.9495 147.827 31.3076C148.055 31.6494 148.185 31.9505 148.217 32.2109C148.266 32.569 148.242 33.0329 148.144 33.6025C148.046 34.1559 147.933 34.7256 147.802 35.3115C147.672 35.8812 147.55 36.4102 147.436 36.8984C147.338 37.3704 147.298 37.7041 147.314 37.8994C147.363 38.0622 147.477 38.2575 147.656 38.4854C147.819 38.6807 148.055 38.9248 148.364 39.2178C148.689 39.4945 149.153 39.82 149.755 40.1943C149.235 40.1781 148.771 40.1618 148.364 40.1455C147.973 40.1292 147.64 40.1048 147.363 40.0723C147.037 40.0397 146.753 40.0153 146.508 39.999C146.313 39.999 146.077 39.9827 145.8 39.9502C145.573 39.9339 145.271 39.9095 144.897 39.877C144.539 39.8444 144.124 39.8118 143.652 39.7793C143.831 39.7305 143.977 39.641 144.091 39.5107C144.205 39.3643 144.303 39.2259 144.384 39.0957C144.466 38.9329 144.531 38.7539 144.58 38.5586C144.612 38.3958 144.645 38.1354 144.677 37.7773C144.71 37.4193 144.734 37.0124 144.751 36.5566C144.783 36.1009 144.799 35.6208 144.799 35.1162C144.816 34.6117 144.816 34.1315 144.799 33.6758C144.783 33.2201 144.751 32.805 144.702 32.4307C144.653 32.0563 144.588 31.7715 144.506 31.5762C144.441 31.4297 144.327 31.3158 144.165 31.2344C144.002 31.1367 143.815 31.0798 143.603 31.0635C143.392 31.0309 143.18 31.0391 142.968 31.0879C142.757 31.1204 142.57 31.1855 142.407 31.2832C142.26 31.3971 142.065 31.5518 141.821 31.7471C141.609 31.9261 141.333 32.1702 140.991 32.4795C140.649 32.7887 140.218 33.1794 139.697 33.6514C139.648 34.6768 139.607 35.5068 139.575 36.1416C139.559 36.7601 139.542 37.2321 139.526 37.5576C139.51 37.9482 139.502 38.2168 139.502 38.3633C139.485 38.4935 139.493 38.6156 139.526 38.7295C139.559 38.9736 139.656 39.2015 139.819 39.4131C139.624 39.3643 139.412 39.3317 139.184 39.3154C138.973 39.2992 138.777 39.2829 138.598 39.2666C138.387 39.2503 138.175 39.2422 137.963 39.2422C137.784 39.2422 137.589 39.2503 137.378 39.2666C137.199 39.2829 136.979 39.3073 136.718 39.3398C136.458 39.3561 136.173 39.3805 135.864 39.4131C135.994 39.3317 136.1 39.234 136.181 39.1201C136.263 39.0062 136.328 38.9004 136.377 38.8027C136.442 38.6888 136.49 38.583 136.523 38.4854C136.539 38.3877 136.572 38.1517 136.621 37.7773C136.67 37.3867 136.702 36.931 136.718 36.4102C136.735 35.8893 136.735 35.3441 136.718 34.7744C136.702 34.1885 136.645 33.6595 136.547 33.1875C136.45 32.6992 136.295 32.3005 136.084 31.9912C135.888 31.682 135.628 31.5436 135.302 31.5762C134.912 31.6087 134.513 31.7064 134.106 31.8691C133.764 31.9993 133.398 32.1947 133.007 32.4551C132.617 32.7155 132.251 33.0654 131.909 33.5049C131.844 34.7256 131.803 35.694 131.787 36.4102C131.787 37.1263 131.795 37.6715 131.811 38.0459C131.827 38.4854 131.844 38.7865 131.86 38.9492C131.876 39.0632 131.917 39.1771 131.982 39.291C132.031 39.3887 132.088 39.5026 132.153 39.6328C132.234 39.763 132.324 39.8851 132.421 39.999L128.54 39.8037C128.67 39.7386 128.784 39.6572 128.881 39.5596C128.979 39.4456 129.06 39.3317 129.126 39.2178C129.191 39.0876 129.256 38.9574 129.321 38.8271C129.37 38.7132 129.41 38.4447 129.443 38.0215C129.492 37.5983 129.532 37.1019 129.565 36.5322C129.598 35.9463 129.622 35.3359 129.638 34.7012C129.671 34.0501 129.687 33.4479 129.687 32.8945C129.703 32.3249 129.712 31.8447 129.712 31.4541C129.712 31.0472 129.703 30.8031 129.687 30.7217C129.638 30.5589 129.549 30.388 129.419 30.209C129.305 30.0788 129.15 29.9404 128.955 29.7939C128.759 29.6312 128.499 29.5091 128.173 29.4277ZM156.571 30.0625C156.994 30.0625 157.433 30.1439 157.889 30.3066C158.345 30.4531 158.784 30.6484 159.207 30.8926C159.63 31.1204 160.013 31.3727 160.355 31.6494C160.713 31.9098 161.006 32.1621 161.234 32.4062C161.64 32.8457 161.917 33.4398 162.064 34.1885C162.226 34.9209 162.259 35.6777 162.161 36.459C162.064 37.224 161.836 37.9482 161.478 38.6318C161.12 39.3154 160.623 39.82 159.988 40.1455C159.533 40.3734 159.085 40.5524 158.646 40.6826C158.206 40.8128 157.783 40.9105 157.376 40.9756C156.969 41.0407 156.587 41.0732 156.229 41.0732C155.871 41.0732 155.561 41.0651 155.301 41.0488C154.813 41.0163 154.3 40.8454 153.763 40.5361C153.242 40.2269 152.746 39.8444 152.274 39.3887C151.818 38.9329 151.427 38.4365 151.102 37.8994C150.776 37.346 150.581 36.8252 150.516 36.3369C150.418 35.6696 150.402 34.9697 150.467 34.2373C150.532 33.5049 150.768 32.8294 151.175 32.2109C151.598 31.5924 152.233 31.0798 153.079 30.6729C153.942 30.266 155.106 30.0625 156.571 30.0625ZM155.765 39.5352C155.944 39.5677 156.188 39.527 156.497 39.4131C156.807 39.2829 157.108 39.0794 157.401 38.8027C157.71 38.526 157.978 38.1761 158.206 37.7529C158.45 37.3135 158.597 36.7845 158.646 36.166C158.695 35.5638 158.695 35.0104 158.646 34.5059C158.613 34.0013 158.54 33.5618 158.426 33.1875C158.312 32.7969 158.182 32.4795 158.035 32.2354C157.889 31.9912 157.734 31.8203 157.571 31.7227C157.295 31.5762 156.961 31.4622 156.571 31.3809C156.18 31.2832 155.846 31.2995 155.57 31.4297C155.439 31.4948 155.277 31.6331 155.081 31.8447C154.886 32.0563 154.691 32.3249 154.495 32.6504C154.3 32.9596 154.121 33.3177 153.958 33.7246C153.812 34.1315 153.706 34.5547 153.641 34.9941C153.576 35.4336 153.559 35.9056 153.592 36.4102C153.641 36.9147 153.747 37.3949 153.909 37.8506C154.072 38.29 154.3 38.6725 154.593 38.998C154.902 39.3073 155.293 39.4863 155.765 39.5352ZM175.471 22.2988C175.78 22.3151 176.113 22.3232 176.471 22.3232C176.781 22.3232 177.131 22.3314 177.521 22.3477C177.928 22.3477 178.351 22.3314 178.791 22.2988C178.4 22.4779 178.058 22.7383 177.765 23.0801C177.472 23.4219 177.236 23.7637 177.057 24.1055C176.83 24.5124 176.642 24.9355 176.496 25.375C176.415 25.6354 176.349 26.0993 176.301 26.7666C176.252 27.4176 176.211 28.1826 176.179 29.0615C176.162 29.9404 176.154 30.8682 176.154 31.8447C176.154 32.8213 176.162 33.7572 176.179 34.6523C176.195 35.5312 176.219 36.3125 176.252 36.9961C176.284 37.6797 176.325 38.1598 176.374 38.4365C176.439 38.762 176.52 39.0713 176.618 39.3643C176.699 39.6247 176.805 39.8932 176.935 40.1699C177.066 40.4303 177.228 40.6419 177.424 40.8047L174.933 41.9277C174.803 41.7487 174.697 41.5615 174.616 41.3662C174.535 41.1872 174.47 41.0244 174.421 40.8779C174.356 40.6989 174.315 40.5361 174.299 40.3896C174.266 40.1943 174.234 39.9827 174.201 39.7549C174.168 39.5107 174.128 39.2829 174.079 39.0713C174.046 38.8434 174.022 38.6562 174.006 38.5098C173.989 38.3633 173.989 38.2738 174.006 38.2412C174.022 38.2087 173.924 38.3551 173.713 38.6807C173.501 38.9899 173.184 39.3561 172.761 39.7793C172.354 40.1862 171.849 40.585 171.247 40.9756C170.645 41.3499 169.969 41.5859 169.221 41.6836C168.456 41.7812 167.748 41.6348 167.096 41.2441C166.462 40.8535 165.916 40.3083 165.461 39.6084C165.005 38.8923 164.655 38.0703 164.411 37.1426C164.183 36.1986 164.094 35.2383 164.142 34.2617C164.175 33.6107 164.321 33.0329 164.582 32.5283C164.842 32.0075 165.168 31.5599 165.558 31.1855C165.965 30.7949 166.405 30.4694 166.877 30.209C167.365 29.9323 167.837 29.7044 168.293 29.5254C168.765 29.3464 169.204 29.2161 169.611 29.1348C170.018 29.0534 170.344 28.9964 170.588 28.9639C170.881 28.9476 171.214 28.9964 171.589 29.1104C171.914 29.208 172.289 29.3708 172.712 29.5986C173.151 29.8265 173.639 30.1683 174.177 30.624C174.079 28.9964 173.989 27.6943 173.908 26.7178C173.827 25.7249 173.745 24.9681 173.664 24.4473C173.582 23.8288 173.509 23.4056 173.444 23.1777C173.363 23.015 173.257 22.8522 173.127 22.6895C173.013 22.5592 172.866 22.429 172.687 22.2988C172.525 22.1523 172.329 22.0384 172.101 21.957C172.525 22.0384 172.931 22.0954 173.322 22.1279C173.713 22.1605 174.071 22.193 174.396 22.2256C174.771 22.2581 175.129 22.2826 175.471 22.2988ZM169.343 31.4053C169.033 31.5192 168.781 31.7145 168.586 31.9912C168.407 32.2679 168.26 32.6016 168.146 32.9922C168.032 33.3665 167.951 33.7734 167.902 34.2129C167.87 34.6361 167.845 35.0511 167.829 35.458C167.829 35.8486 167.829 36.2067 167.829 36.5322C167.829 36.8577 167.829 37.1019 167.829 37.2646C167.829 37.3623 167.845 37.5413 167.878 37.8018C167.927 38.0459 168.024 38.3063 168.171 38.583C168.317 38.8434 168.521 39.0794 168.781 39.291C169.058 39.5026 169.424 39.6084 169.88 39.6084C170.254 39.5758 170.653 39.4456 171.076 39.2178C171.45 39.0225 171.873 38.7132 172.346 38.29C172.834 37.8506 173.355 37.224 173.908 36.4102C173.875 35.8893 173.851 35.458 173.835 35.1162C173.835 34.7744 173.827 34.4977 173.81 34.2861C173.794 34.042 173.786 33.8467 173.786 33.7002V33.334C173.786 33.2363 173.786 33.1305 173.786 33.0166C173.786 32.9027 173.794 32.7969 173.81 32.6992C173.355 32.3737 172.948 32.097 172.59 31.8691C172.248 31.625 171.906 31.446 171.564 31.332C171.239 31.2018 170.897 31.1449 170.539 31.1611C170.197 31.1611 169.798 31.2425 169.343 31.4053ZM184.971 30.0625C185.394 30.0625 185.834 30.1439 186.289 30.3066C186.745 30.4531 187.185 30.6484 187.608 30.8926C188.031 31.1204 188.413 31.3727 188.755 31.6494C189.113 31.9098 189.406 32.1621 189.634 32.4062C190.041 32.8457 190.318 33.4398 190.464 34.1885C190.627 34.9209 190.66 35.6777 190.562 36.459C190.464 37.224 190.236 37.9482 189.878 38.6318C189.52 39.3154 189.024 39.82 188.389 40.1455C187.933 40.3734 187.486 40.5524 187.046 40.6826C186.607 40.8128 186.184 40.9105 185.777 40.9756C185.37 41.0407 184.987 41.0732 184.629 41.0732C184.271 41.0732 183.962 41.0651 183.702 41.0488C183.213 41.0163 182.701 40.8454 182.163 40.5361C181.643 40.2269 181.146 39.8444 180.674 39.3887C180.218 38.9329 179.828 38.4365 179.502 37.8994C179.177 37.346 178.982 36.8252 178.916 36.3369C178.819 35.6696 178.802 34.9697 178.868 34.2373C178.933 33.5049 179.169 32.8294 179.576 32.2109C179.999 31.5924 180.634 31.0798 181.48 30.6729C182.343 30.266 183.506 30.0625 184.971 30.0625ZM184.165 39.5352C184.344 39.5677 184.589 39.527 184.898 39.4131C185.207 39.2829 185.508 39.0794 185.801 38.8027C186.11 38.526 186.379 38.1761 186.607 37.7529C186.851 37.3135 186.997 36.7845 187.046 36.166C187.095 35.5638 187.095 35.0104 187.046 34.5059C187.014 34.0013 186.94 33.5618 186.827 33.1875C186.713 32.7969 186.582 32.4795 186.436 32.2354C186.289 31.9912 186.135 31.8203 185.972 31.7227C185.695 31.5762 185.362 31.4622 184.971 31.3809C184.58 31.2832 184.247 31.2995 183.97 31.4297C183.84 31.4948 183.677 31.6331 183.482 31.8447C183.287 32.0563 183.091 32.3249 182.896 32.6504C182.701 32.9596 182.522 33.3177 182.359 33.7246C182.212 34.1315 182.107 34.5547 182.041 34.9941C181.976 35.4336 181.96 35.9056 181.993 36.4102C182.041 36.9147 182.147 37.3949 182.31 37.8506C182.473 38.29 182.701 38.6725 182.994 38.998C183.303 39.3073 183.693 39.4863 184.165 39.5352ZM191.64 29.3057C191.949 29.3219 192.226 29.3301 192.47 29.3301C192.73 29.3138 192.95 29.2975 193.129 29.2812C193.34 29.265 193.528 29.2487 193.69 29.2324C193.935 29.1999 194.187 29.1592 194.447 29.1104C194.675 29.0778 194.911 29.0371 195.155 28.9883C195.416 28.9232 195.668 28.8499 195.912 28.7686C195.814 29.0127 195.733 29.2243 195.668 29.4033C195.603 29.5824 195.554 29.737 195.521 29.8672C195.473 30.0137 195.448 30.1357 195.448 30.2334C195.432 30.3473 195.424 30.4857 195.424 30.6484C195.408 30.9251 195.408 31.3727 195.424 31.9912C196.27 31.2588 196.978 30.6891 197.548 30.2822C198.134 29.8753 198.598 29.5579 198.939 29.3301C199.346 29.0697 199.664 28.8988 199.892 28.8174C200.494 28.7197 201.023 28.8581 201.479 29.2324C201.674 29.3952 201.861 29.6149 202.04 29.8916C202.219 30.152 202.374 30.502 202.504 30.9414C202.634 31.3809 202.732 31.9098 202.797 32.5283C202.862 33.1305 202.87 33.8548 202.821 34.7012C202.479 34.7337 202.17 34.7663 201.894 34.7988C201.633 34.8314 201.413 34.8558 201.234 34.8721C201.023 34.9046 200.827 34.9209 200.648 34.9209L199.989 34.9941C199.761 35.0267 199.477 35.0592 199.135 35.0918C198.809 35.1081 198.41 35.1406 197.938 35.1895C198.622 34.6361 199.062 34.1559 199.257 33.749C199.468 33.3258 199.558 32.9759 199.525 32.6992C199.493 32.39 199.346 32.1214 199.086 31.8936C198.777 31.7145 198.443 31.6494 198.085 31.6982C197.776 31.7308 197.418 31.8691 197.011 32.1133C196.604 32.3574 196.173 32.8132 195.717 33.4805C195.749 34.5221 195.782 35.3848 195.814 36.0684C195.863 36.752 195.904 37.3053 195.937 37.7285C195.985 38.2168 196.026 38.5993 196.059 38.876C196.107 39.1201 196.205 39.3805 196.352 39.6572C196.465 39.8851 196.628 40.1374 196.84 40.4141C197.051 40.6908 197.328 40.9674 197.67 41.2441C196.954 41.2116 196.368 41.2116 195.912 41.2441C195.635 41.2604 195.391 41.2767 195.18 41.293C194.952 41.3255 194.708 41.3581 194.447 41.3906C194.219 41.4232 193.951 41.4557 193.642 41.4883C193.349 41.5371 193.023 41.5859 192.665 41.6348C192.795 41.4557 192.901 41.2441 192.982 41C193.064 40.7721 193.129 40.5524 193.178 40.3408C193.243 40.0967 193.292 39.8444 193.324 39.584C193.34 39.3561 193.349 39.0143 193.349 38.5586C193.365 38.1029 193.357 37.5902 193.324 37.0205C193.308 36.4346 193.284 35.8324 193.251 35.2139C193.218 34.5791 193.178 33.985 193.129 33.4316C193.08 32.8783 193.023 32.3981 192.958 31.9912C192.909 31.568 192.852 31.2751 192.787 31.1123C192.706 30.917 192.608 30.7217 192.494 30.5264C192.396 30.3473 192.274 30.1602 192.128 29.9648C191.981 29.7533 191.819 29.5335 191.64 29.3057ZM210.54 30.0625C210.963 30.0625 211.402 30.1439 211.858 30.3066C212.314 30.4531 212.753 30.6484 213.176 30.8926C213.6 31.1204 213.982 31.3727 214.324 31.6494C214.682 31.9098 214.975 32.1621 215.203 32.4062C215.61 32.8457 215.886 33.4398 216.033 34.1885C216.196 34.9209 216.228 35.6777 216.13 36.459C216.033 37.224 215.805 37.9482 215.447 38.6318C215.089 39.3154 214.592 39.82 213.958 40.1455C213.502 40.3734 213.054 40.5524 212.615 40.6826C212.175 40.8128 211.752 40.9105 211.345 40.9756C210.938 41.0407 210.556 41.0732 210.198 41.0732C209.84 41.0732 209.531 41.0651 209.27 41.0488C208.782 41.0163 208.269 40.8454 207.732 40.5361C207.211 40.2269 206.715 39.8444 206.243 39.3887C205.787 38.9329 205.396 38.4365 205.071 37.8994C204.745 37.346 204.55 36.8252 204.485 36.3369C204.387 35.6696 204.371 34.9697 204.436 34.2373C204.501 33.5049 204.737 32.8294 205.144 32.2109C205.567 31.5924 206.202 31.0798 207.048 30.6729C207.911 30.266 209.075 30.0625 210.54 30.0625ZM209.734 39.5352C209.913 39.5677 210.157 39.527 210.466 39.4131C210.776 39.2829 211.077 39.0794 211.37 38.8027C211.679 38.526 211.948 38.1761 212.175 37.7529C212.42 37.3135 212.566 36.7845 212.615 36.166C212.664 35.5638 212.664 35.0104 212.615 34.5059C212.582 34.0013 212.509 33.5618 212.395 33.1875C212.281 32.7969 212.151 32.4795 212.004 32.2354C211.858 31.9912 211.703 31.8203 211.541 31.7227C211.264 31.5762 210.93 31.4622 210.54 31.3809C210.149 31.2832 209.815 31.2995 209.539 31.4297C209.408 31.4948 209.246 31.6331 209.05 31.8447C208.855 32.0563 208.66 32.3249 208.464 32.6504C208.269 32.9596 208.09 33.3177 207.927 33.7246C207.781 34.1315 207.675 34.5547 207.61 34.9941C207.545 35.4336 207.529 35.9056 207.561 36.4102C207.61 36.9147 207.716 37.3949 207.879 37.8506C208.041 38.29 208.269 38.6725 208.562 38.998C208.871 39.3073 209.262 39.4863 209.734 39.5352Z" fill="#C77C89"/>
<path fill-rule="evenodd" clip-rule="evenodd" d="M17.786 9.62657L10.1705 15.9769C9.12868 16.8452 7.56589 16.7211 6.69767 15.6545C5.80465 14.6126 5.95348 13.0498 6.99534 12.1568L14.6356 5.80641C15.6775 4.9382 17.2403 5.06223 18.1085 6.12889C19.0015 7.17075 18.8527 8.73354 17.786 9.62657ZM52.5395 12.1568L44.8992 5.80641C43.8573 4.9382 42.2945 5.06223 41.4015 6.12889C40.5333 7.17075 40.6821 8.73354 41.724 9.62657L49.3395 15.9769C50.3814 16.8452 51.9442 16.7211 52.8372 15.6545C53.7302 14.6126 53.5814 13.0498 52.5395 12.1568ZM39.3674 37.5583L31.0077 32.5971V21.3599C31.0077 20.3676 30.2139 19.5738 29.2217 19.5738H29.0728C28.0806 19.5738 27.2868 20.3676 27.2868 21.3599V33.0684C27.2868 33.9366 27.7333 34.7552 28.5023 35.2017L37.5566 40.6343C38.4 41.1304 39.4914 40.8824 39.9876 40.039C40.5085 39.1707 40.2356 38.0545 39.3674 37.5583ZM29.7674 9.65137C17.4387 9.65137 7.44185 19.6483 7.44185 31.9769C7.44185 44.3056 17.4387 54.3025 29.7674 54.3025C42.0961 54.3025 52.093 44.3056 52.093 31.9769C52.093 19.6483 42.0961 9.65137 29.7674 9.65137ZM12.4031 31.9769C12.4031 41.5521 20.1922 49.3413 29.7674 49.3413C39.3426 49.3413 47.1318 41.5521 47.1318 31.9769C47.1318 22.4018 39.3426 14.6126 29.7674 14.6126C20.1922 14.6126 12.4031 22.4018 12.4031 31.9769Z" fill="#374267"/>
</svg>
