<svg width="283" height="61" viewBox="0 0 283 61" fill="none" xmlns="http://www.w3.org/2000/svg">
<g clip-path="url(#clip0_250_57)">
<path d="M55.9879 25.5484L53.3564 22.917L51.458 24.8163C50.5953 24.2637 49.6409 23.8697 48.6396 23.6527V20.9636H44.919V23.6527C43.9177 23.8697 42.9633 24.2637 42.1006 24.8163L40.2022 22.917L37.5708 25.5484L39.4692 27.4468C38.9169 28.3096 38.5232 29.264 38.3065 30.2652H35.6174V33.9858H38.3065C38.5235 34.9871 38.9175 35.9415 39.4701 36.8042L37.5708 38.7026L40.2022 41.334L42.1006 39.4356C42.9634 39.9879 43.9178 40.3816 44.919 40.5983V43.2874H48.6396V40.5983C49.6409 40.3813 50.5953 39.9873 51.458 39.4347L53.3564 41.334L55.9879 38.7026L54.0885 36.8042C54.6411 35.9415 55.0351 34.9871 55.2521 33.9858H57.9412V30.2652H55.2521C55.0351 29.2639 54.6411 28.3095 54.0885 27.4468L55.9879 25.5484ZM46.7793 35.8461C46.0434 35.8461 45.3241 35.6279 44.7122 35.2191C44.1004 34.8103 43.6235 34.2292 43.3419 33.5493C43.0603 32.8695 42.9866 32.1214 43.1302 31.3996C43.2737 30.6779 43.6281 30.015 44.1484 29.4946C44.6688 28.9743 45.3317 28.6199 46.0534 28.4764C46.7752 28.3328 47.5233 28.4065 48.2031 28.6881C48.883 28.9697 49.4641 29.4466 49.8729 30.0584C50.2817 30.6703 50.4999 31.3896 50.4999 32.1255C50.4999 33.1123 50.1079 34.0586 49.4102 34.7564C48.7124 35.4541 47.7661 35.8461 46.7793 35.8461Z" fill="#B4B4B4"/>
<path d="M52.3602 32.1254C52.3602 31.0216 52.0329 29.9426 51.4197 29.0248C50.8064 28.107 49.9348 27.3917 48.915 26.9693C47.8953 26.5469 46.7731 26.4363 45.6905 26.6517C44.6079 26.867 43.6135 27.3985 42.833 28.1791C42.0525 28.9596 41.5209 29.954 41.3056 31.0366C41.0903 32.1192 41.2008 33.2413 41.6232 34.2611C42.0456 35.2809 42.7609 36.1525 43.6787 36.7658C44.5965 37.379 45.6755 37.7063 46.7793 37.7063C48.2595 37.7063 49.679 37.1183 50.7256 36.0717C51.7723 35.0251 52.3602 33.6055 52.3602 32.1254ZM46.7793 34.9158C46.2274 34.9158 45.6879 34.7522 45.229 34.4456C44.7701 34.1389 44.4125 33.7031 44.2012 33.1932C43.99 32.6833 43.9348 32.1223 44.0425 31.581C44.1501 31.0397 44.4159 30.5425 44.8061 30.1522C45.1964 29.762 45.6936 29.4962 46.2349 29.3885C46.7762 29.2809 47.3373 29.3361 47.8472 29.5473C48.3571 29.7585 48.7929 30.1162 49.0995 30.5751C49.4061 31.034 49.5698 31.5735 49.5698 32.1254C49.5698 32.8655 49.2758 33.5752 48.7525 34.0985C48.2291 34.6218 47.5194 34.9158 46.7793 34.9158Z" fill="#F0F0F0"/>
<path d="M35.6174 20.9635V15.3825H31.5842C31.2583 13.8807 30.6671 12.4491 29.8383 11.155L32.6865 8.30682L28.7408 4.3611L25.8926 7.20924C24.5985 6.38051 23.1669 5.78928 21.6651 5.46333V1.43018H16.0841V5.46333C14.5823 5.78928 13.1507 6.38051 11.8566 7.20924L9.00842 4.3611L5.0627 8.30682L7.91084 11.155C7.08211 12.4491 6.49088 13.8807 6.16493 15.3825H2.13177V20.9635H6.16493C6.49088 22.4653 7.08211 23.8969 7.91084 25.191L5.0627 28.0392L9.00842 31.9849L11.8566 29.1367C13.1507 29.9655 14.5823 30.5567 16.0841 30.8826V34.9158H21.6651V30.8826C23.1669 30.5567 24.5985 29.9655 25.8926 29.1367L28.7408 31.9849L32.6865 28.0392L29.8383 25.191C30.6671 23.8969 31.2583 22.4653 31.5842 20.9635H35.6174ZM18.8746 22.8238C17.9548 22.8238 17.0556 22.551 16.2908 22.04C15.5259 21.5289 14.9298 20.8026 14.5778 19.9528C14.2258 19.1029 14.1337 18.1678 14.3132 17.2657C14.4926 16.3635 14.9356 15.5348 15.586 14.8844C16.2364 14.234 17.0651 13.791 17.9673 13.6116C18.8694 13.4321 19.8045 13.5242 20.6544 13.8762C21.5042 14.2282 22.2305 14.8243 22.7416 15.5892C23.2526 16.354 23.5254 17.2532 23.5254 18.173C23.5254 18.7837 23.4051 19.3885 23.1714 19.9528C22.9376 20.517 22.5951 21.0297 22.1632 21.4616C21.7313 21.8935 21.2186 22.236 20.6544 22.4698C20.0901 22.7035 19.4853 22.8238 18.8746 22.8238Z" fill="#F9F9F9"/>
<path d="M35.6174 20.9635V15.3826H31.5843C31.2583 13.8808 30.6671 12.4491 29.8384 11.155L32.6865 8.30685L28.7408 4.36113L25.8926 7.20927C24.5985 6.38054 23.1669 5.78931 21.6651 5.46336V2.82544H17.4794V6.58606L16.3818 6.82511C15.042 7.11623 13.7647 7.64382 12.61 8.38312L11.664 8.98866L9.00938 6.33399L7.03466 8.30778L9.69212 10.9634L9.08565 11.9093C8.34475 13.063 7.81674 14.3402 7.52671 15.6802L7.28859 16.7778H3.52704V19.5683H7.28859L7.52671 20.6658C7.81617 22.0058 8.34354 23.2829 9.08379 24.4367L9.69025 25.3827L7.03466 28.0383L9.00938 30.0121L11.664 27.3565L12.61 27.962C13.7647 28.7016 15.0419 29.2295 16.3818 29.5209L17.4794 29.7609V34.9158H21.6651V30.8827C23.1669 30.5567 24.5985 29.9655 25.8926 29.1368L28.7408 31.9849L32.6865 28.0392L29.8384 25.191C30.6671 23.8969 31.2583 22.4653 31.5843 20.9635H35.6174ZM18.8746 22.8238C17.9548 22.8238 17.0556 22.551 16.2908 22.04C15.526 21.529 14.9299 20.8026 14.5779 19.9528C14.2258 19.103 14.1337 18.1679 14.3132 17.2657C14.4927 16.3635 14.9356 15.5348 15.586 14.8844C16.2364 14.234 17.0651 13.7911 17.9673 13.6116C18.8695 13.4321 19.8046 13.5243 20.6544 13.8763C21.5042 14.2283 22.2306 14.8244 22.7416 15.5892C23.2526 16.354 23.5254 17.2532 23.5254 18.173C23.5254 18.7838 23.4051 19.3885 23.1714 19.9528C22.9377 20.5171 22.5951 21.0298 22.1632 21.4616C21.7314 21.8935 21.2187 22.2361 20.6544 22.4698C20.0901 22.7035 19.4854 22.8238 18.8746 22.8238Z" fill="#F0F0F0"/>
<path d="M26.3159 18.1732C26.3159 16.7014 25.8794 15.2628 25.0618 14.039C24.2441 12.8153 23.082 11.8616 21.7222 11.2984C20.3625 10.7352 18.8663 10.5878 17.4229 10.8749C15.9794 11.162 14.6535 11.8708 13.6128 12.9114C12.5722 13.9521 11.8635 15.278 11.5763 16.7215C11.2892 18.1649 11.4366 19.6611 11.9998 21.0208C12.563 22.3805 13.5168 23.5427 14.7405 24.3604C15.9642 25.178 17.4029 25.6144 18.8746 25.6144C20.8481 25.6144 22.7409 24.8305 24.1364 23.4349C25.5319 22.0394 26.3159 20.1467 26.3159 18.1732ZM18.8746 22.824C17.9548 22.824 17.0556 22.5512 16.2908 22.0402C15.5259 21.5291 14.9298 20.8028 14.5778 19.953C14.2258 19.1031 14.1337 18.168 14.3132 17.2659C14.4926 16.3637 14.9356 15.535 15.586 14.8846C16.2364 14.2342 17.0651 13.7912 17.9673 13.6118C18.8694 13.4323 19.8046 13.5244 20.6544 13.8764C21.5042 14.2284 22.2306 14.8245 22.7416 15.5894C23.2526 16.3542 23.5254 17.2533 23.5254 18.1732C23.5254 18.7839 23.4051 19.3887 23.1714 19.953C22.9376 20.5172 22.5951 21.0299 22.1632 21.4618C21.7313 21.8937 21.2186 22.2362 20.6544 22.4699C20.0901 22.7037 19.4854 22.824 18.8746 22.824Z" fill="#B4B4B4"/>
<path d="M53.2904 47.938H6.7826C3.70033 47.938 1.20166 50.4367 1.20166 53.5189C1.20166 56.6012 3.70033 59.0999 6.7826 59.0999H53.2904C56.3727 59.0999 58.8713 56.6012 58.8713 53.5189C58.8713 50.4367 56.3727 47.938 53.2904 47.938Z" fill="#CDF2FF"/>
<path d="M9.57304 50.7285C8.64036 50.7274 7.72231 50.9604 6.90298 51.406C6.08366 51.8517 5.38924 52.4958 4.88335 53.2793C4.37745 54.0629 4.07624 54.9608 4.00731 55.891C3.93838 56.8211 4.10393 57.7537 4.4888 58.6032C5.20931 58.9302 5.99134 59.0996 6.78257 59.0999H53.2904C54.2231 59.101 55.1411 58.8681 55.9604 58.4224C56.7798 57.9768 57.4742 57.3327 57.9801 56.5491C58.486 55.7656 58.7872 54.8676 58.8561 53.9375C58.925 53.0074 58.7595 52.0748 58.3746 51.2252C57.6541 50.8982 56.8721 50.7289 56.0809 50.7285H9.57304Z" fill="#ABE9FF"/>
<path d="M6.7826 47.938H36.0825V59.0999H6.7826C5.30244 59.0999 3.88291 58.5119 2.83628 57.4652C1.78965 56.4186 1.20166 54.9991 1.20166 53.5189C1.20166 52.0388 1.78965 50.6192 2.83628 49.5726C3.88291 48.526 5.30244 47.938 6.7826 47.938Z" fill="#2A7BA0"/>
<path d="M36.0825 59.0999V50.7285H9.57304C8.64036 50.7274 7.72231 50.9604 6.90298 51.406C6.08366 51.8517 5.38924 52.4958 4.88335 53.2793C4.37745 54.0629 4.07624 54.9608 4.00731 55.891C3.93838 56.8211 4.10393 57.7537 4.4888 58.6032C5.20931 58.9302 5.99134 59.0996 6.78257 59.0999H36.0825Z" fill="#2A7BA0"/>
<path d="M12.3635 47.938L2.83594 57.4656C3.35378 57.9844 3.969 58.3959 4.64628 58.6763C5.32355 58.9568 6.04955 59.1007 6.78259 59.0999H12.8286L23.9905 47.938H12.3635Z" fill="#64647D"/>
<path d="M6.78259 59.0999H12.8286L21.2 50.7285H9.57306L3.99213 56.3095C3.9925 57.1007 4.16184 57.8827 4.48883 58.6032C5.20934 58.9302 5.99136 59.0995 6.78259 59.0999Z" fill="#505069"/>
<path d="M35.6174 47.938L24.4556 59.0999H36.0825V47.938H35.6174Z" fill="#64647D"/>
<path d="M32.827 50.7285L24.4556 59.0999H36.0825V50.7285H32.827Z" fill="#505069"/>
<path d="M38.5939 27.5555C38.2393 28.1914 37.9606 28.8666 37.7633 29.5674H35.6174C35.4324 29.5674 35.255 29.6409 35.1241 29.7718C34.9933 29.9026 34.9198 30.08 34.9198 30.265V33.9857C34.9198 34.1707 34.9933 34.3481 35.1241 34.479C35.255 34.6098 35.4324 34.6833 35.6174 34.6833H37.7568C37.9542 35.384 38.233 36.0593 38.5874 36.6952L37.0778 38.2095C37.0129 38.2743 36.9615 38.3512 36.9264 38.4359C36.8913 38.5206 36.8733 38.6113 36.8733 38.703C36.8733 38.7946 36.8913 38.8854 36.9264 38.97C36.9615 39.0547 37.0129 39.1316 37.0778 39.1964L39.7101 41.8269C39.7749 41.8917 39.8518 41.9431 39.9365 41.9782C40.0212 42.0133 40.1119 42.0314 40.2036 42.0314C40.2952 42.0314 40.386 42.0133 40.4706 41.9782C40.5553 41.9431 40.6322 41.8917 40.697 41.8269L42.2094 40.3107C42.8454 40.6652 43.5206 40.9439 44.2214 41.1414V43.2872C44.2214 43.4723 44.2949 43.6497 44.4257 43.7805C44.5565 43.9114 44.734 43.9849 44.919 43.9849H48.6396C48.8246 43.9849 49.0021 43.9114 49.1329 43.7805C49.2637 43.6497 49.3372 43.4723 49.3372 43.2872V41.1479C50.038 40.9504 50.7132 40.6717 51.3491 40.3172L52.8634 41.8315C52.9282 41.8964 53.0052 41.9478 53.0898 41.9829C53.1745 42.018 53.2652 42.036 53.3569 42.036C53.4485 42.036 53.5393 42.018 53.624 41.9829C53.7086 41.9478 53.7856 41.8964 53.8503 41.8315L56.4808 39.1945C56.5457 39.1298 56.5971 39.0528 56.6322 38.9682C56.6673 38.8835 56.6853 38.7928 56.6853 38.7011C56.6853 38.6095 56.6673 38.5187 56.6322 38.434C56.5971 38.3494 56.5457 38.2724 56.4808 38.2077L54.9647 36.6952C55.3213 36.0596 55.6023 35.3843 55.8018 34.6833H57.9412C58.1262 34.6833 58.3036 34.6098 58.4345 34.479C58.5653 34.3481 58.6388 34.1707 58.6388 33.9857V30.265C58.6388 30.08 58.5653 29.9026 58.4345 29.7718C58.3036 29.6409 58.1262 29.5674 57.9412 29.5674H55.8018C55.6045 28.8666 55.3258 28.1914 54.9712 27.5555L56.4855 26.0412C56.5503 25.9764 56.6017 25.8995 56.6368 25.8148C56.6719 25.7302 56.69 25.6394 56.69 25.5478C56.69 25.4561 56.6719 25.3654 56.6368 25.2807C56.6017 25.196 56.5503 25.1191 56.4855 25.0543L53.8485 22.4238C53.7837 22.359 53.7068 22.3076 53.6221 22.2725C53.5374 22.2374 53.4467 22.2193 53.355 22.2193C53.2634 22.2193 53.1726 22.2374 53.088 22.2725C53.0033 22.3076 52.9264 22.359 52.8616 22.4238L51.3491 23.94C50.7135 23.585 50.0382 23.3062 49.3372 23.1094V20.9635C49.3372 20.7785 49.2637 20.601 49.1329 20.4702C49.0021 20.3394 48.8246 20.2659 48.6396 20.2659H44.919C44.734 20.2659 44.5565 20.3394 44.4257 20.4702C44.2949 20.601 44.2214 20.7785 44.2214 20.9635V23.1028C43.5204 23.2997 42.8451 23.5785 42.2094 23.9335L40.6951 22.4238C40.6304 22.359 40.5534 22.3076 40.4688 22.2725C40.3841 22.2374 40.2933 22.2193 40.2017 22.2193C40.11 22.2193 40.0193 22.2374 39.9346 22.2725C39.85 22.3076 39.773 22.359 39.7082 22.4238L37.0778 25.0562C37.0129 25.121 36.9615 25.1979 36.9264 25.2826C36.8913 25.3672 36.8733 25.458 36.8733 25.5496C36.8733 25.6413 36.8913 25.732 36.9264 25.8167C36.9615 25.9014 37.0129 25.9783 37.0778 26.0431L38.5939 27.5555ZM40.204 23.9037L41.6095 25.3092C41.7223 25.4216 41.8701 25.4921 42.0284 25.509C42.1868 25.5259 42.3461 25.4882 42.4801 25.4022C43.2725 24.894 44.1495 24.5321 45.0697 24.3334C45.2251 24.2993 45.3643 24.2131 45.4641 24.0891C45.5639 23.9652 45.6183 23.8108 45.6185 23.6516V21.6611H47.9438V23.6526C47.944 23.8117 47.9984 23.9661 48.0982 24.0901C48.198 24.2141 48.3372 24.3003 48.4926 24.3344C49.4128 24.533 50.2898 24.895 51.0822 25.4031C51.2161 25.4893 51.3755 25.5271 51.5339 25.5102C51.6923 25.4933 51.8401 25.4227 51.9528 25.3101L53.3583 23.9046L55.0028 25.5492L53.5955 26.9537C53.4831 27.0663 53.4127 27.214 53.3957 27.3722C53.3788 27.5303 53.4165 27.6895 53.5025 27.8234C54.01 28.6165 54.3722 29.4937 54.5721 30.4139C54.6061 30.5693 54.6921 30.7084 54.8159 30.8082C54.9397 30.908 55.094 30.9625 55.253 30.9627H57.2436V33.2881H55.2521C55.093 33.288 54.9387 33.3425 54.8148 33.4423C54.691 33.5422 54.605 33.6814 54.5712 33.8368C54.3716 34.7567 54.0097 35.6336 53.5025 36.4264C53.4162 36.5603 53.3785 36.7197 53.3954 36.8781C53.4123 37.0365 53.4829 37.1843 53.5955 37.297L55.0009 38.7025L53.3564 40.347L51.951 38.9415C51.8382 38.8291 51.6904 38.7586 51.532 38.7417C51.3737 38.7248 51.2143 38.7625 51.0803 38.8485C50.2875 39.3558 49.4106 39.7177 48.4908 39.9173C48.3353 39.9511 48.1961 40.037 48.0962 40.1609C47.9964 40.2848 47.942 40.4391 47.942 40.5982V42.5896H45.6166V40.5982C45.6166 40.4391 45.5622 40.2848 45.4623 40.1609C45.3625 40.037 45.2233 39.9511 45.0678 39.9173C44.148 39.7177 43.2711 39.3558 42.4783 38.8485C42.3443 38.7625 42.1849 38.7248 42.0266 38.7417C41.8682 38.7586 41.7204 38.8291 41.6076 38.9415L40.2022 40.347L38.5576 38.7025L39.9631 37.297C40.0757 37.1843 40.1463 37.0365 40.1632 36.8781C40.1801 36.7197 40.1423 36.5603 40.0561 36.4264C39.5489 35.6336 39.187 34.7567 38.9874 33.8368C38.9536 33.6814 38.8676 33.5422 38.7438 33.4423C38.6199 33.3425 38.4656 33.288 38.3065 33.2881H36.315V30.9627H38.3065C38.4655 30.9625 38.6198 30.908 38.7436 30.8082C38.8674 30.7084 38.9534 30.5693 38.9874 30.4139C39.1873 29.4937 39.5495 28.6165 40.0571 27.8234C40.143 27.6895 40.1807 27.5303 40.1638 27.3722C40.1469 27.214 40.0764 27.0663 39.964 26.9537L38.5586 25.5482L40.204 23.9037Z" fill="#374267"/>
<path d="M46.7793 35.6136C47.4692 35.6136 48.1435 35.4091 48.7172 35.0258C49.2908 34.6425 49.7379 34.0977 50.0019 33.4604C50.2659 32.823 50.3349 32.1217 50.2003 31.445C50.0658 30.7684 49.7336 30.1469 49.2457 29.6591C48.7579 29.1713 48.1364 28.8391 47.4598 28.7045C46.7832 28.5699 46.0818 28.639 45.4445 28.903C44.8071 29.167 44.2623 29.614 43.879 30.1877C43.4958 30.7613 43.2912 31.4357 43.2912 32.1255C43.2924 33.0503 43.6603 33.9368 44.3142 34.5906C44.9681 35.2445 45.8546 35.6124 46.7793 35.6136ZM46.7793 30.0327C47.1932 30.0327 47.5978 30.1554 47.942 30.3854C48.2862 30.6154 48.5544 30.9422 48.7128 31.3246C48.8712 31.7071 48.9127 32.1279 48.8319 32.5338C48.7512 32.9398 48.5518 33.3127 48.2592 33.6054C47.9665 33.8981 47.5936 34.0974 47.1876 34.1782C46.7816 34.2589 46.3608 34.2175 45.9784 34.0591C45.596 33.9007 45.2691 33.6324 45.0391 33.2883C44.8092 32.9441 44.6864 32.5395 44.6864 32.1255C44.6872 31.5707 44.9079 31.0388 45.3002 30.6465C45.6926 30.2542 46.2245 30.0334 46.7793 30.0327Z" fill="#374267"/>
<path d="M46.7793 38.404C48.0211 38.404 49.235 38.0358 50.2675 37.3459C51.3 36.656 52.1047 35.6754 52.5799 34.5281C53.0551 33.3809 53.1795 32.1185 52.9372 30.9006C52.695 29.6826 52.097 28.5639 51.2189 27.6858C50.3408 26.8078 49.2221 26.2098 48.0042 25.9675C46.7863 25.7253 45.5239 25.8496 44.3766 26.3248C43.2293 26.8 42.2488 27.6048 41.5589 28.6373C40.869 29.6698 40.5007 30.8837 40.5007 32.1254C40.5027 33.79 41.1648 35.3858 42.3419 36.5629C43.5189 37.7399 45.1147 38.402 46.7793 38.404ZM46.7793 27.2421C47.7451 27.2421 48.6893 27.5285 49.4923 28.0651C50.2954 28.6017 50.9213 29.3644 51.2909 30.2567C51.6605 31.149 51.7572 32.1309 51.5688 33.0781C51.3804 34.0254 50.9153 34.8955 50.2323 35.5785C49.5494 36.2614 48.6793 36.7265 47.732 36.9149C46.7847 37.1034 45.8028 37.0066 44.9105 36.637C44.0182 36.2674 43.2556 35.6415 42.719 34.8385C42.1824 34.0354 41.896 33.0913 41.896 32.1254C41.8975 30.8308 42.4124 29.5895 43.3279 28.674C44.2434 27.7586 45.4846 27.2436 46.7793 27.2421ZM53.2904 47.2405H6.78258C5.11741 47.2405 3.52043 47.902 2.34297 49.0794C1.16552 50.2569 0.504028 51.8539 0.504028 53.519C0.504028 55.1842 1.16552 56.7812 2.34297 57.9586C3.52043 59.1361 5.11741 59.7976 6.78258 59.7976H53.2904C54.9556 59.7976 56.5526 59.1361 57.73 57.9586C58.9075 56.7812 59.569 55.1842 59.569 53.519C59.569 51.8539 58.9075 50.2569 57.73 49.0794C56.5526 47.902 54.9556 47.2405 53.2904 47.2405ZM1.89926 53.519C1.90074 52.2243 2.41571 50.9831 3.33119 50.0676C4.24667 49.1522 5.4879 48.6372 6.78258 48.6357H10.679L2.88523 56.4295C2.24857 55.5925 1.9024 54.5706 1.89926 53.519ZM6.78258 58.4024C5.73098 58.3992 4.70911 58.053 3.87212 57.4164L12.6528 48.6357H22.306L12.5393 58.4024H6.78258ZM14.5131 58.4024L24.2798 48.6357H33.9329L24.1663 58.4024H14.5131ZM35.3849 58.4024H26.1401L35.3849 49.1575V58.4024ZM53.2904 58.4024H36.7801V48.6357H53.2904C54.5855 48.6357 55.8276 49.1502 56.7434 50.066C57.6592 50.9818 58.1737 52.2239 58.1737 53.519C58.1737 54.8142 57.6592 56.0563 56.7434 56.9721C55.8276 57.8879 54.5855 58.4024 53.2904 58.4024ZM2.1318 21.6612H5.61524C5.92777 22.862 6.40348 24.0144 7.02907 25.086L4.56974 27.5453C4.50491 27.6101 4.45349 27.6871 4.4184 27.7717C4.38332 27.8564 4.36526 27.9471 4.36526 28.0388C4.36526 28.1304 4.38332 28.2212 4.4184 28.3059C4.45349 28.3905 4.50491 28.4675 4.56974 28.5322L8.51546 32.4789C8.64891 32.6048 8.82544 32.675 9.00891 32.675C9.19238 32.675 9.36892 32.6048 9.50236 32.4789L11.9617 30.0186C13.0332 30.6445 14.1856 31.1203 15.3865 31.4325V34.9159C15.3865 35.1009 15.46 35.2784 15.5909 35.4092C15.7217 35.54 15.8991 35.6135 16.0841 35.6135H21.6651C21.8501 35.6135 22.0275 35.54 22.1584 35.4092C22.2892 35.2784 22.3627 35.1009 22.3627 34.9159V31.4325C23.5637 31.1203 24.7161 30.6445 25.7875 30.0186L28.2469 32.4789C28.3803 32.6048 28.5568 32.675 28.7403 32.675C28.9238 32.675 29.1003 32.6048 29.2338 32.4789L33.1795 28.5322C33.2443 28.4675 33.2957 28.3905 33.3308 28.3059C33.3659 28.2212 33.384 28.1304 33.384 28.0388C33.384 27.9471 33.3659 27.8564 33.3308 27.7717C33.2957 27.6871 33.2443 27.6101 33.1795 27.5453L30.7202 25.086C31.3458 24.0144 31.8215 22.862 32.134 21.6612H35.6174C35.8024 21.6612 35.9799 21.5877 36.1107 21.4569C36.2415 21.326 36.315 21.1486 36.315 20.9636V15.3826C36.315 15.1976 36.2415 15.0202 36.1107 14.8893C35.9799 14.7585 35.8024 14.685 35.6174 14.685H32.134C31.8215 13.4841 31.3458 12.3318 30.7202 11.2602L33.1795 8.80084C33.2443 8.73606 33.2957 8.65913 33.3308 8.57446C33.3659 8.4898 33.384 8.39904 33.384 8.30739C33.384 8.21574 33.3659 8.12499 33.3308 8.04032C33.2957 7.95566 33.2443 7.87873 33.1795 7.81395L29.2338 3.86822C29.169 3.8034 29.0921 3.75197 29.0074 3.71688C28.9227 3.6818 28.832 3.66374 28.7403 3.66374C28.6487 3.66374 28.5579 3.6818 28.4732 3.71688C28.3886 3.75197 28.3117 3.8034 28.2469 3.86822L25.7875 6.32756C24.7159 5.70196 23.5636 5.22625 22.3627 4.91372V1.43028C22.3627 1.24526 22.2892 1.06782 22.1584 0.936993C22.0275 0.806165 21.8501 0.732666 21.6651 0.732666H16.0841C15.8991 0.732666 15.7217 0.806165 15.5909 0.936993C15.46 1.06782 15.3865 1.24526 15.3865 1.43028V4.91372C14.1857 5.22625 13.0333 5.70196 11.9617 6.32756L9.50236 3.86822C9.43757 3.8034 9.36065 3.75197 9.27598 3.71688C9.19131 3.6818 9.10056 3.66374 9.00891 3.66374C8.91726 3.66374 8.82651 3.6818 8.74184 3.71688C8.65718 3.75197 8.58025 3.8034 8.51546 3.86822L4.56974 7.81395C4.50491 7.87873 4.45349 7.95566 4.4184 8.04032C4.38332 8.12499 4.36526 8.21574 4.36526 8.30739C4.36526 8.39904 4.38332 8.4898 4.4184 8.57446C4.45349 8.65913 4.50491 8.73606 4.56974 8.80084L7.02907 11.2602C6.40348 12.3318 5.92777 13.4841 5.61524 14.685H2.1318C1.94678 14.685 1.76934 14.7585 1.63851 14.8893C1.50768 15.0202 1.43418 15.1976 1.43418 15.3826V20.9636C1.43418 21.1486 1.50768 21.326 1.63851 21.4569C1.76934 21.5877 1.94678 21.6612 2.1318 21.6612ZM2.82942 16.0802H6.16496C6.32408 16.08 6.47835 16.0254 6.6023 15.9257C6.72625 15.8259 6.81249 15.6868 6.84676 15.5315C7.15489 14.1107 7.71399 12.7562 8.49779 11.5318C8.58411 11.398 8.62196 11.2388 8.60503 11.0805C8.58811 10.9222 8.51742 10.7745 8.40478 10.6621L6.04869 8.30786L9.00938 5.34717L11.3636 7.70233C11.4761 7.81497 11.6237 7.88566 11.782 7.90258C11.9403 7.91951 12.0996 7.88166 12.2333 7.79534C13.4577 7.01154 14.8122 6.45244 16.233 6.14431C16.3884 6.11004 16.5274 6.02381 16.6272 5.89985C16.727 5.7759 16.7815 5.62163 16.7818 5.46251V2.1279H20.9675V5.46344C20.9678 5.62256 21.0223 5.77683 21.1221 5.90078C21.2218 6.02473 21.3609 6.11097 21.5163 6.14525C22.9371 6.45337 24.2915 7.01247 25.5159 7.79627C25.6498 7.88225 25.809 7.91991 25.9672 7.90299C26.1253 7.88607 26.273 7.8156 26.3856 7.70326L28.7399 5.3481L31.7005 8.30879L29.3454 10.663C29.2327 10.7755 29.1621 10.9231 29.1451 11.0814C29.1282 11.2397 29.1661 11.399 29.2524 11.5327C30.0362 12.7571 30.5953 14.1116 30.9034 15.5324C30.9377 15.6878 31.0239 15.8268 31.1479 15.9266C31.2718 16.0264 31.4261 16.0809 31.5852 16.0812H34.9198V20.2669H31.5843C31.4252 20.2672 31.2709 20.3217 31.1469 20.4215C31.023 20.5212 30.9367 20.6603 30.9025 20.8157C30.5943 22.2365 30.0352 23.5909 29.2514 24.8153C29.1651 24.9491 29.1273 25.1084 29.1442 25.2666C29.1611 25.4249 29.2318 25.5726 29.3445 25.685L31.6996 28.0393L28.7389 31L26.3847 28.6448C26.2717 28.5327 26.124 28.4624 25.9657 28.4455C25.8075 28.4286 25.6482 28.4661 25.5141 28.5518C24.2899 29.3362 22.9354 29.8957 21.5144 30.2037C21.359 30.2377 21.2199 30.3237 21.1201 30.4475C21.0203 30.5713 20.9658 30.7256 20.9656 30.8846V34.2183H16.7799V30.8828C16.7797 30.7237 16.7252 30.5695 16.6254 30.4456C16.5256 30.3218 16.3865 30.2358 16.2311 30.2019C14.8102 29.8938 13.4557 29.3344 12.2314 28.5499C12.0973 28.4642 11.9381 28.4267 11.7798 28.4436C11.6215 28.4605 11.4738 28.5308 11.3608 28.6429L9.00938 30.999L6.04869 28.0383L8.40385 25.6841C8.51649 25.5717 8.58718 25.424 8.6041 25.2657C8.62103 25.1074 8.58318 24.9481 8.49686 24.8144C7.71306 23.59 7.15396 22.2355 6.84583 20.8147C6.81156 20.6594 6.72532 20.5203 6.60137 20.4205C6.47742 20.3208 6.32315 20.2662 6.16403 20.2659H2.82942V16.0802Z" fill="#374267"/>
<path d="M18.8746 26.3119C20.4843 26.3119 22.0579 25.8346 23.3963 24.9403C24.7347 24.046 25.7779 22.7748 26.3939 21.2877C27.0099 19.8005 27.1711 18.164 26.8571 16.5852C26.543 15.0065 25.7679 13.5562 24.6296 12.418C23.4914 11.2798 22.0412 10.5046 20.4624 10.1906C18.8836 9.87653 17.2472 10.0377 15.76 10.6537C14.2728 11.2697 13.0017 12.3129 12.1074 13.6513C11.2131 14.9898 10.7357 16.5633 10.7357 18.1731C10.7382 20.3309 11.5965 22.3996 13.1223 23.9254C14.6481 25.4512 16.7168 26.3095 18.8746 26.3119ZM18.8746 11.4294C20.2084 11.4294 21.5122 11.8249 22.6211 12.5659C23.7301 13.3069 24.5945 14.3601 25.1049 15.5924C25.6153 16.8246 25.7488 18.1805 25.4886 19.4887C25.2284 20.7968 24.5862 21.9984 23.6431 22.9415C22.6999 23.8846 21.4983 24.5269 20.1902 24.7871C18.8821 25.0473 17.5261 24.9138 16.2939 24.4034C15.0617 23.8929 14.0085 23.0286 13.2675 21.9196C12.5265 20.8106 12.131 19.5068 12.131 18.1731C12.1329 16.3851 12.844 14.671 14.1083 13.4068C15.3725 12.1425 17.0867 11.4314 18.8746 11.4294Z" fill="#374267"/>
<path d="M18.8746 23.5215C19.9325 23.5215 20.9665 23.2078 21.8461 22.6201C22.7256 22.0324 23.4111 21.1971 23.8159 20.2199C24.2207 19.2426 24.3266 18.1672 24.1203 17.1297C23.9139 16.0922 23.4045 15.1392 22.6565 14.3912C21.9085 13.6432 20.9556 13.1338 19.9181 12.9275C18.8806 12.7211 17.8052 12.827 16.8279 13.2318C15.8506 13.6366 15.0153 14.3222 14.4276 15.2017C13.8399 16.0812 13.5262 17.1153 13.5262 18.1731C13.528 19.5911 14.092 20.9504 15.0947 21.9531C16.0973 22.9557 17.4567 23.5198 18.8746 23.5215ZM18.8746 14.2199C19.6565 14.2199 20.4208 14.4518 21.0709 14.8862C21.721 15.3206 22.2277 15.938 22.5269 16.6603C22.8261 17.3826 22.9044 18.1775 22.7518 18.9443C22.5993 19.7112 22.2228 20.4156 21.67 20.9684C21.1171 21.5213 20.4127 21.8978 19.6459 22.0503C18.879 22.2028 18.0842 22.1246 17.3618 21.8254C16.6395 21.5261 16.0221 21.0195 15.5877 20.3694C15.1533 19.7193 14.9215 18.955 14.9215 18.1731C14.9227 17.125 15.3396 16.1203 16.0807 15.3792C16.8218 14.6381 17.8266 14.2212 18.8746 14.2199Z" fill="#374267"/>
</g>
<path d="M68.631 17.3801C69.4057 17.4713 70.0551 17.5396 70.5792 17.5852C71.1261 17.608 71.5704 17.6422 71.9122 17.6877C72.3224 17.7333 72.6414 17.7561 72.8693 17.7561C73.1199 17.7789 73.4959 17.7675 73.9972 17.7219C74.4301 17.6764 75.0112 17.6194 75.7404 17.551C76.4923 17.4827 77.4493 17.3801 78.6115 17.2434C78.0874 17.6991 77.6658 18.1435 77.3468 18.5764C77.0506 18.9866 76.8227 19.3512 76.6632 19.6702C76.4581 20.0575 76.3328 20.4221 76.2872 20.7639C76.1961 21.3108 76.1163 22.0627 76.048 23.0198C76.0024 23.954 75.9568 24.9794 75.9113 26.0959C75.8657 27.2125 75.8429 28.3632 75.8429 29.5481C75.8429 30.733 75.8543 31.8609 75.8771 32.9319C75.9226 33.9801 75.991 34.9143 76.0822 35.7346C76.1961 36.5549 76.3328 37.1474 76.4923 37.512C76.7202 37.9221 76.9594 38.3323 77.2101 38.7424C77.4379 39.0842 77.7114 39.4374 78.0304 39.802C78.3494 40.1666 78.714 40.4628 79.1241 40.6907C77.7797 40.6223 76.7088 40.5881 75.9113 40.5881H74.6808C74.3162 40.5881 73.8491 40.6109 73.2794 40.6565C72.8009 40.7021 72.1971 40.7476 71.4679 40.7932C70.7387 40.8388 69.8615 40.9071 68.8361 40.9983C69.3601 40.4286 69.7703 39.8818 70.0665 39.3577C70.3628 38.8336 70.602 38.3778 70.7843 37.9905C70.9894 37.5347 71.1261 37.1018 71.1945 36.6917C71.2856 36.0992 71.354 35.37 71.3995 34.5042C71.4679 33.6155 71.5135 32.6698 71.5363 31.6672C71.559 30.6418 71.559 29.6051 71.5363 28.5569C71.5363 27.4859 71.5135 26.4605 71.4679 25.4807C71.4223 24.5009 71.354 23.6122 71.2628 22.8147C71.1945 22.0172 71.1033 21.3792 70.9894 20.9006C70.921 20.6044 70.7843 20.274 70.5792 19.9094C70.3969 19.5904 70.1463 19.2258 69.8273 18.8157C69.531 18.3827 69.1323 17.9042 68.631 17.3801ZM80.8673 37.1702C81.0268 36.4182 81.1407 35.7574 81.2091 35.1877C81.3003 34.5953 81.3686 34.1054 81.4142 33.718C81.4598 33.2623 81.4825 32.8749 81.4825 32.5559C81.4598 32.1685 81.437 31.7128 81.4142 31.1887C81.4142 30.6418 81.3914 30.1064 81.3458 29.5823C81.323 29.0354 81.2889 28.5569 81.2433 28.1467C81.1977 27.7138 81.1407 27.4062 81.0724 27.2239C80.9812 27.0416 80.8559 26.8479 80.6964 26.6428C80.3774 26.2555 79.9103 25.8795 79.295 25.5149C79.8191 25.401 80.2635 25.3098 80.6281 25.2415C81.0154 25.1503 81.3344 25.0706 81.5851 25.0022C81.8585 24.9111 82.0978 24.8313 82.3029 24.7629C82.4851 24.6946 82.7016 24.6262 82.9523 24.5579C83.1573 24.5123 83.408 24.4553 83.7042 24.387C84.0004 24.3186 84.3422 24.2389 84.7296 24.1477L84.6271 27.2581C85.3562 26.3922 86.0968 25.7428 86.8488 25.3098C87.6007 24.8769 88.3071 24.5693 88.9679 24.387C89.7198 24.1591 90.4604 24.0452 91.1896 24.0452C92.101 24.0907 92.9441 24.2389 93.7189 24.4895C94.5164 24.7402 95.2 25.0364 95.7697 25.3782C96.3621 25.6972 96.8406 26.039 97.2052 26.4036C97.5698 26.7681 97.7863 27.0872 97.8546 27.3606C98.1281 28.2493 98.1964 29.0696 98.0597 29.8215C97.923 30.5507 97.7407 31.2685 97.5128 31.9749C97.3077 32.6584 97.1254 33.342 96.9659 34.0256C96.8292 34.7092 96.8862 35.4498 97.1368 36.2473C97.228 36.4524 97.3191 36.6575 97.4103 36.8625C97.5014 37.0448 97.6154 37.2271 97.7521 37.4094C97.8888 37.5917 98.0483 37.7398 98.2306 37.8538C97.9799 37.831 97.7293 37.8196 97.4786 37.8196C97.228 37.7968 97.0001 37.774 96.795 37.7512C96.5444 37.7284 96.3165 37.7056 96.1115 37.6829C95.8836 37.6601 95.576 37.6487 95.1886 37.6487C94.5278 37.6487 93.5024 37.6829 92.1124 37.7512C92.3175 37.2727 92.477 36.8739 92.5909 36.5549C92.7277 36.2131 92.8416 35.9397 92.9327 35.7346C93.0239 35.484 93.0922 35.2903 93.1378 35.1536C93.4113 34.4928 93.5708 33.7408 93.6163 32.8977C93.6847 32.0546 93.6277 31.2001 93.4454 30.3342C93.3771 30.038 93.2631 29.6848 93.1036 29.2747C92.9441 28.8645 92.7277 28.4657 92.4542 28.0784C92.2036 27.691 91.896 27.3606 91.5314 27.0872C91.1896 26.8137 90.7908 26.6542 90.3351 26.6086C89.8794 26.5631 89.3667 26.677 88.797 26.9504C88.2501 27.2239 87.6577 27.7252 87.0197 28.4543C86.5411 29.0696 86.1652 29.8215 85.8917 30.7102C85.6411 31.4622 85.4702 32.4078 85.379 33.5471C85.2879 34.6637 85.4246 35.9739 85.7892 37.4778C85.4702 37.4322 85.174 37.4094 84.9005 37.4094C84.6271 37.3866 84.3992 37.3639 84.2169 37.3411C83.9891 37.3183 83.784 37.2955 83.6017 37.2727C83.3966 37.2727 83.1687 37.2613 82.9181 37.2385C82.6902 37.2385 82.4054 37.2385 82.0636 37.2385C81.7218 37.2157 81.323 37.193 80.8673 37.1702ZM107.767 25.0022C108.496 24.8883 109.088 24.7971 109.544 24.7288C110.023 24.6376 110.41 24.5693 110.706 24.5237C111.048 24.4553 111.31 24.3984 111.492 24.3528C111.675 24.3072 111.937 24.2389 112.278 24.1477C112.575 24.0566 112.962 23.954 113.441 23.8401C113.919 23.7034 114.523 23.5211 115.252 23.2932C115.07 23.5211 114.922 23.7262 114.808 23.9084C114.717 24.068 114.625 24.2047 114.534 24.3186C114.443 24.4553 114.363 24.5806 114.295 24.6946C114.227 24.8085 114.158 24.9794 114.09 25.2073C114.044 25.3896 113.987 25.6516 113.919 25.9934C113.851 26.3124 113.794 26.734 113.748 27.2581C114.979 26.4833 116.107 25.9023 117.132 25.5149C118.18 25.1275 119.092 24.8541 119.866 24.6946C120.778 24.5123 121.598 24.4439 122.327 24.4895C123.239 24.5579 124.082 24.7629 124.857 25.1047C125.654 25.4237 126.372 25.8111 127.01 26.2668C127.648 26.7226 128.206 27.2239 128.685 27.7708C129.163 28.3176 129.539 28.8645 129.813 29.4114C129.995 29.776 130.109 30.3 130.154 30.9836C130.223 31.6672 130.154 32.3964 129.949 33.1711C129.744 33.9459 129.38 34.7092 128.856 35.4612C128.354 36.1903 127.637 36.7714 126.702 37.2043C125.084 37.9335 123.478 38.3437 121.883 38.4348C121.199 38.4804 120.493 38.4576 119.764 38.3665C119.057 38.2753 118.34 38.0816 117.61 37.7854C116.904 37.4892 116.22 37.0676 115.56 36.5208C114.899 35.9511 114.295 35.2219 113.748 34.3333C113.566 35.4954 113.429 36.5094 113.338 37.3752C113.27 38.2183 113.224 38.9247 113.201 39.4944C113.179 40.1552 113.179 40.7135 113.201 41.1692C113.247 41.6249 113.338 42.1148 113.475 42.6389C113.589 43.0946 113.748 43.6187 113.953 44.2112C114.181 44.8264 114.466 45.4644 114.808 46.1252C114.671 46.0797 114.477 46.0455 114.227 46.0227C113.999 46.0227 113.76 46.0455 113.509 46.0911C113.235 46.1366 112.928 46.1822 112.586 46.2278C112.267 46.2961 111.914 46.3759 111.526 46.467C111.207 46.5354 110.832 46.6152 110.399 46.7063C109.988 46.8202 109.567 46.9456 109.134 47.0823C109.385 46.7861 109.578 46.4443 109.715 46.0569C109.874 45.6923 110 45.3505 110.091 45.0315C110.182 44.6441 110.262 44.2568 110.33 43.8694C110.353 43.5276 110.387 42.8782 110.433 41.9211C110.501 40.9869 110.558 39.9045 110.604 38.6741C110.649 37.4208 110.683 36.1106 110.706 34.7434C110.752 33.3762 110.775 32.1116 110.775 30.9495C110.797 29.7646 110.797 28.762 110.775 27.9417C110.752 27.1213 110.706 26.6428 110.638 26.5061C110.547 26.3466 110.376 26.1757 110.125 25.9934C109.92 25.8339 109.624 25.6744 109.236 25.5149C108.872 25.3554 108.382 25.1845 107.767 25.0022ZM115.901 31.2229C115.742 31.747 115.708 32.2597 115.799 32.761C115.89 33.2623 116.118 33.7294 116.483 34.1624C116.87 34.5953 117.405 34.9827 118.089 35.3245C118.795 35.6435 119.673 35.8827 120.721 36.0422C121.769 36.2017 122.567 36.179 123.113 35.9739C123.66 35.7688 124.059 35.4498 124.31 35.0168C124.583 34.5611 124.765 34.037 124.857 33.4446C124.948 32.8293 125.062 32.1913 125.198 31.5305C125.335 30.8925 125.312 30.2431 125.13 29.5823C124.948 28.8987 124.686 28.2834 124.344 27.7366C124.025 27.1897 123.66 26.7454 123.25 26.4036C122.863 26.039 122.521 25.8567 122.225 25.8567C121.518 25.8567 120.823 26.039 120.14 26.4036C119.456 26.7681 118.83 27.2239 118.26 27.7708C117.69 28.3176 117.189 28.9101 116.756 29.5481C116.346 30.1633 116.061 30.7216 115.901 31.2229ZM131.214 24.5579C131.647 24.5806 132.034 24.592 132.376 24.592C132.741 24.5693 133.048 24.5465 133.299 24.5237C133.595 24.5009 133.857 24.4781 134.085 24.4553C134.427 24.4097 134.78 24.3528 135.145 24.2844C135.464 24.2389 135.794 24.1819 136.136 24.1135C136.5 24.0224 136.854 23.9198 137.195 23.8059C137.059 24.1477 136.945 24.4439 136.854 24.6946C136.762 24.9452 136.694 25.1617 136.649 25.344C136.58 25.5491 136.546 25.72 136.546 25.8567C136.523 26.0162 136.512 26.2099 136.512 26.4377C136.489 26.8251 136.489 27.4517 136.512 28.3176C137.697 27.2922 138.688 26.4947 139.485 25.925C140.306 25.3554 140.955 24.9111 141.434 24.592C142.003 24.2275 142.448 23.9882 142.767 23.8743C143.61 23.7375 144.35 23.9312 144.988 24.4553C145.262 24.6832 145.524 24.9908 145.775 25.3782C146.025 25.7428 146.242 26.2327 146.424 26.8479C146.606 27.4631 146.743 28.2037 146.834 29.0696C146.925 29.9127 146.937 30.9267 146.868 32.1116C146.39 32.1571 145.957 32.2027 145.569 32.2483C145.205 32.2939 144.897 32.328 144.647 32.3508C144.35 32.3964 144.077 32.4192 143.826 32.4192L142.903 32.5217C142.584 32.5673 142.186 32.6129 141.707 32.6584C141.251 32.6812 140.693 32.7268 140.032 32.7952C140.989 32.0204 141.605 31.3482 141.878 30.7786C142.174 30.1861 142.3 29.6962 142.254 29.3088C142.208 28.8759 142.003 28.4999 141.639 28.1809C141.206 27.9303 140.739 27.8391 140.237 27.9075C139.804 27.953 139.303 28.1467 138.734 28.4885C138.164 28.8303 137.56 29.4683 136.922 30.4026C136.968 31.8609 137.013 33.0686 137.059 34.0256C137.127 34.9827 137.184 35.7574 137.23 36.3499C137.298 37.0334 137.355 37.5689 137.401 37.9563C137.469 38.2981 137.606 38.6627 137.811 39.05C137.97 39.3691 138.198 39.7222 138.494 40.1096C138.79 40.497 139.178 40.8844 139.656 41.2717C138.654 41.2262 137.833 41.2262 137.195 41.2717C136.808 41.2945 136.466 41.3173 136.17 41.3401C135.851 41.3857 135.509 41.4312 135.145 41.4768C134.826 41.5224 134.45 41.568 134.017 41.6135C133.607 41.6819 133.151 41.7502 132.65 41.8186C132.832 41.568 132.98 41.2717 133.094 40.9299C133.208 40.6109 133.299 40.3033 133.367 40.0071C133.458 39.6653 133.527 39.3121 133.572 38.9475C133.595 38.6285 133.607 38.15 133.607 37.512C133.629 36.8739 133.618 36.1562 133.572 35.3586C133.55 34.5383 133.515 33.6952 133.47 32.8293C133.424 31.9407 133.367 31.109 133.299 30.3342C133.231 29.5595 133.151 28.8873 133.06 28.3176C132.991 27.7252 132.912 27.315 132.82 27.0872C132.707 26.8137 132.57 26.5403 132.41 26.2668C132.274 26.0162 132.103 25.7542 131.898 25.4807C131.693 25.1845 131.465 24.8769 131.214 24.5579ZM157.464 25.6174C158.056 25.6174 158.672 25.7314 159.31 25.9592C159.948 26.1643 160.563 26.4377 161.155 26.7795C161.748 27.0986 162.283 27.4517 162.762 27.8391C163.263 28.2037 163.673 28.5569 163.992 28.8987C164.562 29.5139 164.949 30.3456 165.154 31.3938C165.382 32.4192 165.428 33.4788 165.291 34.5725C165.154 35.6435 164.835 36.6575 164.334 37.6145C163.833 38.5715 163.138 39.2779 162.249 39.7336C161.611 40.0527 160.984 40.3033 160.369 40.4856C159.754 40.6679 159.162 40.8046 158.592 40.8958C158.022 40.9869 157.487 41.0325 156.985 41.0325C156.484 41.0325 156.051 41.0211 155.687 40.9983C155.003 40.9527 154.285 40.7135 153.533 40.2805C152.804 39.8476 152.109 39.3121 151.448 38.6741C150.81 38.0361 150.263 37.3411 149.808 36.5891C149.352 35.8144 149.079 35.0852 148.987 34.4016C148.851 33.4674 148.828 32.4875 148.919 31.4622C149.01 30.4368 149.341 29.4911 149.91 28.6252C150.503 27.7594 151.391 27.0416 152.576 26.4719C153.784 25.9023 155.413 25.6174 157.464 25.6174ZM156.336 38.8792C156.587 38.9247 156.929 38.8678 157.361 38.7083C157.794 38.526 158.216 38.2411 158.626 37.8538C159.059 37.4664 159.435 36.9765 159.754 36.384C160.096 35.7688 160.301 35.0282 160.369 34.1624C160.438 33.3193 160.438 32.5445 160.369 31.8381C160.324 31.1318 160.221 30.5165 160.062 29.9924C159.902 29.4456 159.72 29.0012 159.515 28.6594C159.31 28.3176 159.093 28.0784 158.865 27.9417C158.478 27.7366 158.011 27.5771 157.464 27.4631C156.917 27.3264 156.45 27.3492 156.063 27.5315C155.88 27.6226 155.652 27.8163 155.379 28.1125C155.106 28.4088 154.832 28.7847 154.559 29.2405C154.285 29.6734 154.035 30.1747 153.807 30.7444C153.602 31.314 153.454 31.9065 153.362 32.5217C153.271 33.137 153.248 33.7978 153.294 34.5042C153.362 35.2105 153.511 35.8827 153.738 36.5208C153.966 37.136 154.285 37.6715 154.695 38.1272C155.128 38.5601 155.675 38.8108 156.336 38.8792ZM183.065 26.4377C182.996 25.982 182.939 25.606 182.894 25.3098C182.848 24.9908 182.803 24.7402 182.757 24.5579C182.711 24.33 182.677 24.1591 182.654 24.0452C182.609 23.9312 182.552 23.8059 182.484 23.6692C182.438 23.5553 182.358 23.4185 182.244 23.259C182.153 23.0995 182.039 22.9172 181.902 22.7122C182.199 22.8033 182.495 22.8603 182.791 22.8831C183.11 22.9058 183.406 22.9286 183.68 22.9514C183.976 22.9742 184.284 22.9742 184.603 22.9514C184.922 22.9514 185.286 22.94 185.696 22.9172C186.061 22.8944 186.494 22.8831 186.995 22.8831C187.519 22.8603 188.112 22.8261 188.773 22.7805C188.385 22.8717 188.055 23.0312 187.781 23.259C187.531 23.4641 187.314 23.692 187.132 23.9426C186.927 24.2161 186.756 24.5123 186.619 24.8313C186.505 25.1275 186.437 25.6972 186.414 26.5403C186.391 27.3606 186.391 28.3404 186.414 29.4797C186.437 30.5963 186.46 31.804 186.483 33.1028C186.528 34.4016 186.551 35.6435 186.551 36.8284C186.574 38.0133 186.574 39.0956 186.551 40.0754C186.528 41.0325 186.471 41.7389 186.38 42.1946C186.061 43.6301 185.469 44.7922 184.603 45.6809C183.737 46.5924 182.597 47.0823 181.185 47.1506C179.476 47.219 178.12 47.0595 177.117 46.6721C176.137 46.2847 175.374 45.8062 174.827 45.2366C174.28 44.6897 173.87 44.1314 173.597 43.5618C173.323 42.9921 173.039 42.5592 172.742 42.2629C172.469 42.0123 172.195 41.773 171.922 41.5452C171.671 41.3629 171.409 41.1806 171.136 40.9983C170.885 40.816 170.635 40.7021 170.384 40.6565C171.045 40.6793 171.637 40.6907 172.161 40.6907C172.685 40.6907 173.13 40.6907 173.494 40.6907C173.904 40.6907 174.269 40.6793 174.588 40.6565H175.682H178.792C178.336 40.7932 177.995 40.9413 177.767 41.1008C177.539 41.2831 177.379 41.4654 177.288 41.6477C177.197 41.8528 177.151 42.0579 177.151 42.2629C177.243 42.8098 177.539 43.2086 178.04 43.4592C178.541 43.7099 179.225 43.858 180.091 43.9036C180.934 43.9491 181.515 43.9264 181.834 43.8352C182.153 43.7668 182.404 43.6301 182.586 43.425C182.951 42.8782 183.258 42.1718 183.509 41.3059C183.691 40.5767 183.817 39.6311 183.885 38.469C183.976 37.2841 183.873 35.8372 183.577 34.1282C182.848 35.1308 182.005 35.8827 181.048 36.384C180.091 36.8853 179.179 37.2499 178.314 37.4778C177.288 37.7284 176.251 37.8538 175.203 37.8538C172.446 37.7398 170.384 37.1018 169.017 35.9397C167.65 34.7776 167.023 33.2167 167.137 31.2571C167.205 30.2773 167.501 29.2974 168.026 28.3176C168.572 27.3378 169.279 26.4605 170.145 25.6858C171.033 24.9111 172.047 24.2958 173.187 23.8401C174.326 23.3844 175.511 23.1907 176.741 23.259C177.676 23.3502 178.553 23.5211 179.373 23.7717C180.08 23.9996 180.775 24.3186 181.458 24.7288C182.165 25.1389 182.7 25.7086 183.065 26.4377ZM172.195 29.8557C172.059 30.7444 172.116 31.5761 172.366 32.3508C172.64 33.1256 173.016 33.7978 173.494 34.3674C173.973 34.9143 174.508 35.3472 175.101 35.6663C175.693 35.9625 176.251 36.0992 176.776 36.0764C177.869 36.0536 178.815 35.5637 179.612 34.6067C180.41 33.6269 180.888 32.1685 181.048 30.2317C181.116 29.2747 180.991 28.4543 180.672 27.7708C180.376 27.0644 180 26.4947 179.544 26.0618C179.088 25.6288 178.61 25.3212 178.109 25.1389C177.607 24.9566 177.208 24.8769 176.912 24.8997C176.502 24.9452 176.046 25.0706 175.545 25.2756C175.067 25.4579 174.599 25.7428 174.144 26.1301C173.688 26.4947 173.278 26.9846 172.913 27.5999C172.571 28.2151 172.332 28.967 172.195 29.8557ZM188.738 24.5579C189.171 24.5806 189.559 24.592 189.901 24.592C190.265 24.5693 190.573 24.5465 190.823 24.5237C191.12 24.5009 191.382 24.4781 191.609 24.4553C191.951 24.4097 192.304 24.3528 192.669 24.2844C192.988 24.2389 193.318 24.1819 193.66 24.1135C194.025 24.0224 194.378 23.9198 194.72 23.8059C194.583 24.1477 194.469 24.4439 194.378 24.6946C194.287 24.9452 194.219 25.1617 194.173 25.344C194.105 25.5491 194.07 25.72 194.07 25.8567C194.048 26.0162 194.036 26.2099 194.036 26.4377C194.013 26.8251 194.013 27.4517 194.036 28.3176C195.221 27.2922 196.212 26.4947 197.01 25.925C197.83 25.3554 198.48 24.9111 198.958 24.592C199.528 24.2275 199.972 23.9882 200.291 23.8743C201.134 23.7375 201.875 23.9312 202.513 24.4553C202.786 24.6832 203.048 24.9908 203.299 25.3782C203.55 25.7428 203.766 26.2327 203.948 26.8479C204.131 27.4631 204.267 28.2037 204.359 29.0696C204.45 29.9127 204.461 30.9267 204.393 32.1116C203.914 32.1571 203.481 32.2027 203.094 32.2483C202.729 32.2939 202.422 32.328 202.171 32.3508C201.875 32.3964 201.601 32.4192 201.351 32.4192L200.428 32.5217C200.109 32.5673 199.71 32.6129 199.232 32.6584C198.776 32.6812 198.218 32.7268 197.557 32.7952C198.514 32.0204 199.129 31.3482 199.402 30.7786C199.699 30.1861 199.824 29.6962 199.778 29.3088C199.733 28.8759 199.528 28.4999 199.163 28.1809C198.73 27.9303 198.263 27.8391 197.762 27.9075C197.329 27.953 196.828 28.1467 196.258 28.4885C195.688 28.8303 195.084 29.4683 194.446 30.4026C194.492 31.8609 194.538 33.0686 194.583 34.0256C194.651 34.9827 194.708 35.7574 194.754 36.3499C194.822 37.0334 194.879 37.5689 194.925 37.9563C194.993 38.2981 195.13 38.6627 195.335 39.05C195.495 39.3691 195.722 39.7222 196.019 40.1096C196.315 40.497 196.702 40.8844 197.181 41.2717C196.178 41.2262 195.358 41.2262 194.72 41.2717C194.332 41.2945 193.991 41.3173 193.694 41.3401C193.375 41.3857 193.034 41.4312 192.669 41.4768C192.35 41.5224 191.974 41.568 191.541 41.6135C191.131 41.6819 190.675 41.7502 190.174 41.8186C190.356 41.568 190.504 41.2717 190.618 40.9299C190.732 40.6109 190.823 40.3033 190.892 40.0071C190.983 39.6653 191.051 39.3121 191.097 38.9475C191.12 38.6285 191.131 38.15 191.131 37.512C191.154 36.8739 191.142 36.1562 191.097 35.3586C191.074 34.5383 191.04 33.6952 190.994 32.8293C190.949 31.9407 190.892 31.109 190.823 30.3342C190.755 29.5595 190.675 28.8873 190.584 28.3176C190.516 27.7252 190.436 27.315 190.345 27.0872C190.231 26.8137 190.094 26.5403 189.935 26.2668C189.798 26.0162 189.627 25.7542 189.422 25.4807C189.217 25.1845 188.989 24.8769 188.738 24.5579ZM214.715 35.427C215.353 35.427 215.945 35.3586 216.492 35.2219C216.948 35.108 217.381 34.9257 217.791 34.675C218.224 34.4016 218.509 34.0028 218.646 33.4788C219.101 33.5699 219.489 33.6497 219.808 33.718C220.127 33.7636 220.4 33.8092 220.628 33.8547C220.879 33.9231 221.095 33.9687 221.277 33.9915C221.46 34.037 221.676 34.0826 221.927 34.1282C222.155 34.1737 222.428 34.2307 222.747 34.2991C223.089 34.3446 223.488 34.413 223.943 34.5042C223.602 34.4586 223.248 34.4928 222.884 34.6067C222.542 34.7206 222.212 34.8459 221.893 34.9827C221.528 35.1422 221.186 35.3359 220.867 35.5637C220.662 35.7004 220.423 35.9055 220.15 36.179C219.899 36.4524 219.534 36.7144 219.056 36.9651C218.577 37.2157 217.939 37.4322 217.142 37.6145C216.367 37.774 215.364 37.831 214.134 37.7854C212.653 37.7398 211.411 37.4778 210.408 36.9993C209.406 36.498 208.597 35.8941 207.982 35.1877C207.366 34.4586 206.922 33.6724 206.649 32.8293C206.375 31.9862 206.227 31.2001 206.204 30.4709C206.181 29.7418 206.398 28.9784 206.854 28.1809C207.309 27.3834 207.947 26.6542 208.768 25.9934C209.611 25.3326 210.625 24.7971 211.81 24.387C212.995 23.954 214.293 23.7375 215.706 23.7375C216.526 23.7375 217.278 23.8401 217.962 24.0452C218.668 24.2275 219.306 24.4781 219.876 24.7971C220.469 25.1161 220.981 25.4807 221.414 25.8909C221.847 26.2782 222.212 26.677 222.508 27.0872C222.804 27.5201 223.055 27.9758 223.26 28.4543C223.442 28.8645 223.59 29.3316 223.704 29.8557C223.818 30.3798 223.852 30.9153 223.807 31.4622C222.075 31.5077 220.674 31.5419 219.603 31.5647C218.554 31.5875 217.734 31.5989 217.142 31.5989H215.604H214.442C214.031 31.5989 213.496 31.6103 212.835 31.6331C212.174 31.6558 211.365 31.69 210.408 31.7356C210.522 32.6471 210.807 33.3534 211.263 33.8547C211.741 34.3333 212.243 34.6978 212.767 34.9485C213.359 35.2219 214.009 35.3814 214.715 35.427ZM211.639 29.2747C212.368 29.3202 212.972 29.3544 213.45 29.3772C213.952 29.4 214.362 29.4228 214.681 29.4456C215.023 29.4683 215.296 29.4797 215.501 29.4797H216.356C216.925 29.4797 217.985 29.4456 219.534 29.3772C219.466 28.3746 219.249 27.6112 218.885 27.0872C218.543 26.5631 218.179 26.1757 217.791 25.925C217.335 25.6516 216.834 25.4921 216.287 25.4465C214.806 25.4693 213.701 25.7769 212.972 26.3694C212.265 26.9618 211.821 27.9303 211.639 29.2747ZM240.247 21.4133C240.042 21.9146 239.86 22.3704 239.7 22.7805C239.564 23.1907 239.438 23.5553 239.324 23.8743C239.21 24.2389 239.108 24.5579 239.017 24.8313C238.926 25.1503 238.823 25.5149 238.709 25.925C238.595 26.2896 238.447 26.7454 238.265 27.2922C238.105 27.8163 237.912 28.443 237.684 29.1721C237.501 28.0784 237.171 27.2125 236.693 26.5745C236.214 25.9137 235.724 25.401 235.223 25.0364C234.63 24.6262 233.992 24.33 233.309 24.1477C232.078 23.9426 231.19 23.9654 230.643 24.2161C230.096 24.4667 229.731 24.7857 229.549 25.1731C229.458 25.3326 229.355 25.5377 229.241 25.7883C229.15 26.0162 229.07 26.2555 229.002 26.5061C228.957 26.7568 228.945 27.0074 228.968 27.2581C228.991 27.5087 229.093 27.7138 229.276 27.8733C229.389 27.9872 229.686 28.1467 230.164 28.3518C230.643 28.5341 231.212 28.7506 231.873 29.0012C232.557 29.2291 233.275 29.4797 234.026 29.7532C234.801 30.0266 235.53 30.3 236.214 30.5735C236.898 30.8469 237.49 31.1204 237.991 31.3938C238.493 31.6672 238.823 31.9179 238.983 32.1458C239.119 32.3736 239.267 32.6812 239.427 33.0686C239.609 33.4332 239.734 33.8433 239.803 34.2991C239.894 34.732 239.917 35.1877 239.871 35.6663C239.848 36.122 239.723 36.5777 239.495 37.0334C239.267 37.4892 238.903 37.9107 238.401 38.2981C237.923 38.6855 237.274 39.0045 236.453 39.2551C235.496 39.5514 234.573 39.6311 233.685 39.4944C232.796 39.3577 231.976 39.1526 231.224 38.8792C230.495 38.6057 229.857 38.3437 229.31 38.093C228.763 37.8196 228.375 37.7056 228.148 37.7512C227.897 37.7968 227.612 37.9221 227.293 38.1272C226.974 38.3323 226.666 38.5487 226.37 38.7766C226.097 38.9817 225.858 39.1754 225.652 39.3577C225.447 39.5172 225.345 39.5741 225.345 39.5286C225.345 39.483 225.379 39.3463 225.447 39.1184C225.539 38.8905 225.63 38.6171 225.721 38.2981C225.835 37.9563 225.937 37.5917 226.028 37.2043C226.142 36.7942 226.222 36.4068 226.268 36.0422C226.313 35.746 226.37 35.3814 226.439 34.9485C226.484 34.5611 226.541 34.094 226.609 33.5471C226.701 32.9775 226.803 32.2939 226.917 31.4963C227.031 32.0888 227.191 32.6015 227.396 33.0344C227.623 33.4674 227.84 33.8433 228.045 34.1624C228.296 34.5269 228.535 34.8346 228.763 35.0852C229.105 35.4042 229.503 35.7004 229.959 35.9739C230.438 36.2473 230.916 36.4866 231.395 36.6917C231.873 36.8739 232.329 36.9879 232.762 37.0334C233.195 37.079 233.559 37.0334 233.856 36.8967C234.152 36.76 234.402 36.5094 234.608 36.1448C234.835 35.7802 234.995 35.3814 235.086 34.9485C235.177 34.5155 235.211 34.1054 235.189 33.718C235.166 33.3079 235.063 32.9775 234.881 32.7268C234.744 32.5673 234.425 32.3622 233.924 32.1116C233.445 31.8609 232.864 31.5875 232.181 31.2913C231.52 30.995 230.814 30.6874 230.062 30.3684C229.332 30.0494 228.637 29.7304 227.977 29.4114C227.339 29.0696 226.803 28.7506 226.37 28.4543C225.96 28.1353 225.732 27.8505 225.687 27.5999C225.641 27.2353 225.607 26.8365 225.584 26.4036C225.561 25.9478 225.584 25.5035 225.652 25.0706C225.744 24.6148 225.903 24.1819 226.131 23.7717C226.382 23.3616 226.746 23.0198 227.225 22.7463C227.544 22.564 227.965 22.4273 228.489 22.3362C229.013 22.245 229.595 22.1995 230.233 22.1995C230.871 22.1767 231.531 22.1995 232.215 22.2678C232.899 22.3134 233.548 22.3818 234.163 22.4729C234.801 22.5413 235.371 22.6324 235.872 22.7463C236.396 22.8603 236.795 22.9628 237.068 23.054C237.387 23.1679 237.729 23.1793 238.094 23.0881C238.413 23.0198 238.755 22.8717 239.119 22.6438C239.484 22.4159 239.86 22.0058 240.247 21.4133ZM256.551 21.4133C256.346 21.9146 256.164 22.3704 256.004 22.7805C255.867 23.1907 255.742 23.5553 255.628 23.8743C255.514 24.2389 255.412 24.5579 255.32 24.8313C255.229 25.1503 255.127 25.5149 255.013 25.925C254.899 26.2896 254.751 26.7454 254.568 27.2922C254.409 27.8163 254.215 28.443 253.987 29.1721C253.805 28.0784 253.475 27.2125 252.996 26.5745C252.518 25.9137 252.028 25.401 251.526 25.0364C250.934 24.6262 250.296 24.33 249.612 24.1477C248.382 23.9426 247.493 23.9654 246.946 24.2161C246.4 24.4667 246.035 24.7857 245.853 25.1731C245.762 25.3326 245.659 25.5377 245.545 25.7883C245.454 26.0162 245.374 26.2555 245.306 26.5061C245.26 26.7568 245.249 27.0074 245.272 27.2581C245.294 27.5087 245.397 27.7138 245.579 27.8733C245.693 27.9872 245.989 28.1467 246.468 28.3518C246.946 28.5341 247.516 28.7506 248.177 29.0012C248.86 29.2291 249.578 29.4797 250.33 29.7532C251.105 30.0266 251.834 30.3 252.518 30.5735C253.201 30.8469 253.794 31.1204 254.295 31.3938C254.796 31.6672 255.127 31.9179 255.286 32.1458C255.423 32.3736 255.571 32.6812 255.731 33.0686C255.913 33.4332 256.038 33.8433 256.107 34.2991C256.198 34.732 256.22 35.1877 256.175 35.6663C256.152 36.122 256.027 36.5777 255.799 37.0334C255.571 37.4892 255.207 37.9107 254.705 38.2981C254.227 38.6855 253.577 39.0045 252.757 39.2551C251.8 39.5514 250.877 39.6311 249.988 39.4944C249.1 39.3577 248.279 39.1526 247.527 38.8792C246.798 38.6057 246.16 38.3437 245.613 38.093C245.067 37.8196 244.679 37.7056 244.451 37.7512C244.201 37.7968 243.916 37.9221 243.597 38.1272C243.278 38.3323 242.97 38.5487 242.674 38.7766C242.401 38.9817 242.161 39.1754 241.956 39.3577C241.751 39.5172 241.649 39.5741 241.649 39.5286C241.649 39.483 241.683 39.3463 241.751 39.1184C241.842 38.8905 241.933 38.6171 242.025 38.2981C242.138 37.9563 242.241 37.5917 242.332 37.2043C242.446 36.7942 242.526 36.4068 242.571 36.0422C242.617 35.746 242.674 35.3814 242.742 34.9485C242.788 34.5611 242.845 34.094 242.913 33.5471C243.004 32.9775 243.107 32.2939 243.221 31.4963C243.335 32.0888 243.494 32.6015 243.699 33.0344C243.927 33.4674 244.144 33.8433 244.349 34.1624C244.599 34.5269 244.839 34.8346 245.067 35.0852C245.408 35.4042 245.807 35.7004 246.263 35.9739C246.741 36.2473 247.22 36.4866 247.698 36.6917C248.177 36.8739 248.633 36.9879 249.066 37.0334C249.498 37.079 249.863 37.0334 250.159 36.8967C250.456 36.76 250.706 36.5094 250.911 36.1448C251.139 35.7802 251.299 35.3814 251.39 34.9485C251.481 34.5155 251.515 34.1054 251.492 33.718C251.47 33.3079 251.367 32.9775 251.185 32.7268C251.048 32.5673 250.729 32.3622 250.228 32.1116C249.749 31.8609 249.168 31.5875 248.484 31.2913C247.824 30.995 247.117 30.6874 246.365 30.3684C245.636 30.0494 244.941 29.7304 244.28 29.4114C243.642 29.0696 243.107 28.7506 242.674 28.4543C242.264 28.1353 242.036 27.8505 241.99 27.5999C241.945 27.2353 241.911 26.8365 241.888 26.4036C241.865 25.9478 241.888 25.5035 241.956 25.0706C242.047 24.6148 242.207 24.1819 242.435 23.7717C242.685 23.3616 243.05 23.0198 243.528 22.7463C243.847 22.564 244.269 22.4273 244.793 22.3362C245.317 22.245 245.898 22.1995 246.536 22.1995C247.174 22.1767 247.835 22.1995 248.519 22.2678C249.202 22.3134 249.852 22.3818 250.467 22.4729C251.105 22.5413 251.675 22.6324 252.176 22.7463C252.7 22.8603 253.099 22.9628 253.372 23.054C253.691 23.1679 254.033 23.1793 254.398 23.0881C254.717 23.0198 255.058 22.8717 255.423 22.6438C255.788 22.4159 256.164 22.0058 256.551 21.4133Z" fill="#5C3D42"/>
<defs>
<clipPath id="clip0_250_57">
<rect width="59.53" height="59.53" fill="white" transform="translate(0.271484 0.500244)"/>
</clipPath>
</defs>
</svg>
