<svg width="62" height="62" viewBox="0 0 62 62" fill="none" xmlns="http://www.w3.org/2000/svg">
<path fill-rule="evenodd" clip-rule="evenodd" d="M62 31C62 48.0937 48.0935 62 31 62C13.9065 62 0 48.0936 0 31C0 13.9064 13.9064 0 31 0C48.0936 0 62 13.9064 62 31Z" fill="#5C3D42"/>
<path fill-rule="evenodd" clip-rule="evenodd" d="M43.0609 38.4118C41.6985 40.7713 39.6944 42.6956 37.2816 43.9611C34.8688 45.2265 32.1463 45.7812 29.4307 45.5605C26.7151 45.3398 24.1179 44.3528 21.941 42.7144C19.7642 41.0759 18.0971 38.8533 17.1336 36.3048C16.9521 35.824 16.9691 35.2909 17.1807 34.8226C17.3923 34.3544 17.7813 33.9894 18.2621 33.8079C18.7428 33.6265 19.276 33.6434 19.7443 33.8551C20.2125 34.0667 20.5775 34.4557 20.759 34.9364C21.5547 37.0324 22.9997 38.8191 24.8828 40.0356C26.7659 41.2522 28.9886 41.8349 31.2264 41.6987C33.4642 41.5626 35.5998 40.7146 37.3216 39.2787C39.0433 37.8427 40.2609 35.894 40.7966 33.717C41.3323 31.5401 41.1581 29.2488 40.2994 27.1779C39.4407 25.1069 37.9424 23.3647 36.0234 22.2056C34.1043 21.0465 31.865 20.5312 29.6324 20.7349C27.3998 20.9387 25.2907 21.8508 23.6132 23.3381L26.3561 22.9021C26.8596 22.8302 27.3712 22.9592 27.7804 23.2611C28.1897 23.5631 28.4638 24.0139 28.5436 24.5163C28.6234 25.0186 28.5024 25.5321 28.2069 25.9461C27.9113 26.36 27.4648 26.6411 26.9638 26.7287L19.7867 27.8706C19.6857 27.8866 19.5836 27.8947 19.4813 27.8948C18.9736 27.8944 18.4863 27.6947 18.1242 27.3387C17.7621 26.9828 17.5541 26.4989 17.545 25.9912L17.4095 18.361C17.4094 17.853 17.6088 17.3654 17.9647 17.003C18.3207 16.6406 18.8047 16.4324 19.3126 16.4234C19.8205 16.4144 20.3116 16.6051 20.6802 16.9547C21.0488 17.3042 21.2654 17.7845 21.2833 18.2921L21.3172 20.2066C23.9073 18.0244 27.1838 16.8252 30.5706 16.82C33.9574 16.8147 37.2376 18.0037 39.8344 20.1779C42.4312 22.3521 44.1782 25.3723 44.7684 28.7073C45.3585 32.0423 44.7539 35.4785 43.0609 38.4118Z" fill="#C77C89"/>
</svg>
