<svg width="62" height="62" viewBox="0 0 62 62" fill="none" xmlns="http://www.w3.org/2000/svg">
<path fill-rule="evenodd" clip-rule="evenodd" d="M31.0004 0C48.12 0 62 13.8843 62 31.0039C62 48.1234 48.1202 61.999 31.0004 61.999C13.8806 61.999 0 48.1231 0 31.0034C0 13.8837 13.88 0 31.0004 0ZM17.4759 36.8164C17.3566 37.2615 17.3719 37.7319 17.52 38.1682C17.668 38.6045 17.9421 38.9871 18.3076 39.2676C18.6731 39.5481 19.1136 39.714 19.5734 39.7441C20.0331 39.7743 20.4915 39.6675 20.8905 39.4371C21.2895 39.2068 21.6113 38.8633 21.8151 38.45C22.0189 38.0368 22.0956 37.5724 22.0354 37.1156C21.9753 36.6588 21.7811 36.2301 21.4773 35.8837C21.1735 35.5373 20.7738 35.2888 20.3287 35.1696C20.1308 35.1165 19.9267 35.0894 19.7217 35.0891C19.2097 35.0909 18.7126 35.261 18.3068 35.5731C17.901 35.8852 17.609 36.3221 17.4759 36.8164ZM18.8122 40.8323C19.4871 41.0131 20.2004 40.9897 20.8621 40.7651C21.5237 40.5405 22.1038 40.1247 22.5291 39.5704C22.9544 39.016 23.2058 38.348 23.2515 37.6508C23.2972 36.9536 23.1351 36.2585 22.7857 35.6534C22.4363 35.0483 21.9154 34.5605 21.2887 34.2514C20.662 33.9424 19.9578 33.8262 19.2651 33.9174C18.5724 34.0086 17.9223 34.3032 17.397 34.7639C16.8717 35.2246 16.4948 35.8307 16.3139 36.5056C16.0744 37.4105 16.2026 38.3735 16.6707 39.1842C17.1388 39.9949 17.9087 40.5874 18.8122 40.8323ZM14.9508 34.9867C14.8956 35.0956 14.8086 35.1851 14.7013 35.2433C14.594 35.3014 14.4715 35.3256 14.3502 35.3125L13.3136 35.2007L13.0631 36.1355L14.017 36.5567C14.1286 36.6062 14.2225 36.6885 14.2863 36.7926C14.3501 36.8967 14.3808 37.0177 14.3744 37.1396C14.3393 37.7952 14.4259 38.4515 14.6298 39.0755C14.6677 39.1915 14.6694 39.3164 14.6346 39.4334C14.5998 39.5504 14.5302 39.654 14.4351 39.7304L13.6229 40.3843L14.1073 41.223L15.0797 40.8463C15.1936 40.8022 15.3182 40.7938 15.4369 40.8222C15.5556 40.8505 15.6629 40.9144 15.7445 41.0051C16.1828 41.4938 16.7079 41.8969 17.2932 42.194C17.402 42.2494 17.4914 42.3365 17.5495 42.4439C17.6077 42.5512 17.6318 42.6736 17.6188 42.795L17.5068 43.8319L18.4422 44.0825L18.8634 43.1289C18.9128 43.0173 18.9949 42.9234 19.0989 42.8596C19.2029 42.7957 19.3238 42.765 19.4456 42.7715C20.1012 42.8064 20.7576 42.7197 21.3816 42.5158C21.4978 42.478 21.6228 42.4764 21.7399 42.5112C21.857 42.5459 21.9608 42.6154 22.0376 42.7105L22.6915 43.5229L23.5298 43.0385L23.1531 42.0662C23.1093 41.9522 23.1011 41.8277 23.1296 41.709C23.1581 41.5902 23.2219 41.483 23.3127 41.4014C23.8013 40.9629 24.2044 40.4377 24.5016 39.8523C24.5568 39.7435 24.6439 39.654 24.7513 39.5959C24.8587 39.5378 24.9812 39.5138 25.1026 39.5271L26.1389 39.6391L26.3896 38.7033L25.4364 38.2821C25.3247 38.2329 25.2307 38.1508 25.1668 38.0468C25.1028 37.9428 25.072 37.8218 25.0785 37.6999C25.1142 37.0442 25.0275 36.3876 24.823 35.7637C24.7851 35.6476 24.7835 35.5227 24.8183 35.4056C24.8531 35.2886 24.9226 35.1849 25.0178 35.1083L25.8306 34.4544L25.3462 33.6164L24.373 33.9924C24.2593 34.0367 24.1348 34.0452 24.0162 34.0169C23.8975 33.9886 23.7903 33.9248 23.7089 33.8339C23.2705 33.3451 22.7451 32.9418 22.1595 32.6447C22.0508 32.5892 21.9615 32.5021 21.9033 32.3948C21.8452 32.2875 21.821 32.1651 21.8339 32.0437L21.946 31.0074L21.0112 30.757L20.589 31.7106C20.5399 31.8221 20.4579 31.9161 20.3541 31.9799C20.2503 32.0438 20.1294 32.0745 20.0077 32.0679C19.3521 32.0324 18.6956 32.1192 18.0717 32.3237C17.9556 32.3615 17.8307 32.3631 17.7137 32.3283C17.5966 32.2935 17.4929 32.224 17.4163 32.1288L16.7624 31.3157L15.9238 31.8001L16.3006 32.7736C16.3447 32.8875 16.3531 33.012 16.3248 33.1307C16.2965 33.2495 16.2327 33.3568 16.142 33.4384C15.6531 33.8766 15.2496 34.4015 14.952 34.9866L14.9508 34.9867ZM12.9307 33.9491C12.7879 33.9334 12.6443 33.9694 12.5258 34.0506C12.4073 34.1317 12.3217 34.2527 12.2847 34.3914L11.7671 36.3218C11.7301 36.4606 11.744 36.6081 11.8061 36.7376C11.8683 36.8671 11.9747 36.9702 12.1062 37.0281L13.1644 37.4954C13.1697 38.0182 13.2385 38.5384 13.3692 39.0447L12.4673 39.7702C12.3554 39.8602 12.2794 39.9872 12.2531 40.1284C12.2267 40.2695 12.2518 40.4154 12.3237 40.5397L13.3227 42.2713C13.3944 42.3958 13.5083 42.4905 13.6438 42.5383C13.7793 42.5861 13.9274 42.5837 14.0614 42.5316L15.1416 42.1134C15.5139 42.4793 15.9292 42.7988 16.3782 43.065L16.254 44.2154C16.2386 44.3582 16.2747 44.5017 16.3558 44.6202C16.437 44.7387 16.5578 44.8242 16.6965 44.8614L18.6278 45.379C18.6786 45.3924 18.7309 45.3992 18.7835 45.3992C18.9 45.3991 19.014 45.3651 19.1115 45.3015C19.2091 45.2378 19.2861 45.1471 19.3331 45.0405L19.801 43.9823C20.3238 43.9769 20.844 43.9083 21.3503 43.7779L22.0768 44.6794C22.1668 44.7913 22.2937 44.8672 22.4348 44.8935C22.5758 44.9199 22.7217 44.8949 22.8459 44.8231L24.5775 43.8237C24.7018 43.7519 24.7963 43.6381 24.8441 43.5028C24.8918 43.3675 24.8896 43.2196 24.8379 43.0858L24.42 42.0058C24.7857 41.6327 25.105 41.2167 25.371 40.767L26.5214 40.8912C26.6639 40.9064 26.8072 40.8703 26.9255 40.7892C27.0437 40.7082 27.1291 40.5875 27.1663 40.4491L27.684 38.5178C27.7211 38.3792 27.7074 38.2319 27.6454 38.1025C27.5835 37.9731 27.4774 37.8701 27.3462 37.8121L26.2883 37.3445C26.2821 36.8217 26.2134 36.3014 26.0838 35.7949L26.9859 35.0683C27.0976 34.9783 27.1735 34.8512 27.1998 34.7101C27.2261 34.569 27.2011 34.4232 27.1293 34.2989L26.1298 32.5673C26.0579 32.443 25.944 32.3484 25.8085 32.3007C25.6731 32.253 25.5251 32.2552 25.3911 32.307L24.3118 32.7252C23.9388 32.3591 23.5227 32.0397 23.0727 31.774L23.1964 30.6236C23.2121 30.481 23.1761 30.3375 23.095 30.2191C23.014 30.1007 22.8931 30.0153 22.7545 29.9783L20.8238 29.4607C20.6851 29.4234 20.5377 29.437 20.4081 29.499C20.2786 29.5609 20.1755 29.6672 20.1174 29.7985L19.6498 30.8568C19.1273 30.8627 18.6074 30.9315 18.1012 31.0615L17.3754 30.1596C17.2852 30.0478 17.158 29.9719 17.0168 29.9456C16.8756 29.9193 16.7296 29.9442 16.6051 30.016L14.8745 31.0154C14.75 31.0871 14.6554 31.2011 14.6077 31.3366C14.56 31.4721 14.5624 31.6202 14.6145 31.754L15.0317 32.8333C14.666 33.2068 14.3467 33.623 14.0806 34.0728L12.9302 33.9487L12.9307 33.9491ZM37.5981 34.7946C38.6934 34.7945 39.764 34.4696 40.6747 33.8611C41.5853 33.2526 42.2951 32.3876 42.7142 31.3757C43.1334 30.3638 43.243 29.2503 43.0293 28.1761C42.8157 27.1019 42.2882 26.1151 41.5138 25.3406C40.7393 24.5661 39.7526 24.0387 38.6784 23.8249C37.6041 23.6112 36.4907 23.7208 35.4787 24.1399C34.4668 24.559 33.6019 25.2687 32.9933 26.1793C32.3847 27.09 32.0598 28.1606 32.0597 29.2559C32.0613 30.7243 32.6454 32.132 33.6836 33.1703C34.7219 34.2086 36.1296 34.7926 37.598 34.7943L37.5981 34.7946ZM37.5981 22.5152C36.2647 22.5152 34.9613 22.9105 33.8527 23.6513C32.7441 24.392 31.88 25.4449 31.3698 26.6768C30.8595 27.9086 30.726 29.2641 30.9862 30.5718C31.2463 31.8795 31.8884 33.0808 32.8313 34.0235C33.7741 34.9663 34.9754 35.6083 36.2831 35.8684C37.5908 36.1284 38.9463 35.9949 40.1781 35.4845C41.41 34.9742 42.4628 34.1101 43.2034 33.0014C43.9441 31.8927 44.3394 30.5893 44.3393 29.2559C44.3372 27.4686 43.6262 25.7551 42.3623 24.4914C41.0985 23.2276 39.3849 22.5168 37.5976 22.5149L37.5981 22.5152ZM49.0516 30.3758V28.1367L47.0435 27.8247C46.9229 27.8059 46.8108 27.7509 46.7221 27.6669C46.6335 27.583 46.5724 27.4741 46.547 27.3546C46.3142 26.258 45.8812 25.2136 45.2698 24.2738C45.2033 24.1715 45.1695 24.0515 45.1726 23.9296C45.1758 23.8076 45.2159 23.6895 45.2876 23.5908L46.4864 21.9494L44.9056 20.366L43.2623 21.5665C43.1637 21.6385 43.0456 21.6788 42.9236 21.6821C42.8016 21.6853 42.6816 21.6514 42.5793 21.5847C41.6404 20.9727 40.5961 20.54 39.4995 20.3085C39.38 20.2832 39.2711 20.2222 39.1871 20.1335C39.1032 20.0448 39.0482 19.9327 39.0295 19.812L38.7169 17.8029H36.4787L36.1658 19.812C36.147 19.9327 36.092 20.0448 36.008 20.1334C35.9241 20.2221 35.8152 20.2832 35.6957 20.3085C34.5991 20.5401 33.5549 20.9728 32.6159 21.5847C32.5137 21.6515 32.3936 21.6856 32.2715 21.6824C32.1495 21.6791 32.0314 21.6387 31.9329 21.5665L30.291 20.3664L28.7077 21.9498L29.9082 23.5912C29.9802 23.6899 30.0205 23.8081 30.0237 23.9302C30.027 24.0523 29.993 24.1725 29.9264 24.2749C29.3138 25.2136 28.8809 26.2579 28.6498 27.3548C28.6245 27.4742 28.5634 27.5831 28.4747 27.667C28.3861 27.751 28.274 27.806 28.1534 27.8248L26.1442 28.1368V30.3757L28.1526 30.688C28.2733 30.7067 28.3854 30.7617 28.4741 30.8457C28.5627 30.9297 28.6238 31.0386 28.6491 31.158C28.8805 32.2548 29.3136 33.2991 29.9264 34.2378C29.9928 34.3403 30.0265 34.4605 30.0231 34.5826C30.0197 34.7046 29.9794 34.8228 29.9075 34.9215L28.7077 36.5634L30.291 38.1455L31.9329 36.9461C32.0313 36.874 32.1494 36.8335 32.2714 36.8301C32.3934 36.8267 32.5136 36.8606 32.6159 36.9272C33.5546 37.54 34.5989 37.9731 35.6957 38.2046C35.8152 38.2297 35.9241 38.2905 36.0081 38.3791C36.0921 38.4676 36.1471 38.5797 36.1658 38.7003L36.4787 40.7089H38.7169L39.0288 38.7011C39.0476 38.5805 39.1027 38.4684 39.1866 38.3798C39.2705 38.2911 39.3794 38.23 39.4989 38.2046C40.5959 37.9733 41.6405 37.5402 42.5793 36.9274C42.6816 36.8608 42.8018 36.827 42.9238 36.8304C43.0457 36.8337 43.1638 36.8742 43.2623 36.9462L44.9053 38.1457L46.486 36.5635L45.2872 34.9207C45.2153 34.8221 45.1752 34.704 45.172 34.5821C45.1688 34.4601 45.2028 34.3401 45.2694 34.2379C45.8808 33.2985 46.3138 32.2545 46.5467 31.1582C46.5715 31.0384 46.6323 30.9292 46.7211 30.8452C46.8099 30.7611 46.9223 30.7063 47.0432 30.6881L49.0512 30.3758H49.0516ZM49.7469 27.0267L47.6289 26.6982C47.3857 25.7405 47.0058 24.8229 46.5008 23.9736L47.7638 22.2437C47.8481 22.1276 47.8882 21.9853 47.8772 21.8423C47.8661 21.6993 47.8044 21.5649 47.7032 21.4633L45.3904 19.1511C45.2892 19.0497 45.1551 18.9878 45.0122 18.9767C44.8694 18.9656 44.7273 19.006 44.6116 19.0906L42.8806 20.355C42.0316 19.8491 41.1139 19.4686 40.156 19.2255L39.8265 17.1089C39.8044 16.9672 39.7324 16.838 39.6235 16.7447C39.5146 16.6513 39.376 16.5999 39.2326 16.5997H35.9625C35.8191 16.5999 35.6804 16.6514 35.5716 16.7447C35.4627 16.8381 35.3907 16.9672 35.3685 17.1089L35.0385 19.2251C34.0807 19.4684 33.163 19.8489 32.314 20.3547L30.5844 19.0902C30.4685 19.0056 30.3262 18.9652 30.1832 18.9763C30.0401 18.9874 29.9058 19.0493 29.8043 19.1508L27.4923 21.4629C27.3907 21.5643 27.3288 21.6988 27.3177 21.8419C27.3066 21.9851 27.347 22.1274 27.4318 22.2433L28.6959 23.9733C28.1903 24.8224 27.8099 25.7401 27.5663 26.6978L25.4501 27.0264C25.3083 27.0486 25.1791 27.1208 25.0859 27.2299C24.9926 27.339 24.9414 27.4779 24.9415 27.6214V30.8909C24.9414 31.0343 24.9926 31.173 25.0859 31.282C25.1792 31.3909 25.3084 31.4629 25.4501 31.4849L27.5672 31.8146C27.8104 32.7725 28.1908 33.6902 28.6967 34.5392L27.4326 36.2691C27.3479 36.3851 27.3075 36.5275 27.3186 36.6707C27.3297 36.8139 27.3916 36.9484 27.4932 37.0499L29.8052 39.3609C29.9066 39.4624 30.041 39.5243 30.184 39.5354C30.3271 39.5465 30.4694 39.5061 30.5853 39.4215L32.3159 38.1564C33.1648 38.6625 34.0825 39.0429 35.0405 39.286L35.37 41.4026C35.3921 41.5442 35.4641 41.6734 35.573 41.7666C35.6819 41.8599 35.8205 41.9111 35.9639 41.9112H39.2341C39.3775 41.9112 39.5162 41.8599 39.6251 41.7666C39.7341 41.6734 39.806 41.5442 39.8281 41.4026L40.1576 39.2867C41.1157 39.0437 42.0334 38.663 42.8822 38.1564L44.6132 39.4215C44.7288 39.5061 44.8709 39.5465 45.0138 39.5354C45.1566 39.5243 45.2908 39.4624 45.3919 39.3609L47.7048 37.0499C47.806 36.9481 47.8676 36.8137 47.8787 36.6706C47.8898 36.5276 47.8496 36.3852 47.7654 36.2691L46.5024 34.5384C47.0074 33.6894 47.3873 32.772 47.6305 31.8146L49.7485 31.485C49.8899 31.4626 50.0188 31.3905 50.1118 31.2816C50.2048 31.1727 50.2559 31.0342 50.2559 30.891V27.6215C50.2558 27.4779 50.2044 27.339 50.111 27.2299C50.0176 27.1208 49.8883 27.0487 49.7464 27.0265L49.7469 27.0267Z" fill="#5C3D42"/>
</svg>
