<svg width="62" height="62" viewBox="0 0 62 62" fill="none" xmlns="http://www.w3.org/2000/svg">
<path fill-rule="evenodd" clip-rule="evenodd" d="M62 31C62 48.0937 48.0935 62 31 62C13.9065 62 0 48.0936 0 31C0 13.9064 13.9064 0 31 0C48.0936 0 62 13.9064 62 31Z" fill="#5C3D42"/>
<path fill-rule="evenodd" clip-rule="evenodd" d="M32.233 31.9575L19.915 41.812C19.5527 42.1018 19.0862 42.155 18.6681 41.9539C18.2498 41.7529 18 41.3556 18 40.8915V21.1827C18 20.7187 18.2498 20.3214 18.6681 20.1204C19.0863 19.9194 19.5527 19.9724 19.915 20.2624L32.233 30.1168C32.5222 30.3481 32.6754 30.6669 32.6754 31.0372C32.6754 31.4075 32.5222 31.7262 32.233 31.9575ZM47.6165 31.9575L35.2985 41.812C34.9361 42.1018 34.4698 42.155 34.0515 41.9539C33.6333 41.7529 33.3835 41.3556 33.3835 40.8915V21.1827C33.3835 20.7187 33.6333 20.3214 34.0515 20.1204C34.4698 19.9194 34.9361 19.9724 35.2985 20.2624L47.6165 30.1168C47.9056 30.3481 48.0588 30.6669 48.0588 31.0372C48.0588 31.4075 47.9056 31.7262 47.6165 31.9575Z" fill="#C77C89"/>
</svg>
