<svg width="64" height="59" viewBox="0 0 64 59" fill="none" xmlns="http://www.w3.org/2000/svg">
<path d="M63.0607 8.51663H56.0361C55.5173 8.51663 55.0967 8.93721 55.0967 9.45597C55.0967 9.97473 55.5173 10.3953 56.0361 10.3953H62.1213V49.5342C62.1213 53.4361 58.9469 56.6106 55.045 56.6106C51.1431 56.6106 47.9687 53.4361 47.9687 49.5342C47.9687 49.0155 47.5481 48.5949 47.0294 48.5949H24.4744C23.9557 48.5949 23.5351 49.0155 23.5351 49.5342C23.5351 50.053 23.9557 50.4736 24.4744 50.4736H46.139C46.3995 52.9629 47.6843 55.1518 49.5629 56.6106H8.95499C5.37149 56.6106 2.40157 53.9331 1.94079 50.4736H19.9765C20.4953 50.4736 20.9159 50.053 20.9159 49.5342C20.9159 49.0155 20.4953 48.5949 19.9765 48.5949H9.89433V10.3953H20.5386C21.5897 11.3294 22.972 11.8982 24.4853 11.8982C25.7872 11.8982 26.9918 11.4768 27.9725 10.7646L33.3397 16.1319C33.5231 16.3152 33.7636 16.407 34.0039 16.407C34.2443 16.407 34.4847 16.3154 34.6681 16.1319C35.0349 15.765 35.0349 15.1703 34.6681 14.8035L30.2599 10.3953H51.6252C52.144 10.3953 52.5645 9.97473 52.5645 9.45597C52.5645 8.93721 52.144 8.51663 51.6252 8.51663H29.8512C30.2248 7.73886 30.4344 6.86804 30.4344 5.94912C30.4344 2.66884 27.7656 0 24.4853 0C21.205 0 18.5362 2.66884 18.5362 5.94912C18.5362 6.86804 18.7459 7.73886 19.1195 8.51663H8.95499C8.43623 8.51663 8.01566 8.93721 8.01566 9.45597V48.5949H0.939335C0.420571 48.5949 0 49.0155 0 49.5342C0 54.472 4.01722 58.4892 8.95499 58.4892H55.045C59.9828 58.4892 64 54.472 64 49.5342V9.45597C64 8.93721 63.5794 8.51663 63.0607 8.51663ZM24.4853 1.87867C26.7297 1.87867 28.5558 3.70474 28.5558 5.94912C28.5558 6.97537 28.1731 7.91333 27.5443 8.63011C27.5326 8.63649 27.5218 8.64388 27.5104 8.65077C27.4971 8.65866 27.4837 8.66618 27.4708 8.67482C27.4564 8.68446 27.4429 8.69511 27.4289 8.7055C27.4183 8.71352 27.4073 8.72091 27.3969 8.72942C27.3489 8.76875 27.305 8.81271 27.2656 8.86068C27.2569 8.87145 27.2491 8.88272 27.2408 8.89375C27.2307 8.90715 27.2203 8.9203 27.2109 8.93432C27.2019 8.94773 27.1941 8.96175 27.1858 8.97553C27.1793 8.98643 27.1722 8.99682 27.1662 9.00797C26.4495 9.63707 25.5116 10.0196 24.4853 10.0196C22.2409 10.0196 20.4149 8.1935 20.4149 5.94912C20.4149 3.70474 22.2409 1.87867 24.4853 1.87867Z" fill="#5C3D42"/>
<path d="M24.9237 25.4872C24.9237 24.9684 24.5031 24.5479 23.9843 24.5479H17.9726C17.4538 24.5479 17.0333 24.9684 17.0333 25.4872C17.0333 26.0059 17.4538 26.4265 17.9726 26.4265H20.0423C20.0409 26.4473 20.0391 26.468 20.0391 26.4891V33.5028C20.0391 34.0216 20.4597 34.4422 20.9785 34.4422C21.4972 34.4422 21.9178 34.0216 21.9178 33.5028V26.4891C21.9178 26.468 21.9161 26.4473 21.9147 26.4265H23.9843C24.5031 26.4265 24.9237 26.0059 24.9237 25.4872Z" fill="#5C3D42"/>
<path d="M28.9941 34.4422C31.1695 34.4422 32.9393 32.2228 32.9393 29.495C32.9393 26.7672 31.1695 24.5479 28.9941 24.5479C26.8188 24.5479 25.0489 26.7672 25.0489 29.495C25.0489 32.2228 26.8188 34.4422 28.9941 34.4422ZM28.9941 26.4265C30.1143 26.4265 31.0607 27.8318 31.0607 29.495C31.0607 31.1583 30.1143 32.5635 28.9941 32.5635C27.8739 32.5635 26.9276 31.1583 26.9276 29.495C26.9276 27.8318 27.8739 26.4265 28.9941 26.4265Z" fill="#5C3D42"/>
<path d="M47.092 29.495C47.092 32.2228 48.8618 34.4422 51.0372 34.4422C53.2126 34.4422 54.9824 32.2228 54.9824 29.495C54.9824 26.7672 53.2126 24.5479 51.0372 24.5479C48.8618 24.5479 47.092 26.7672 47.092 29.495ZM53.1037 29.495C53.1037 31.1583 52.1574 32.5635 51.0372 32.5635C49.917 32.5635 48.9706 31.1583 48.9706 29.495C48.9706 27.8318 49.917 26.4265 51.0372 26.4265C52.1574 26.4265 53.1037 27.8318 53.1037 29.495Z" fill="#5C3D42"/>
<path d="M44.9628 29.495C44.9628 24.7461 38.4437 23.6049 38.1662 23.5587C37.8939 23.5133 37.6152 23.59 37.4046 23.7685C37.1939 23.9469 37.0724 24.2091 37.0724 24.4852V33.5028C37.0724 34.0216 37.493 34.4422 38.0117 34.4422C40.4159 34.4422 44.9628 33.4083 44.9628 29.495ZM38.9511 25.6828C40.4842 26.1435 43.0841 27.255 43.0841 29.495C43.0841 31.6943 40.4174 32.3177 38.9511 32.494V25.6828Z" fill="#5C3D42"/>
<path d="M47.9687 38.5128C47.9687 37.9941 47.5481 37.5735 47.0294 37.5735H26.9902C26.4715 37.5735 26.0509 37.9941 26.0509 38.5128C26.0509 39.0316 26.4715 39.4522 26.9902 39.4522H47.0294C47.5481 39.4522 47.9687 39.0316 47.9687 38.5128Z" fill="#5C3D42"/>
<path d="M28.9941 42.5833C28.4754 42.5833 28.0548 43.0038 28.0548 43.5226C28.0548 44.0413 28.4754 44.4619 28.9941 44.4619H42.0196C42.5383 44.4619 42.9589 44.0413 42.9589 43.5226C42.9589 43.0038 42.5383 42.5833 42.0196 42.5833H28.9941Z" fill="#5C3D42"/>
</svg>
