<svg width="192" height="60" viewBox="0 0 192 60" fill="none" xmlns="http://www.w3.org/2000/svg">
<path d="M43.0019 7.93733H16.5065C15.8871 7.93914 15.2935 8.18611 14.8554 8.6243C14.4174 9.06249 14.1705 9.65629 14.1687 10.276V49.2539C14.1705 49.8736 14.4174 50.4675 14.8554 50.9057C15.2935 51.3439 15.887 51.5908 16.5065 51.5927H43.0019C43.6214 51.5908 44.215 51.3439 44.653 50.9057C45.091 50.4675 45.3379 49.8736 45.3397 49.2539V10.276C45.3379 9.65629 45.091 9.06249 44.653 8.6243C44.2149 8.18611 43.6214 7.93914 43.0019 7.93733ZM18.4547 33.273C18.2235 33.273 17.9975 33.2044 17.8052 33.0759C17.613 32.9474 17.4632 32.7648 17.3747 32.5511C17.2862 32.3375 17.2631 32.1024 17.3082 31.8755C17.3533 31.6487 17.4646 31.4403 17.6281 31.2768C17.7916 31.1133 17.9999 31.0019 18.2266 30.9568C18.4534 30.9116 18.6884 30.9348 18.902 31.0233C19.1156 31.1118 19.2982 31.2617 19.4266 31.454C19.555 31.6463 19.6236 31.8724 19.6236 32.1036C19.6238 32.2573 19.5937 32.4094 19.535 32.5514C19.4764 32.6934 19.3903 32.8223 19.2817 32.931C19.1731 33.0396 19.0442 33.1257 18.9022 33.1844C18.7603 33.2431 18.6082 33.2732 18.4547 33.273ZM18.4547 27.0365C18.2235 27.0365 17.9975 26.968 17.8052 26.8395C17.613 26.711 17.4632 26.5283 17.3747 26.3147C17.2862 26.101 17.2631 25.8659 17.3082 25.639C17.3533 25.4122 17.4646 25.2039 17.6281 25.0403C17.7916 24.8768 17.9999 24.7654 18.2266 24.7203C18.4534 24.6752 18.6884 24.6983 18.902 24.7868C19.1156 24.8753 19.2982 25.0252 19.4266 25.2175C19.555 25.4098 19.6236 25.6359 19.6236 25.8672C19.6238 26.0208 19.5937 26.173 19.535 26.3149C19.4764 26.4569 19.3903 26.5859 19.2817 26.6945C19.1731 26.8031 19.0442 26.8893 18.9022 26.9479C18.7603 27.0066 18.6082 27.0367 18.4547 27.0365ZM18.4547 20.8001C18.2235 20.8001 17.9975 20.7315 17.8052 20.603C17.613 20.4745 17.4632 20.2919 17.3747 20.0782C17.2862 19.8645 17.2631 19.6294 17.3082 19.4026C17.3533 19.1757 17.4646 18.9674 17.6281 18.8038C17.7916 18.6403 17.9999 18.5289 18.2266 18.4838C18.4534 18.4387 18.6884 18.4619 18.902 18.5504C19.1156 18.6389 19.2982 18.7888 19.4266 18.9811C19.5551 19.1734 19.6236 19.3994 19.6236 19.6307C19.6238 19.7843 19.5937 19.9365 19.535 20.0785C19.4764 20.2204 19.3903 20.3494 19.2817 20.458C19.1731 20.5667 19.0442 20.6528 18.9022 20.7115C18.7603 20.7702 18.6082 20.8003 18.4547 20.8001ZM18.4547 14.5635C18.2235 14.5635 17.9975 14.495 17.8053 14.3665C17.613 14.238 17.4632 14.0553 17.3748 13.8417C17.2863 13.628 17.2632 13.3929 17.3083 13.1661C17.3534 12.9392 17.4647 12.7309 17.6282 12.5674C17.7917 12.4038 17.9999 12.2925 18.2267 12.2474C18.4534 12.2022 18.6885 12.2254 18.902 12.3139C19.1156 12.4024 19.2982 12.5523 19.4266 12.7446C19.5551 12.9369 19.6236 13.163 19.6236 13.3942C19.6238 13.5479 19.5937 13.7 19.535 13.842C19.4764 13.9839 19.3903 14.1129 19.2817 14.2215C19.1731 14.3302 19.0441 14.4163 18.9022 14.475C18.7603 14.5336 18.6082 14.5638 18.4547 14.5635ZM38.0301 38.0127L27.8372 48.2094C27.765 48.2831 27.679 48.3417 27.584 48.3818C27.489 48.422 27.387 48.4428 27.2839 48.4432C27.1819 48.4428 27.0811 48.4219 26.9874 48.3817C26.8937 48.3415 26.809 48.2829 26.7384 48.2094L21.4783 42.9473C21.406 42.8752 21.3487 42.7895 21.3096 42.6952C21.2705 42.6009 21.2504 42.4998 21.2504 42.3977C21.2504 42.2956 21.2705 42.1945 21.3096 42.1002C21.3487 42.0059 21.406 41.9202 21.4783 41.8481L23.6837 39.642C23.7558 39.5697 23.8414 39.5124 23.9357 39.4733C24.0299 39.4342 24.131 39.414 24.233 39.414C24.3351 39.414 24.4362 39.4342 24.5304 39.4733C24.6247 39.5124 24.7103 39.5697 24.7824 39.642L27.2839 42.1444L34.726 34.7074C34.8734 34.5649 35.0704 34.4852 35.2754 34.4852C35.4804 34.4852 35.6774 34.5649 35.8248 34.7074L38.0301 36.9136C38.1024 36.9857 38.1597 37.0713 38.1988 37.1656C38.2379 37.2599 38.258 37.361 38.258 37.4631C38.258 37.5652 38.2379 37.6663 38.1988 37.7606C38.1597 37.8549 38.1024 37.9406 38.0301 38.0127ZM41.4433 32.8832H21.9615C21.8589 32.8836 21.7573 32.8637 21.6624 32.8246C21.5675 32.7856 21.4813 32.7283 21.4086 32.6558C21.336 32.5834 21.2783 32.4974 21.239 32.4026C21.1997 32.3078 21.1794 32.2062 21.1794 32.1036C21.1794 32.001 21.1997 31.8994 21.239 31.8047C21.2783 31.7099 21.336 31.6238 21.4086 31.5514C21.4813 31.479 21.5675 31.4216 21.6624 31.3826C21.7573 31.3436 21.8589 31.3237 21.9615 31.3241H41.4433C41.6495 31.3248 41.847 31.4073 41.9926 31.5534C42.1381 31.6995 42.2198 31.8974 42.2198 32.1036C42.2198 32.3099 42.1381 32.5078 41.9926 32.6539C41.847 32.8 41.6495 32.8824 41.4433 32.8832ZM41.4433 26.6467H21.9615C21.8589 26.6471 21.7573 26.6272 21.6624 26.5882C21.5675 26.5492 21.4813 26.4918 21.4086 26.4194C21.336 26.347 21.2783 26.2609 21.239 26.1661C21.1997 26.0714 21.1794 25.9698 21.1794 25.8672C21.1794 25.7646 21.1997 25.663 21.239 25.5682C21.2783 25.4734 21.336 25.3874 21.4086 25.315C21.4813 25.2425 21.5675 25.1852 21.6624 25.1462C21.7573 25.1072 21.8589 25.0873 21.9615 25.0876H41.4433C41.6495 25.0884 41.847 25.1708 41.9926 25.3169C42.1381 25.463 42.2198 25.6609 42.2198 25.8672C42.2198 26.0734 42.1381 26.2713 41.9926 26.4174C41.847 26.5635 41.6495 26.646 41.4433 26.6467ZM41.4433 20.4103H21.9615C21.8589 20.4106 21.7573 20.3907 21.6624 20.3517C21.5675 20.3127 21.4813 20.2553 21.4086 20.1829C21.336 20.1105 21.2783 20.0244 21.239 19.9297C21.1997 19.8349 21.1794 19.7333 21.1794 19.6307C21.1794 19.5281 21.1997 19.4265 21.239 19.3317C21.2783 19.237 21.336 19.1509 21.4086 19.0785C21.4813 19.0061 21.5675 18.9487 21.6624 18.9097C21.7573 18.8707 21.8589 18.8508 21.9615 18.8512H41.4433C41.6495 18.8519 41.847 18.9343 41.9926 19.0805C42.1381 19.2266 42.2198 19.4244 42.2198 19.6307C42.2198 19.837 42.1381 20.0348 41.9926 20.1809C41.847 20.3271 41.6495 20.4095 41.4433 20.4103ZM41.4433 14.1738H21.9615C21.7548 14.1738 21.5566 14.0917 21.4104 13.9455C21.2643 13.7993 21.1822 13.601 21.1822 13.3942C21.1822 13.1875 21.2643 12.9892 21.4104 12.843C21.5566 12.6968 21.7548 12.6147 21.9615 12.6147H41.4433C41.65 12.6147 41.8482 12.6968 41.9944 12.843C42.1405 12.9892 42.2226 13.1875 42.2226 13.3942C42.2226 13.601 42.1405 13.7993 41.9944 13.9455C41.8482 14.0917 41.65 14.1738 41.4433 14.1738ZM35.2793 36.36L36.3781 37.4592L27.2839 46.5567L23.1303 42.4016L24.2291 41.2946L26.7384 43.797C26.8095 43.871 26.8948 43.9298 26.9892 43.97C27.0836 44.0102 27.1852 44.0309 27.2878 44.0309C27.3904 44.0309 27.4919 44.0102 27.5863 43.97C27.6807 43.9298 27.766 43.871 27.8371 43.797L35.2793 36.36ZM29.7542 0C23.8694 0 18.1167 1.74569 13.2237 5.01631C8.33061 8.28693 4.51694 12.9356 2.26492 18.3744C0.0128923 23.8133 -0.57634 29.798 0.571732 35.5719C1.7198 41.3457 4.55362 46.6493 8.71481 50.812C12.876 54.9747 18.1777 57.8096 23.9494 58.9581C29.7212 60.1065 35.7038 59.5171 41.1406 57.2643C46.5775 55.0114 51.2245 51.1964 54.4939 46.3015C57.7633 41.4067 59.5084 35.652 59.5084 29.765C59.4995 21.8736 56.3618 14.3079 50.7838 8.7278C45.2057 3.14771 37.6428 0.00890486 29.7542 0ZM29.7542 57.8346C24.2046 57.8346 18.7796 56.1884 14.1652 53.104C9.55085 50.0197 5.9544 45.6358 3.83065 40.5068C1.7069 35.3777 1.15123 29.7339 2.23391 24.2889C3.31659 18.8439 5.98899 13.8424 9.91317 9.91676C13.8374 5.99115 18.8371 3.31778 24.2801 2.2347C29.7231 1.15163 35.3649 1.7075 40.4921 3.83203C45.6193 5.95655 50.0016 9.55431 53.0848 14.1703C56.168 18.7864 57.8137 24.2133 57.8137 29.765C57.8053 37.2069 54.8463 44.3417 49.586 49.604C44.3256 54.8662 37.1935 57.8262 29.7542 57.8346Z" fill="#374267"/>
<path d="M66.0154 11.6997C67.5421 11.882 68.8637 12.0187 69.9802 12.1099C71.0968 12.1782 72.0196 12.2352 72.7488 12.2808C73.5919 12.3263 74.2983 12.3377 74.8679 12.3149C75.4604 12.2922 76.2693 12.2352 77.2947 12.144C78.1606 12.0757 79.2999 11.9845 80.7126 11.8706C82.1254 11.7339 83.8914 11.5516 86.0105 11.3237C86.0333 11.8478 86.0447 12.3605 86.0447 12.8618C86.0675 13.3403 86.0903 13.7619 86.113 14.1265C86.1358 14.5594 86.1472 14.9582 86.1472 15.3228C86.1472 15.7101 86.1244 16.2 86.0789 16.7925C86.0333 17.2938 85.9535 17.9318 85.8396 18.7065C85.7485 19.4585 85.6003 20.3586 85.3953 21.4067C85.0763 20.1763 84.7686 19.1851 84.4724 18.4331C84.1762 17.6584 83.9028 17.0431 83.6521 16.5874C83.3787 16.0633 83.1052 15.6646 82.8318 15.3911C82.5356 15.186 82.1824 15.0151 81.7722 14.8784C81.4076 14.7645 80.9405 14.6733 80.3708 14.605C79.824 14.5366 79.1746 14.548 78.4226 14.6392C78.3087 17.647 78.2289 20.0851 78.1833 21.9536C78.1378 23.8221 78.1036 25.2804 78.0808 26.3286C78.058 27.5819 78.0466 28.4819 78.0466 29.0288C78.0694 29.8035 78.1947 30.5669 78.4226 31.3188C78.6049 31.9569 78.9011 32.6177 79.3113 33.3013C79.7214 33.9849 80.3139 34.5887 81.0886 35.1128H76.9187C76.5313 35.1128 76.0528 35.1356 75.4832 35.1812C75.0046 35.2267 74.3894 35.2723 73.6375 35.3179C72.9083 35.3634 72.0538 35.4432 71.074 35.5571C71.4158 34.9647 71.6892 34.4292 71.8943 33.9507C72.0994 33.4722 72.2589 33.062 72.3728 32.7202C72.5095 32.3101 72.6121 31.9455 72.6804 31.6265C72.7032 31.1707 72.7602 30.2479 72.8513 28.8579C72.8741 28.2882 72.8969 27.5819 72.9197 26.7388C72.9653 25.8957 73.0108 24.8931 73.0564 23.731C73.1248 22.5688 73.1817 21.2358 73.2273 19.7319C73.2957 18.2052 73.364 16.4849 73.4324 14.5708C73.0222 14.4569 72.6348 14.4683 72.2703 14.605C71.9057 14.7189 71.5867 14.867 71.3132 15.0493C70.9942 15.2772 70.6866 15.5506 70.3904 15.8696C70.0942 16.257 69.7638 16.7583 69.3992 17.3735C69.0802 17.8976 68.7156 18.5926 68.3054 19.4585C67.8953 20.3016 67.4281 21.3498 66.9041 22.603C66.7901 21.2814 66.7104 20.1991 66.6648 19.356C66.6192 18.4901 66.585 17.8179 66.5623 17.3394C66.5395 16.7697 66.5281 16.3481 66.5281 16.0747C66.5281 15.8241 66.5053 15.4937 66.4597 15.0835C66.4141 14.7417 66.3572 14.2974 66.2888 13.7505C66.2205 13.1808 66.1293 12.4972 66.0154 11.6997ZM94.7947 21.3384C95.3871 21.3384 96.0024 21.4523 96.6404 21.6802C97.2784 21.8853 97.8936 22.1587 98.4861 22.5005C99.0785 22.8195 99.614 23.1727 100.093 23.5601C100.594 23.9246 101.004 24.2778 101.323 24.6196C101.893 25.2349 102.28 26.0666 102.485 27.1147C102.713 28.1401 102.759 29.1997 102.622 30.2935C102.485 31.3644 102.166 32.3784 101.665 33.3354C101.163 34.2925 100.469 34.9989 99.5798 35.4546C98.9418 35.7736 98.3152 36.0243 97.7 36.2065C97.0847 36.3888 96.4923 36.5256 95.9226 36.6167C95.3529 36.7078 94.8175 36.7534 94.3162 36.7534C93.8149 36.7534 93.3819 36.742 93.0173 36.7192C92.3337 36.6737 91.616 36.4344 90.864 36.0015C90.1348 35.5685 89.4399 35.033 88.7791 34.395C88.141 33.757 87.5942 33.062 87.1384 32.3101C86.6827 31.5353 86.4093 30.8062 86.3181 30.1226C86.1814 29.1883 86.1586 28.2085 86.2498 27.1831C86.3409 26.1577 86.6713 25.2121 87.241 24.3462C87.8334 23.4803 88.7221 22.7625 89.907 22.1929C91.1147 21.6232 92.7439 21.3384 94.7947 21.3384ZM93.6667 34.6001C93.9174 34.6457 94.2592 34.5887 94.6921 34.4292C95.1251 34.2469 95.5466 33.9621 95.9568 33.5747C96.3897 33.1873 96.7657 32.6974 97.0847 32.105C97.4265 31.4897 97.6316 30.7492 97.7 29.8833C97.7683 29.0402 97.7683 28.2655 97.7 27.5591C97.6544 26.8527 97.5518 26.2375 97.3923 25.7134C97.2328 25.1665 97.0505 24.7222 96.8455 24.3804C96.6404 24.0386 96.4239 23.7993 96.196 23.6626C95.8087 23.4575 95.3416 23.298 94.7947 23.1841C94.2478 23.0474 93.7807 23.0701 93.3933 23.2524C93.211 23.3436 92.9832 23.5373 92.7097 23.8335C92.4363 24.1297 92.1628 24.5057 91.8894 24.9614C91.616 25.3944 91.3653 25.8957 91.1375 26.4653C90.9324 27.035 90.7843 27.6274 90.6931 28.2427C90.602 28.8579 90.5792 29.5187 90.6248 30.2251C90.6931 30.9315 90.8412 31.6037 91.0691 32.2417C91.297 32.8569 91.616 33.3924 92.0261 33.8481C92.4591 34.2811 93.0059 34.5317 93.6667 34.6001ZM121.045 10.4692C121.478 10.492 121.945 10.5034 122.446 10.5034C122.879 10.5034 123.369 10.5148 123.916 10.5376C124.485 10.5376 125.078 10.5148 125.693 10.4692C125.146 10.7199 124.668 11.0845 124.258 11.563C123.847 12.0415 123.517 12.52 123.266 12.9985C122.947 13.5682 122.685 14.1606 122.48 14.7759C122.366 15.1405 122.275 15.7899 122.207 16.7241C122.138 17.6356 122.081 18.7065 122.036 19.937C122.013 21.1675 122.002 22.4663 122.002 23.8335C122.002 25.2007 122.013 26.5109 122.036 27.7642C122.059 28.9946 122.093 30.0884 122.138 31.0454C122.184 32.0024 122.241 32.6746 122.309 33.062C122.4 33.5177 122.514 33.9507 122.651 34.3608C122.765 34.7254 122.913 35.1014 123.095 35.4888C123.278 35.8534 123.506 36.1496 123.779 36.3774L120.293 37.9497C120.11 37.6991 119.962 37.437 119.848 37.1636C119.734 36.9129 119.643 36.6851 119.575 36.48C119.484 36.2293 119.427 36.0015 119.404 35.7964C119.358 35.5229 119.313 35.2267 119.267 34.9077C119.222 34.5659 119.165 34.2469 119.096 33.9507C119.051 33.6317 119.017 33.3696 118.994 33.1646C118.971 32.9595 118.971 32.8341 118.994 32.7886C119.017 32.743 118.88 32.9481 118.584 33.4038C118.288 33.8368 117.843 34.3494 117.251 34.9419C116.681 35.5116 115.975 36.0698 115.132 36.6167C114.288 37.1408 113.343 37.4712 112.295 37.6079C111.224 37.7446 110.233 37.5396 109.321 36.9927C108.432 36.4458 107.669 35.6825 107.031 34.7026C106.393 33.7 105.903 32.5493 105.561 31.2505C105.242 29.9289 105.117 28.5845 105.185 27.2173C105.231 26.3058 105.436 25.4969 105.801 24.7905C106.165 24.0614 106.621 23.4347 107.168 22.9106C107.737 22.3638 108.353 21.908 109.013 21.5435C109.697 21.1561 110.358 20.8371 110.996 20.5864C111.657 20.3358 112.272 20.1535 112.842 20.0396C113.411 19.9256 113.867 19.8459 114.209 19.8003C114.619 19.7775 115.086 19.8459 115.61 20.0054C116.066 20.1421 116.59 20.37 117.182 20.689C117.798 21.008 118.481 21.4865 119.233 22.1245C119.096 19.8459 118.971 18.0229 118.857 16.6558C118.743 15.2658 118.629 14.2062 118.515 13.4771C118.401 12.6112 118.299 12.0187 118.208 11.6997C118.094 11.4718 117.946 11.244 117.763 11.0161C117.604 10.8338 117.399 10.6515 117.148 10.4692C116.92 10.2642 116.647 10.1047 116.328 9.99072C116.92 10.1047 117.49 10.1844 118.037 10.23C118.584 10.2756 119.085 10.3211 119.541 10.3667C120.065 10.4123 120.566 10.4465 121.045 10.4692ZM112.466 23.2183C112.033 23.3778 111.679 23.6512 111.406 24.0386C111.155 24.4259 110.95 24.8931 110.791 25.4399C110.631 25.964 110.517 26.5337 110.449 27.1489C110.403 27.7414 110.369 28.3224 110.346 28.8921C110.346 29.439 110.346 29.9403 110.346 30.396C110.346 30.8517 110.346 31.1935 110.346 31.4214C110.346 31.5581 110.369 31.8088 110.415 32.1733C110.483 32.5151 110.62 32.8797 110.825 33.2671C111.03 33.6317 111.315 33.9621 111.679 34.2583C112.067 34.5545 112.58 34.7026 113.218 34.7026C113.742 34.6571 114.3 34.4748 114.892 34.1558C115.416 33.8823 116.009 33.4494 116.67 32.8569C117.353 32.2417 118.082 31.3644 118.857 30.2251C118.812 29.4959 118.777 28.8921 118.755 28.4136C118.755 27.9351 118.743 27.5477 118.72 27.2515C118.698 26.9097 118.686 26.6362 118.686 26.4312V25.9185C118.686 25.7817 118.686 25.6336 118.686 25.4741C118.686 25.3146 118.698 25.1665 118.72 25.0298C118.082 24.5741 117.513 24.1867 117.011 23.8677C116.533 23.5259 116.054 23.2752 115.576 23.1157C115.12 22.9334 114.642 22.8537 114.14 22.8765C113.662 22.8765 113.104 22.9904 112.466 23.2183ZM134.135 21.3384C134.728 21.3384 135.343 21.4523 135.981 21.6802C136.619 21.8853 137.234 22.1587 137.827 22.5005C138.419 22.8195 138.955 23.1727 139.433 23.5601C139.935 23.9246 140.345 24.2778 140.664 24.6196C141.233 25.2349 141.621 26.0666 141.826 27.1147C142.054 28.1401 142.099 29.1997 141.963 30.2935C141.826 31.3644 141.507 32.3784 141.006 33.3354C140.504 34.2925 139.809 34.9989 138.921 35.4546C138.283 35.7736 137.656 36.0243 137.041 36.2065C136.426 36.3888 135.833 36.5256 135.263 36.6167C134.694 36.7078 134.158 36.7534 133.657 36.7534C133.156 36.7534 132.723 36.742 132.358 36.7192C131.675 36.6737 130.957 36.4344 130.205 36.0015C129.476 35.5685 128.781 35.033 128.12 34.395C127.482 33.757 126.935 33.062 126.479 32.3101C126.024 31.5353 125.75 30.8062 125.659 30.1226C125.522 29.1883 125.499 28.2085 125.591 27.1831C125.682 26.1577 126.012 25.2121 126.582 24.3462C127.174 23.4803 128.063 22.7625 129.248 22.1929C130.455 21.6232 132.085 21.3384 134.135 21.3384ZM133.008 34.6001C133.258 34.6457 133.6 34.5887 134.033 34.4292C134.466 34.2469 134.887 33.9621 135.298 33.5747C135.731 33.1873 136.107 32.6974 136.426 32.105C136.767 31.4897 136.972 30.7492 137.041 29.8833C137.109 29.0402 137.109 28.2655 137.041 27.5591C136.995 26.8527 136.893 26.2375 136.733 25.7134C136.574 25.1665 136.391 24.7222 136.186 24.3804C135.981 24.0386 135.765 23.7993 135.537 23.6626C135.149 23.4575 134.682 23.298 134.135 23.1841C133.589 23.0474 133.122 23.0701 132.734 23.2524C132.552 23.3436 132.324 23.5373 132.051 23.8335C131.777 24.1297 131.504 24.5057 131.23 24.9614C130.957 25.3944 130.706 25.8957 130.478 26.4653C130.273 27.035 130.125 27.6274 130.034 28.2427C129.943 28.8579 129.92 29.5187 129.966 30.2251C130.034 30.9315 130.182 31.6037 130.41 32.2417C130.638 32.8569 130.957 33.3924 131.367 33.8481C131.8 34.2811 132.347 34.5317 133.008 34.6001Z" fill="#5C3D42"/>
</svg>
